<?xml version="1.0" encoding="UTF-8"?>
<svg id="Layer_1" data-name="Layer 1" xmlns="http://www.w3.org/2000/svg" viewBox="0 0 1363.73 62.45">
  <defs>
    <style>
      .cls-1 {
        fill: #7bcbff;
        stroke: #7bcbff;
        stroke-miterlimit: 10;
      }
    </style>
  </defs>
  <path class="cls-1" d="M16.07.5c7.31,0,10.97,1.51,10.97,4.54,0,.82-.19,1.49-.56,2-.38.52-1.09,1.09-2.14,1.72-.91.56-1.49,1.3-1.74,2.21s-.37,2.77-.37,5.55c0,1.64.3,2.65.91,3.02.35.23.88.38,1.6.42.71.05,2.4.07,5.04.07,2.41,0,3.91-.13,4.5-.39.59-.26.88-.9.88-1.93,0-3.09-.14-5.25-.42-6.47-.28-1.22-.83-2.05-1.65-2.5-1.03-.59-1.71-1.08-2.04-1.49-.33-.41-.49-.95-.49-1.63,0-.96.36-1.83,1.09-2.62.73-.79,1.68-1.32,2.85-1.6,2.44-.59,5.5-.88,9.18-.88,4.31,0,7.49.39,9.54,1.18,2.05.79,3.08,2.01,3.08,3.67,0,1.41-.73,2.46-2.18,3.16-.91.42-1.51.83-1.79,1.21s-.5,1.11-.67,2.16c-.09.59-.21,3.19-.35,7.8-.14,4.62-.21,8.29-.21,11,0,4.76.18,7.78.53,9.07.19.7.4,1.17.63,1.41.23.23.97.7,2.21,1.41.89.49,1.34,1.24,1.34,2.25,0,1.78-1.06,3.08-3.18,3.88-2.12.81-5.56,1.21-10.32,1.21-4.17,0-7.25-.41-9.25-1.23-1.81-.75-2.71-1.91-2.71-3.48,0-1.34.69-2.38,2.07-3.13.68-.37,1.14-.75,1.39-1.12.25-.37.49-1.07.72-2.07.42-1.97.63-4.38.63-7.24,0-1.48-.22-2.39-.65-2.74-.43-.35-1.56-.53-3.39-.53-4.2,0-6.87.23-8.02.7-.47.19-.76.74-.88,1.65-.14,1.12-.21,2.51-.21,4.15,0,2.67.37,4.59,1.12,5.77.26.38.87.86,1.83,1.44.98.56,1.48,1.49,1.48,2.78,0,1.64-1.14,2.9-3.41,3.76-2.27.87-5.52,1.3-9.74,1.3-3.84,0-6.98-.4-9.42-1.2-1.05-.35-1.88-.85-2.48-1.49-.6-.64-.9-1.35-.9-2.13s.19-1.37.56-1.79c.37-.42,1.2-.96,2.46-1.62.66-.33,1.12-.75,1.39-1.27.27-.52.47-1.38.62-2.6.35-2.74.53-6.33.53-10.76,0-.82-.01-1.79-.04-2.92-.09-5.62-.14-8.84-.14-9.63.02-2.02-.15-3.35-.51-3.99-.36-.64-1.32-1.35-2.87-2.13-1.03-.49-1.55-1.23-1.55-2.21C.96,3.86,3.25,2.22,7.85,1.31c2.67-.54,5.41-.81,8.23-.81Z"/>
  <path class="cls-1" d="M91.1,33.51h-16.52c-.73,0-1.09.32-1.09.95,0,1.52.83,2.96,2.48,4.31,1.65,1.35,3.43,2.02,5.33,2.02,1.12,0,2.37-.22,3.74-.65,1.37-.43,2.5-.97,3.39-1.6.8-.56,1.43-.84,1.9-.84.61,0,1.21.38,1.79,1.12.59.75.88,1.52.88,2.32,0,1.69-1.05,3.32-3.16,4.89-3.73,2.79-8.03,4.18-12.9,4.18s-9.05-1.43-12.38-4.29c-1.62-1.41-2.95-3.11-4.01-5.1-1.38-2.65-2.07-5.44-2.07-8.37,0-3.94,1.2-7.48,3.59-10.62,2.06-2.72,4.69-4.75,7.88-6.08,2.39-1.01,4.98-1.51,7.77-1.51,4.45,0,8.24,1.27,11.36,3.8,1.57,1.27,2.84,2.77,3.8,4.5,1.1,1.97,1.65,3.89,1.65,5.77,0,1.52-.32,2.77-.95,3.74-.63.97-1.45,1.46-2.46,1.46ZM75.49,26.94h3.55c1.5,0,2.25-.69,2.25-2.07,0-1.27-.36-2.3-1.09-3.09-.73-.8-1.68-1.2-2.85-1.2-1.31,0-2.34.52-3.09,1.55-.7.96-1.05,1.93-1.05,2.92,0,.7.17,1.2.51,1.48.34.28.93.42,1.78.42Z"/>
  <path class="cls-1" d="M129.38,31.54l-4.64,12.76c-1.15,3.16-2.3,5.75-3.46,7.75s-2.48,3.71-3.96,5.12c-3.05,2.91-6.71,4.36-11,4.36-3.47,0-6.28-.91-8.44-2.74-1.66-1.41-2.5-3.2-2.5-5.38,0-1.81.58-3.32,1.74-4.55s2.58-1.85,4.27-1.85,3.05.56,4.08,1.69c.49.52.82.97.98,1.37.16.4.41,1.28.74,2.64.26,1.03.84,1.55,1.76,1.55.73,0,1.34-.32,1.83-.95s.74-1.42.74-2.36c0-1.1-.61-2.94-1.83-5.52l-8.47-18.04c-.89-1.88-1.56-3.05-2-3.52-.45-.47-1.43-1.04-2.95-1.72-.47-.19-.87-.56-1.21-1.11-.34-.55-.51-1.08-.51-1.6,0-2.09,2.07-3.5,6.22-4.25,2.77-.49,5.92-.74,9.46-.74,2.48,0,4.44.26,5.87.77,1.92.68,2.88,1.84,2.88,3.48,0,.59-.27,1.28-.81,2.07-.52.75-.77,1.42-.77,2s.12,1.15.37,1.76c.25.61.77,1.64,1.56,3.09.89,1.64,1.68,2.46,2.36,2.46.73,0,1.48-.72,2.25-2.16s1.16-2.83,1.16-4.17c0-1.08-.29-1.96-.88-2.64-.89-1.05-1.34-1.96-1.34-2.71,0-1.2.8-2.15,2.39-2.87,1.59-.71,3.73-1.07,6.4-1.07,4.97,0,7.45,1.2,7.45,3.59,0,.87-.25,1.56-.76,2.09-.5.53-1.42,1.03-2.76,1.49-1.12.42-2.02,1.12-2.67,2.11-1.03,1.57-2.21,4.16-3.55,7.77Z"/>
  <path class="cls-1" d="M145.87,33.16c1.15,0,2.29.28,3.41.83,1.12.55,2.06,1.3,2.81,2.23,1.78,2.23,2.67,5.04,2.67,8.44,0,1.88-.35,3.98-1.04,6.31-.69,2.33-1.6,4.45-2.72,6.35-1.85,3.09-3.79,4.64-5.8,4.64-.89,0-1.69-.27-2.41-.81-.72-.54-1.07-1.16-1.07-1.86,0-.38.44-1.28,1.34-2.71.54-.84,1.01-1.79,1.42-2.85.41-1.05.62-1.85.62-2.39,0-.84-.4-1.42-1.2-1.72-1.57-.59-2.68-1.16-3.34-1.72-1.97-1.69-2.95-3.85-2.95-6.5,0-2.11.69-3.91,2.07-5.41,1.71-1.88,3.77-2.81,6.19-2.81Z"/>
  <path class="cls-1" d="M216.99,43.18l-3.62-5.8c-.84-1.31-1.39-2.1-1.63-2.36-.25-.26-.57-.39-.97-.39-.84,0-1.71.77-2.6,2.32l-5.87,10.12c-1.12,1.95-2.39,2.92-3.8,2.92-.87,0-1.66-.3-2.39-.9-.73-.6-1.51-1.61-2.36-3.04l-10.55-17.54c-1.76-2.84-3.13-4.69-4.11-5.55-.47-.37-1.32-.74-2.57-1.09-.52-.16-.94-.49-1.28-.97-.34-.48-.51-1.01-.51-1.6,0-1.8,1.39-3.07,4.18-3.8,2.81-.7,5.88-1.05,9.21-1.05,7.48,0,11.21,1.39,11.21,4.18,0,.52-.36,1.3-1.09,2.36-.14.21-.21.43-.21.67,0,.52.55,1.79,1.65,3.83,1.22,2.32,2.27,3.48,3.16,3.48.52,0,1.17-.59,1.97-1.76.8-1.17,1.2-2.12,1.2-2.85s-.18-1.31-.53-1.74c-.35-.43-1.18-1.12-2.5-2.06-.8-.56-1.2-1.23-1.2-2,0-1.83,1.88-3.02,5.62-3.59,2.27-.35,4.94-.53,8.02-.53,3.54,0,6.09.3,7.66.9,1.57.6,2.36,1.56,2.36,2.9,0,.54-.09.97-.28,1.3-.19.33-.69.91-1.51,1.76-.26.28-.39.65-.39,1.09,0,.63.54,1.97,1.62,4.01.94,1.78,1.79,2.67,2.57,2.67.84,0,1.91-1.14,3.2-3.41.94-1.71,1.41-2.85,1.41-3.41,0-.44-.38-1.14-1.12-2.07-.54-.66-.81-1.37-.81-2.14,0-1.22.55-2.06,1.65-2.53,1.55-.68,3.8-1.02,6.75-1.02,1.99,0,3.76.15,5.31.46.89.19,1.62.57,2.18,1.14.56.57.84,1.24.84,1.99s-.33,1.38-.98,1.9c-.12.12-.94.45-2.46.98-.87.33-1.58.8-2.14,1.41-.56.61-1.24,1.7-2.04,3.27l-8.79,17.02c-2.58,4.97-4.85,7.45-6.82,7.45-.84,0-1.78-.53-2.79-1.6s-2.3-2.84-3.85-5.33Z"/>
  <path class="cls-1" d="M278.2,33.51h-16.52c-.73,0-1.09.32-1.09.95,0,1.52.83,2.96,2.48,4.31,1.65,1.35,3.43,2.02,5.33,2.02,1.12,0,2.37-.22,3.74-.65,1.37-.43,2.5-.97,3.39-1.6.8-.56,1.43-.84,1.9-.84.61,0,1.21.38,1.79,1.12.59.75.88,1.52.88,2.32,0,1.69-1.05,3.32-3.16,4.89-3.73,2.79-8.03,4.18-12.9,4.18s-9.05-1.43-12.38-4.29c-1.62-1.41-2.95-3.11-4.01-5.1-1.38-2.65-2.07-5.44-2.07-8.37,0-3.94,1.2-7.48,3.59-10.62,2.06-2.72,4.69-4.75,7.88-6.08,2.39-1.01,4.98-1.51,7.77-1.51,4.45,0,8.24,1.27,11.36,3.8,1.57,1.27,2.84,2.77,3.8,4.5,1.1,1.97,1.65,3.89,1.65,5.77,0,1.52-.32,2.77-.95,3.74-.63.97-1.45,1.46-2.46,1.46ZM262.59,26.94h3.55c1.5,0,2.25-.69,2.25-2.07,0-1.27-.36-2.3-1.09-3.09-.73-.8-1.68-1.2-2.85-1.2-1.31,0-2.34.52-3.09,1.55-.7.96-1.05,1.93-1.05,2.92,0,.7.17,1.2.51,1.48.34.28.93.42,1.78.42Z"/>
  <path class="cls-1" d="M303.97,21.38v11.29c0,4.99.08,7.9.23,8.72.15.82.73,1.45,1.74,1.9.87.38,1.45.73,1.74,1.05.29.33.44.8.44,1.41,0,.77-.28,1.48-.83,2.11-.55.63-1.28,1.08-2.2,1.34-1.69.52-4.54.77-8.54.77-4.52,0-7.7-.34-9.53-1.02-.84-.3-1.54-.78-2.07-1.42-.54-.64-.81-1.32-.81-2.02,0-.56.15-1,.44-1.3.29-.3.93-.67,1.92-1.09.91-.4,1.48-1.49,1.69-3.27.37-3.05.56-7.38.56-13.01s-.16-9.4-.49-11.04c-.33-1.64-1.15-2.86-2.46-3.66-.98-.56-1.66-1.1-2.02-1.6-.36-.5-.54-1.12-.54-1.85,0-1.15.55-2.15,1.65-3.01,1.1-.86,2.86-1.65,5.27-2.37,1.62-.49,3.71-.96,6.29-1.41,2.58-.44,4.45-.67,5.62-.67,1.85,0,2.78,1.15,2.78,3.45,0,.75-.12,2.47-.35,5.17-.3,4.2-.48,8.04-.53,11.53Z"/>
  <path class="cls-1" d="M330.23,14.25c4.17,0,7.85,1.04,11.04,3.13,3.02,1.99,4.54,4.46,4.54,7.42,0,2.04-.7,3.69-2.11,4.96-1.31,1.2-2.9,1.79-4.75,1.79-1.95,0-3.41-.7-4.39-2.11-.3-.44-.75-1.58-1.34-3.41-.63-1.97-1.84-2.95-3.62-2.95-1.29,0-2.37.56-3.25,1.69s-1.32,2.51-1.32,4.15c0,2.81,1.01,5.31,3.02,7.49,1.64,1.76,3.7,2.64,6.19,2.64,1.17,0,2.16-.1,2.95-.3.8-.2,1.84-.6,3.13-1.21.33-.16.69-.25,1.09-.25.8,0,1.5.38,2.11,1.12.61.75.91,1.63.91,2.64s-.43,2.16-1.3,3.32c-.87,1.16-2,2.17-3.41,3.04-3.05,1.88-6.64,2.81-10.79,2.81-4.83,0-8.94-1.41-12.34-4.22-4.36-3.56-6.54-8.1-6.54-13.61s2.03-9.68,6.08-13.15c3.87-3.33,8.57-4.99,14.1-4.99Z"/>
  <path class="cls-1" d="M369.85,14.21c4.29,0,8.05,1.11,11.29,3.34,2.32,1.59,4.18,3.67,5.59,6.22,1.45,2.67,2.18,5.46,2.18,8.37,0,5.09-2.33,9.41-7,12.97-4.45,3.4-9.55,5.1-15.29,5.1s-10.14-1.59-13.61-4.78c-3.38-3.09-5.06-7.12-5.06-12.09,0-5.53,2.06-10.05,6.19-13.57,4.31-3.7,9.55-5.55,15.71-5.55ZM367.04,22.33c-1.03,0-1.86.38-2.48,1.14-.62.76-.93,1.78-.93,3.04,0,1.41.26,3.32.79,5.75s1.15,4.58,1.88,6.45c.73,1.92,1.91,2.88,3.55,2.88,2.09,0,3.13-1.32,3.13-3.97,0-1.97-.26-4.21-.79-6.71-.53-2.51-1.17-4.55-1.92-6.12-.77-1.59-1.85-2.41-3.23-2.46Z"/>
  <path class="cls-1" d="M408.49,14.49c1.34,0,2,.95,2,2.85v.6c-.02.38-.04.68-.04.91,0,1.27.37,1.9,1.12,1.9.4,0,1.02-.5,1.86-1.51,1.27-1.45,2.86-2.61,4.78-3.46,1.92-.86,3.89-1.28,5.91-1.28,3.91,0,6.63,1.43,8.16,4.29.59,1.05,1.07,1.58,1.44,1.58.26,0,.87-.47,1.83-1.41,3.05-2.98,6.5-4.46,10.37-4.46,3.02,0,5.5.83,7.42,2.5,2.02,1.73,3.02,4.34,3.02,7.8,0,.75-.02,2.02-.07,3.8-.05.61-.07,2.45-.07,5.52,0,1.97-.01,3.35-.04,4.15-.02.49-.04.84-.04,1.05,0,1.5.47,2.81,1.41,3.94.56.68.91,1.13,1.04,1.35.13.22.19.52.19.9,0,3-3.53,4.5-10.58,4.5-3.12,0-5.63-.38-7.54-1.12-1.91-.75-2.87-1.73-2.87-2.95,0-.47.06-.83.19-1.07.13-.25.58-.9,1.35-1.95.73-.96,1.09-4.16,1.09-9.6,0-3.16-.22-5.37-.67-6.61-.52-1.48-1.55-2.21-3.09-2.21-.77,0-1.46.24-2.06.72-.6.48-.99,1.08-1.18,1.81-.21.84-.33,3.09-.35,6.75.07,3.94.19,6.33.37,7.17s.77,2.02,1.78,3.52c.23.35.35.8.35,1.34,0,2.79-3.64,4.18-10.93,4.18-4.38,0-7.34-.33-8.86-.98-1.22-.52-1.83-1.43-1.83-2.74,0-.59.08-1,.23-1.23.15-.23.67-.77,1.56-1.62.52-.49.85-.95,1-1.39.15-.43.26-1.22.33-2.37.16-2.58.25-5.18.25-7.8,0-4.59-1.17-6.89-3.52-6.89-1.76,0-2.8.98-3.13,2.95-.28,1.85-.42,4.5-.42,7.95,0,2.58.05,4.27.16,5.06.11.8.39,1.63.86,2.5.56,1.01.84,1.83.84,2.46,0,1.52-1.07,2.58-3.2,3.16-2.32.63-4.88.95-7.66.95-3.61,0-6.26-.29-7.95-.86s-2.53-1.48-2.53-2.72c0-.47.11-.87.33-1.2.22-.33.73-.84,1.53-1.55,1.05-.96,1.66-2.29,1.83-3.97.26-2.91.39-5.92.39-9.04,0-2.23-.11-3.78-.33-4.66-.22-.88-.7-1.59-1.42-2.13-.7-.54-1.15-.95-1.35-1.23-.2-.28-.3-.67-.3-1.16,0-1.57,1.23-2.81,3.69-3.73,5.93-2.13,10.37-3.21,13.32-3.23Z"/>
  <path class="cls-1" d="M493.36,33.51h-16.52c-.73,0-1.09.32-1.09.95,0,1.52.83,2.96,2.48,4.31,1.65,1.35,3.43,2.02,5.33,2.02,1.12,0,2.37-.22,3.74-.65,1.37-.43,2.5-.97,3.39-1.6.8-.56,1.43-.84,1.9-.84.61,0,1.21.38,1.79,1.12.59.75.88,1.52.88,2.32,0,1.69-1.05,3.32-3.16,4.89-3.73,2.79-8.03,4.18-12.9,4.18s-9.05-1.43-12.38-4.29c-1.62-1.41-2.95-3.11-4.01-5.1-1.38-2.65-2.07-5.44-2.07-8.37,0-3.94,1.2-7.48,3.59-10.62,2.06-2.72,4.69-4.75,7.88-6.08,2.39-1.01,4.98-1.51,7.77-1.51,4.45,0,8.24,1.27,11.36,3.8,1.57,1.27,2.84,2.77,3.8,4.5,1.1,1.97,1.65,3.89,1.65,5.77,0,1.52-.32,2.77-.95,3.74-.63.97-1.45,1.46-2.46,1.46ZM477.75,26.94h3.55c1.5,0,2.25-.69,2.25-2.07,0-1.27-.36-2.3-1.09-3.09-.73-.8-1.68-1.2-2.85-1.2-1.31,0-2.34.52-3.09,1.55-.7.96-1.05,1.93-1.05,2.92,0,.7.17,1.2.51,1.48.34.28.93.42,1.78.42Z"/>
  <path class="cls-1" d="M507.95,33.16c1.15,0,2.29.28,3.41.83,1.12.55,2.06,1.3,2.81,2.23,1.78,2.23,2.67,5.04,2.67,8.44,0,1.88-.35,3.98-1.04,6.31-.69,2.33-1.6,4.45-2.72,6.35-1.85,3.09-3.79,4.64-5.8,4.64-.89,0-1.69-.27-2.41-.81-.72-.54-1.07-1.16-1.07-1.86,0-.38.44-1.28,1.34-2.71.54-.84,1.01-1.79,1.42-2.85.41-1.05.62-1.85.62-2.39,0-.84-.4-1.42-1.2-1.72-1.57-.59-2.68-1.16-3.34-1.72-1.97-1.69-2.95-3.85-2.95-6.5,0-2.11.69-3.91,2.07-5.41,1.71-1.88,3.77-2.81,6.19-2.81Z"/>
  <path class="cls-1" d="M555.86,14.42c1.43,0,2.32.12,2.67.37s.53.86.53,1.85c0,.87.28,1.3.84,1.3.23,0,1.02-.44,2.36-1.34,1.01-.68,2.29-1.25,3.85-1.71,1.56-.46,2.97-.69,4.24-.69,2.98,0,5.64,1.03,7.98,3.09,1.78,1.57,3.16,3.55,4.15,5.94,1.03,2.51,1.55,5.15,1.55,7.91,0,5.91-1.99,10.77-5.98,14.59-3.07,2.98-6.56,4.46-10.48,4.46-1.99,0-4.04-.47-6.15-1.41-.42-.19-.76-.28-1.02-.28-.7,0-1.05.7-1.05,2.11,0,1.85.62,3.19,1.86,4.01,1.15.77,1.83,1.29,2.06,1.56.22.27.33.72.33,1.35,0,1.41-.79,2.49-2.36,3.25-1.57.76-3.79,1.14-6.64,1.14-5.09,0-9.54-1.02-13.36-3.06-1.95-1.03-2.92-2.31-2.92-3.83,0-.7.15-1.24.44-1.6.29-.36.86-.74,1.71-1.14,1.22-.56,1.96-1.58,2.23-3.06.27-1.48.47-5.72.62-12.73-.16-5.77-.38-9-.63-9.7-.09-.23-.23-.39-.4-.46s-.76-.2-1.74-.39c-.75-.14-1.36-.49-1.83-1.04-.47-.55-.7-1.21-.7-1.99,0-.94.33-1.76.98-2.48.66-.71,1.72-1.41,3.2-2.09,5.74-2.6,10.3-3.93,13.68-3.97ZM559.34,27.71l-.53,9.67c-.02.4-.04.79-.04,1.16,0,.73.32,1.31.95,1.76.63.45,1.48.67,2.53.67,3.23,0,4.85-2.66,4.85-7.98,0-3.45-.68-5.87-2.04-7.28-.84-.87-1.85-1.3-3.02-1.3-1.66,0-2.57,1.1-2.71,3.3Z"/>
  <path class="cls-1" d="M602.97,14.46c1.24,0,2,.18,2.27.53.27.35.51,1.48.72,3.38.12,1.03.48,1.55,1.09,1.55.47,0,.91-.34,1.34-1.02,1.88-2.93,4.32-4.39,7.35-4.39,2.13,0,3.88.69,5.24,2.07.66.68,1.2,1.55,1.62,2.62.42,1.07.63,2.09.63,3.08,0,1.1-.26,2.23-.77,3.39-.52,1.16-1.18,2.12-2,2.87-1.5,1.43-3.34,2.14-5.52,2.14-1.2,0-2.2-.21-3.01-.63s-1.87-1.28-3.18-2.57c-.49-.49-.95-.74-1.37-.74-.66,0-1.08.37-1.28,1.11-.2.74-.3,2.29-.3,4.66,0,3.54.13,5.95.39,7.24.16.7.39,1.19.69,1.46.29.27.92.54,1.88.83,2.11.63,3.16,1.73,3.16,3.3,0,.96-.34,1.8-1.02,2.51-.68.72-1.58,1.19-2.71,1.42-2.25.47-5.55.7-9.91.7s-7.3-.36-9.46-1.09c-1.92-.66-2.88-1.79-2.88-3.41,0-1.22.7-2.31,2.11-3.27.68-.44,1.15-.85,1.41-1.21.26-.36.43-.86.53-1.49.37-2.13.56-6.08.56-11.85,0-1.05-.12-1.81-.35-2.27-.23-.46-.7-.83-1.41-1.11-1.66-.66-2.5-1.6-2.5-2.85,0-1.12.57-2.09,1.72-2.9,1.15-.81,3.07-1.61,5.77-2.41,3.61-1.08,6.68-1.63,9.21-1.65Z"/>
  <path class="cls-1" d="M656.76,33.51h-16.52c-.73,0-1.09.32-1.09.95,0,1.52.83,2.96,2.48,4.31,1.65,1.35,3.43,2.02,5.33,2.02,1.12,0,2.37-.22,3.74-.65,1.37-.43,2.5-.97,3.39-1.6.8-.56,1.43-.84,1.9-.84.61,0,1.21.38,1.79,1.12.59.75.88,1.52.88,2.32,0,1.69-1.05,3.32-3.16,4.89-3.73,2.79-8.03,4.18-12.9,4.18s-9.05-1.43-12.38-4.29c-1.62-1.41-2.95-3.11-4.01-5.1-1.38-2.65-2.07-5.44-2.07-8.37,0-3.94,1.2-7.48,3.59-10.62,2.06-2.72,4.69-4.75,7.88-6.08,2.39-1.01,4.98-1.51,7.77-1.51,4.45,0,8.24,1.27,11.36,3.8,1.57,1.27,2.84,2.77,3.8,4.5,1.1,1.97,1.65,3.89,1.65,5.77,0,1.52-.32,2.77-.95,3.74-.63.97-1.45,1.46-2.46,1.46ZM641.15,26.94h3.55c1.5,0,2.25-.69,2.25-2.07,0-1.27-.36-2.3-1.09-3.09-.73-.8-1.68-1.2-2.85-1.2-1.31,0-2.34.52-3.09,1.55-.7.96-1.05,1.93-1.05,2.92,0,.7.17,1.2.51,1.48.34.28.93.42,1.78.42Z"/>
  <path class="cls-1" d="M676.52,14.25c1.17,0,3.08.26,5.73.77.54.09.98.14,1.34.14.4,0,1.17-.21,2.32-.63.54-.21,1-.32,1.37-.32,1.08,0,2.17.69,3.27,2.07.89,1.1,1.62,2.31,2.18,3.62.56,1.31.84,2.45.84,3.41s-.33,1.72-.98,2.34c-.66.62-1.48.93-2.46.93-.82,0-1.55-.2-2.2-.6-.64-.4-1.68-1.28-3.11-2.64-1.5-1.45-2.74-2.18-3.73-2.18-.66,0-1.23.24-1.71.72s-.72,1.05-.72,1.71c0,1.15,1.1,2.23,3.3,3.23,3.96,1.78,7,3.73,9.11,5.84,1.78,1.78,2.67,3.96,2.67,6.54,0,3.26-1.43,5.98-4.29,8.16-2.46,1.9-5.47,2.85-9.04,2.85-.91,0-2.58-.15-4.99-.46-2.27-.26-3.55-.39-3.83-.39-.3,0-.66.04-1.05.11-.68.09-1.17.14-1.48.14-1.1,0-1.97-.28-2.6-.84-.96-.87-1.85-2.23-2.67-4.1-.82-1.86-1.23-3.46-1.23-4.8,0-2.16.84-3.23,2.53-3.23.66,0,1.26.22,1.81.65.55.43,1.71,1.59,3.46,3.46.96,1.03,1.76,1.74,2.39,2.13s1.31.58,2.04.58c.77,0,1.39-.21,1.86-.62.47-.41.7-.95.7-1.63,0-1.05-.9-2.02-2.71-2.88-3.77-1.85-6.5-3.76-8.17-5.73-1.68-1.97-2.51-4.24-2.51-6.82,0-2.79.86-5.19,2.57-7.21,2.44-2.88,5.77-4.32,9.98-4.32Z"/>
  <path class="cls-1" d="M710.83,14.25c1.17,0,3.08.26,5.73.77.54.09.98.14,1.34.14.4,0,1.17-.21,2.32-.63.54-.21,1-.32,1.37-.32,1.08,0,2.17.69,3.27,2.07.89,1.1,1.62,2.31,2.18,3.62.56,1.31.84,2.45.84,3.41s-.33,1.72-.98,2.34c-.66.62-1.48.93-2.46.93-.82,0-1.55-.2-2.2-.6-.64-.4-1.68-1.28-3.11-2.64-1.5-1.45-2.74-2.18-3.73-2.18-.66,0-1.22.24-1.71.72-.48.48-.72,1.05-.72,1.71,0,1.15,1.1,2.23,3.3,3.23,3.96,1.78,7,3.73,9.11,5.84,1.78,1.78,2.67,3.96,2.67,6.54,0,3.26-1.43,5.98-4.29,8.16-2.46,1.9-5.47,2.85-9.04,2.85-.91,0-2.58-.15-4.99-.46-2.27-.26-3.55-.39-3.83-.39-.3,0-.66.04-1.05.11-.68.09-1.17.14-1.48.14-1.1,0-1.97-.28-2.6-.84-.96-.87-1.85-2.23-2.67-4.1s-1.23-3.46-1.23-4.8c0-2.16.84-3.23,2.53-3.23.66,0,1.26.22,1.81.65.55.43,1.71,1.59,3.46,3.46.96,1.03,1.76,1.74,2.39,2.13s1.31.58,2.04.58c.77,0,1.39-.21,1.86-.62.47-.41.7-.95.7-1.63,0-1.05-.9-2.02-2.71-2.88-3.77-1.85-6.5-3.76-8.17-5.73s-2.51-4.24-2.51-6.82c0-2.79.86-5.19,2.57-7.21,2.44-2.88,5.77-4.32,9.98-4.32Z"/>
  <path class="cls-1" d="M769.16,14.21c4.08,0,7.54,1.03,10.37,3.09,1.5,1.1,2.55,2.36,3.15,3.78.6,1.42.9,3.37.9,5.85l-.07,5.24c0,3.63.26,5.99.77,7.07.26.52.5.84.74.98s.73.27,1.48.39c.75.12,1.12.61,1.12,1.48,0,1.12-.45,2.3-1.35,3.52-.9,1.22-2.07,2.24-3.5,3.06-1.76,1.03-3.6,1.55-5.52,1.55-2.46,0-4.41-.84-5.84-2.53-.49-.61-.95-.91-1.37-.91-.47,0-1.09.29-1.86.88-2.34,1.71-5,2.57-7.98,2.57s-5.55-.66-7.45-1.97c-1.24-.87-2.23-2-2.95-3.39-.73-1.39-1.09-2.85-1.09-4.38,0-2.44.98-4.59,2.95-6.47,3.07-2.95,7.66-4.44,13.78-4.46,1.36,0,2.21-.13,2.57-.4.35-.27.53-.9.53-1.88,0-2.48-.26-4.28-.77-5.4-.52-1.11-1.36-1.67-2.53-1.67-.7,0-1.33.21-1.88.63s-1.24,1.2-2.06,2.32c-2.09,2.98-4.27,4.46-6.54,4.46-1.15,0-2.09-.34-2.81-1.02-.73-.68-1.09-1.57-1.09-2.67s.45-2.25,1.35-3.38,2.13-2.11,3.67-2.95c4.24-2.25,8.67-3.38,13.29-3.38ZM766.8,34.57c-1.03,0-1.93.42-2.69,1.27s-1.14,1.85-1.14,3.02.27,2.03.81,2.72c.54.69,1.25,1.04,2.14,1.04,1.88,0,2.81-1.58,2.81-4.75,0-1.29-.13-2.16-.4-2.6-.27-.44-.78-.68-1.53-.7Z"/>
  <path class="cls-1" d="M832.54,27.22l.49,12.38c.05.94.19,1.63.44,2.07.25.45.97,1.3,2.16,2.57.35.38.53.9.53,1.58,0,1.55-.93,2.62-2.78,3.23s-5.16.91-9.91.91c-3.23,0-5.52-.28-6.86-.84-1.38-.59-2.07-1.53-2.07-2.85,0-.47.07-.81.21-1.04.14-.22.61-.77,1.41-1.63.94-.98,1.41-4.27,1.41-9.84,0-3.23-.38-5.62-1.12-7.17-.61-1.24-1.73-1.86-3.38-1.86s-2.65.5-3.23,1.51c-.59,1.01-.88,2.84-.88,5.48v6.96c0,1.38.09,2.33.26,2.85.18.52.76,1.51,1.74,2.99.26.42.39.9.39,1.44,0,1.38-.96,2.4-2.88,3.06s-4.92.98-9,.98c-6.52,0-9.77-1.35-9.77-4.04,0-.56.1-.99.3-1.28.2-.29.67-.71,1.42-1.25.61-.44,1-.95,1.16-1.53.16-.57.32-1.99.46-4.24.16-2.67.25-5.47.25-8.4,0-1.62-.12-2.68-.37-3.18-.25-.5-.96-1.12-2.13-1.85-1.01-.63-1.51-1.41-1.51-2.32s.41-1.71,1.23-2.3,2.51-1.35,5.06-2.27c2.25-.8,4.42-1.47,6.5-2.02,2.09-.55,3.52-.83,4.29-.83.7,0,1.29.26,1.78.77.48.52.72,1.12.72,1.83,0,.07-.01.36-.04.88-.02.19-.04.35-.04.49,0,1.12.47,1.69,1.41,1.69.56,0,1.16-.44,1.79-1.34,2.02-2.91,4.95-4.36,8.79-4.36,2.95,0,5.48.77,7.59,2.32,1.48,1.1,2.51,2.4,3.09,3.88.59,1.49.95,3.67,1.09,6.56Z"/>
  <path class="cls-1" d="M870.51,31.54l-4.64,12.76c-1.15,3.16-2.3,5.75-3.46,7.75s-2.48,3.71-3.96,5.12c-3.05,2.91-6.71,4.36-11,4.36-3.47,0-6.28-.91-8.44-2.74-1.66-1.41-2.5-3.2-2.5-5.38,0-1.81.58-3.32,1.74-4.55s2.58-1.85,4.27-1.85,3.05.56,4.08,1.69c.49.52.82.97.98,1.37.16.4.41,1.28.74,2.64.26,1.03.84,1.55,1.76,1.55.73,0,1.34-.32,1.83-.95s.74-1.42.74-2.36c0-1.1-.61-2.94-1.83-5.52l-8.47-18.04c-.89-1.88-1.56-3.05-2-3.52-.45-.47-1.43-1.04-2.95-1.72-.47-.19-.87-.56-1.21-1.11-.34-.55-.51-1.08-.51-1.6,0-2.09,2.07-3.5,6.22-4.25,2.77-.49,5.92-.74,9.46-.74,2.48,0,4.44.26,5.87.77,1.92.68,2.88,1.84,2.88,3.48,0,.59-.27,1.28-.81,2.07-.52.75-.77,1.42-.77,2s.12,1.15.37,1.76c.25.61.77,1.64,1.56,3.09.89,1.64,1.68,2.46,2.36,2.46.73,0,1.48-.72,2.25-2.16s1.16-2.83,1.16-4.17c0-1.08-.29-1.96-.88-2.64-.89-1.05-1.34-1.96-1.34-2.71,0-1.2.8-2.15,2.39-2.87,1.59-.71,3.73-1.07,6.4-1.07,4.97,0,7.45,1.2,7.45,3.59,0,.87-.25,1.56-.76,2.09s-1.42,1.03-2.76,1.49c-1.12.42-2.02,1.12-2.67,2.11-1.03,1.57-2.21,4.16-3.55,7.77Z"/>
  <path class="cls-1" d="M919.94,3l-.32,11c-.02,1.1-.04,2.72-.04,4.85,0,2.37.04,3.76.11,4.18.16.96.66,1.44,1.48,1.44.7,0,1.78-.45,3.23-1.35,1.45-.9,2.18-1.58,2.18-2.02,0-.26-.26-.73-.77-1.41-.38-.49-.56-.96-.56-1.41,0-2.53,3.12-3.8,9.35-3.8,3.23,0,5.79.33,7.66.98.75.26,1.37.7,1.86,1.34s.74,1.31.74,2.04c0,1.05-.5,1.79-1.51,2.21-.21.09-.89.25-2.04.46-1.03.19-2.37.83-4.01,1.92s-2.46,1.88-2.46,2.37c0,.33.99,1.87,2.97,4.62,1.98,2.75,3.83,5.15,5.54,7.19,1.1,1.34,1.96,2.27,2.58,2.81.62.54,1.48,1.11,2.58,1.72,1.69.91,2.53,1.96,2.53,3.13,0,1.24-.53,2.21-1.6,2.92s-2.53,1.05-4.38,1.05h-11.39c-1.43-.02-2.54-.55-3.34-1.58l-5.84-7.49c-1.55-1.97-2.49-3.14-2.83-3.52-.34-.37-.63-.56-.86-.56-.28,0-.47.21-.56.63s-.14,1.22-.14,2.39c0,1.05.12,1.82.35,2.3.23.48.77,1.06,1.62,1.74.61.49.91,1.22.91,2.18,0,1.64-.87,2.82-2.6,3.55s-4.59,1.09-8.58,1.09c-4.69,0-7.73-.2-9.14-.6-.8-.23-1.48-.71-2.04-1.42-.56-.71-.84-1.47-.84-2.27,0-.89.49-1.66,1.48-2.32.84-.54,1.38-.95,1.62-1.23s.42-.73.56-1.34c.54-3.28.8-8.34.77-15.19v-7.7c0-2.62-.13-4.3-.4-5.03-.27-.73-.93-1.16-1.99-1.3-1.92-.26-2.88-1.05-2.88-2.39,0-.89.42-1.69,1.27-2.41.84-.71,2.23-1.42,4.15-2.13,6.14-2.27,10.69-3.41,13.64-3.41,1.34,0,1.98.57,1.93,1.72Z"/>
  <path class="cls-1" d="M983.64,33.51h-16.52c-.73,0-1.09.32-1.09.95,0,1.52.83,2.96,2.48,4.31,1.65,1.35,3.43,2.02,5.33,2.02,1.12,0,2.37-.22,3.74-.65,1.37-.43,2.5-.97,3.39-1.6.8-.56,1.43-.84,1.9-.84.61,0,1.21.38,1.79,1.12.59.75.88,1.52.88,2.32,0,1.69-1.05,3.32-3.16,4.89-3.73,2.79-8.03,4.18-12.9,4.18s-9.05-1.43-12.38-4.29c-1.62-1.41-2.95-3.11-4.01-5.1-1.38-2.65-2.07-5.44-2.07-8.37,0-3.94,1.2-7.48,3.59-10.62,2.06-2.72,4.69-4.75,7.88-6.08,2.39-1.01,4.98-1.51,7.77-1.51,4.45,0,8.24,1.27,11.36,3.8,1.57,1.27,2.84,2.77,3.8,4.5,1.1,1.97,1.65,3.89,1.65,5.77,0,1.52-.32,2.77-.95,3.74-.63.97-1.45,1.46-2.46,1.46ZM968.04,26.94h3.55c1.5,0,2.25-.69,2.25-2.07,0-1.27-.36-2.3-1.09-3.09-.73-.8-1.68-1.2-2.85-1.2-1.31,0-2.34.52-3.09,1.55-.7.96-1.05,1.93-1.05,2.92,0,.7.17,1.2.51,1.48s.93.42,1.78.42Z"/>
  <path class="cls-1" d="M1021.93,31.54l-4.64,12.76c-1.15,3.16-2.3,5.75-3.46,7.75s-2.48,3.71-3.96,5.12c-3.05,2.91-6.71,4.36-11,4.36-3.47,0-6.28-.91-8.44-2.74-1.66-1.41-2.5-3.2-2.5-5.38,0-1.81.58-3.32,1.74-4.55s2.58-1.85,4.27-1.85,3.05.56,4.08,1.69c.49.52.82.97.98,1.37.16.4.41,1.28.74,2.64.26,1.03.84,1.55,1.76,1.55.73,0,1.34-.32,1.83-.95s.74-1.42.74-2.36c0-1.1-.61-2.94-1.83-5.52l-8.47-18.04c-.89-1.88-1.56-3.05-2-3.52-.45-.47-1.43-1.04-2.95-1.72-.47-.19-.87-.56-1.21-1.11-.34-.55-.51-1.08-.51-1.6,0-2.09,2.07-3.5,6.22-4.25,2.77-.49,5.92-.74,9.46-.74,2.48,0,4.44.26,5.87.77,1.92.68,2.88,1.84,2.88,3.48,0,.59-.27,1.28-.81,2.07-.52.75-.77,1.42-.77,2s.12,1.15.37,1.76c.25.61.77,1.64,1.56,3.09.89,1.64,1.68,2.46,2.36,2.46.73,0,1.48-.72,2.25-2.16s1.16-2.83,1.16-4.17c0-1.08-.29-1.96-.88-2.64-.89-1.05-1.34-1.96-1.34-2.71,0-1.2.8-2.15,2.39-2.87,1.59-.71,3.73-1.07,6.4-1.07,4.97,0,7.45,1.2,7.45,3.59,0,.87-.25,1.56-.76,2.09s-1.42,1.03-2.76,1.49c-1.12.42-2.02,1.12-2.67,2.11-1.03,1.57-2.21,4.16-3.55,7.77Z"/>
  <path class="cls-1" d="M1071.89,23.46v11.88c0,1.41.35,2.55,1.04,3.45.69.89,1.58,1.34,2.65,1.34.91,0,2.12-.42,3.62-1.27.35-.21.7-.32,1.05-.32.56,0,1.08.34,1.55,1.02.47.68.7,1.42.7,2.21,0,1.45-.8,2.85-2.39,4.18-3.33,2.84-7.36,4.25-12.09,4.25-3.75,0-6.76-1.06-9.04-3.18-2.27-2.12-3.41-4.92-3.41-8.38v-16.24c0-.54-.06-.87-.19-1-.13-.13-.46-.19-1-.19h-3.62c-.68,0-1.11-.11-1.3-.33-.19-.22-.28-.74-.28-1.56v-1.55c.02-.7.29-1.22.81-1.55l16.1-10.12c.4-.21.89-.32,1.48-.32h2.85c.59,0,.98.14,1.18.4.2.27.3.8.3,1.6v4.75c0,.7.11,1.16.33,1.37s.7.32,1.42.32h6.5c.87,0,1.43.16,1.69.47s.39.99.39,2.02v2.07c0,1.12-.16,1.9-.49,2.34-.33.43-.93.65-1.79.65h-6.36c-.66,0-1.1.12-1.34.35-.23.23-.35.68-.35,1.34Z"/>
  <path class="cls-1" d="M1105.71,14.21c4.29,0,8.05,1.11,11.29,3.34,2.32,1.59,4.18,3.67,5.59,6.22,1.45,2.67,2.18,5.46,2.18,8.37,0,5.09-2.33,9.41-7,12.97-4.45,3.4-9.55,5.1-15.29,5.1s-10.14-1.59-13.61-4.78c-3.38-3.09-5.06-7.12-5.06-12.09,0-5.53,2.06-10.05,6.19-13.57,4.31-3.7,9.55-5.55,15.71-5.55ZM1102.89,22.33c-1.03,0-1.86.38-2.48,1.14-.62.76-.93,1.78-.93,3.04,0,1.41.26,3.32.79,5.75s1.15,4.58,1.88,6.45c.73,1.92,1.91,2.88,3.55,2.88,2.09,0,3.13-1.32,3.13-3.97,0-1.97-.26-4.21-.79-6.71-.53-2.51-1.17-4.55-1.92-6.12-.77-1.59-1.85-2.41-3.23-2.46Z"/>
  <path class="cls-1" d="M1159.36,14.25c1.17,0,3.08.26,5.73.77.54.09.98.14,1.34.14.4,0,1.17-.21,2.32-.63.54-.21,1-.32,1.37-.32,1.08,0,2.17.69,3.27,2.07.89,1.1,1.62,2.31,2.18,3.62.56,1.31.84,2.45.84,3.41s-.33,1.72-.98,2.34c-.66.62-1.48.93-2.46.93-.82,0-1.55-.2-2.2-.6-.64-.4-1.68-1.28-3.11-2.64-1.5-1.45-2.74-2.18-3.73-2.18-.66,0-1.22.24-1.71.72-.48.48-.72,1.05-.72,1.71,0,1.15,1.1,2.23,3.3,3.23,3.96,1.78,7,3.73,9.11,5.84,1.78,1.78,2.67,3.96,2.67,6.54,0,3.26-1.43,5.98-4.29,8.16-2.46,1.9-5.47,2.85-9.04,2.85-.91,0-2.58-.15-4.99-.46-2.27-.26-3.55-.39-3.83-.39-.3,0-.66.04-1.05.11-.68.09-1.17.14-1.48.14-1.1,0-1.97-.28-2.6-.84-.96-.87-1.85-2.23-2.67-4.1s-1.23-3.46-1.23-4.8c0-2.16.84-3.23,2.53-3.23.66,0,1.26.22,1.81.65.55.43,1.71,1.59,3.46,3.46.96,1.03,1.76,1.74,2.39,2.13s1.31.58,2.04.58c.77,0,1.39-.21,1.86-.62.47-.41.7-.95.7-1.63,0-1.05-.9-2.02-2.71-2.88-3.77-1.85-6.5-3.76-8.17-5.73s-2.51-4.24-2.51-6.82c0-2.79.86-5.19,2.57-7.21,2.44-2.88,5.77-4.32,9.98-4.32Z"/>
  <path class="cls-1" d="M1200.7,23.46v11.88c0,1.41.35,2.55,1.04,3.45.69.89,1.58,1.34,2.65,1.34.91,0,2.12-.42,3.62-1.27.35-.21.7-.32,1.05-.32.56,0,1.08.34,1.55,1.02.47.68.7,1.42.7,2.21,0,1.45-.8,2.85-2.39,4.18-3.33,2.84-7.36,4.25-12.09,4.25-3.75,0-6.76-1.06-9.04-3.18-2.27-2.12-3.41-4.92-3.41-8.38v-16.24c0-.54-.06-.87-.19-1-.13-.13-.46-.19-1-.19h-3.62c-.68,0-1.11-.11-1.3-.33-.19-.22-.28-.74-.28-1.56v-1.55c.02-.7.29-1.22.81-1.55l16.1-10.12c.4-.21.89-.32,1.48-.32h2.85c.59,0,.98.14,1.18.4.2.27.3.8.3,1.6v4.75c0,.7.11,1.16.33,1.37s.7.32,1.42.32h6.5c.87,0,1.43.16,1.69.47s.39.99.39,2.02v2.07c0,1.12-.16,1.9-.49,2.34-.33.43-.93.65-1.79.65h-6.36c-.66,0-1.1.12-1.34.35-.23.23-.35.68-.35,1.34Z"/>
  <path class="cls-1" d="M1233.61,14.21c4.08,0,7.54,1.03,10.37,3.09,1.5,1.1,2.55,2.36,3.15,3.78.6,1.42.9,3.37.9,5.85l-.07,5.24c0,3.63.26,5.99.77,7.07.26.52.5.84.74.98s.73.27,1.48.39c.75.12,1.12.61,1.12,1.48,0,1.12-.45,2.3-1.35,3.52-.9,1.22-2.07,2.24-3.5,3.06-1.76,1.03-3.6,1.55-5.52,1.55-2.46,0-4.41-.84-5.84-2.53-.49-.61-.95-.91-1.37-.91-.47,0-1.09.29-1.86.88-2.34,1.71-5,2.57-7.98,2.57s-5.55-.66-7.45-1.97c-1.24-.87-2.23-2-2.95-3.39-.73-1.39-1.09-2.85-1.09-4.38,0-2.44.98-4.59,2.95-6.47,3.07-2.95,7.66-4.44,13.78-4.46,1.36,0,2.21-.13,2.57-.4.35-.27.53-.9.53-1.88,0-2.48-.26-4.28-.77-5.4-.52-1.11-1.36-1.67-2.53-1.67-.7,0-1.33.21-1.88.63s-1.24,1.2-2.06,2.32c-2.09,2.98-4.27,4.46-6.54,4.46-1.15,0-2.09-.34-2.81-1.02-.73-.68-1.09-1.57-1.09-2.67s.45-2.25,1.35-3.38,2.13-2.11,3.67-2.95c4.24-2.25,8.67-3.38,13.29-3.38ZM1231.25,34.57c-1.03,0-1.93.42-2.69,1.27s-1.14,1.85-1.14,3.02.27,2.03.81,2.72c.54.69,1.25,1.04,2.14,1.04,1.88,0,2.81-1.58,2.81-4.75,0-1.29-.13-2.16-.4-2.6-.27-.44-.78-.68-1.53-.7Z"/>
  <path class="cls-1" d="M1270.77,14.46c1.24,0,2,.18,2.27.53s.51,1.48.72,3.38c.12,1.03.48,1.55,1.09,1.55.47,0,.91-.34,1.34-1.02,1.88-2.93,4.32-4.39,7.35-4.39,2.13,0,3.88.69,5.24,2.07.66.68,1.2,1.55,1.62,2.62.42,1.07.63,2.09.63,3.08,0,1.1-.26,2.23-.77,3.39s-1.18,2.12-2,2.87c-1.5,1.43-3.34,2.14-5.52,2.14-1.2,0-2.2-.21-3.01-.63s-1.87-1.28-3.18-2.57c-.49-.49-.95-.74-1.37-.74-.66,0-1.08.37-1.28,1.11s-.3,2.29-.3,4.66c0,3.54.13,5.95.39,7.24.16.7.39,1.19.69,1.46.29.27.92.54,1.88.83,2.11.63,3.16,1.73,3.16,3.3,0,.96-.34,1.8-1.02,2.51-.68.72-1.58,1.19-2.71,1.42-2.25.47-5.55.7-9.91.7s-7.3-.36-9.46-1.09c-1.92-.66-2.88-1.79-2.88-3.41,0-1.22.7-2.31,2.11-3.27.68-.44,1.15-.85,1.41-1.21.26-.36.43-.86.53-1.49.38-2.13.56-6.08.56-11.85,0-1.05-.12-1.81-.35-2.27s-.7-.83-1.41-1.11c-1.66-.66-2.5-1.6-2.5-2.85,0-1.12.57-2.09,1.72-2.9s3.07-1.61,5.77-2.41c3.61-1.08,6.68-1.63,9.21-1.65Z"/>
  <path class="cls-1" d="M1314.78,23.46v11.88c0,1.41.35,2.55,1.04,3.45.69.89,1.58,1.34,2.65,1.34.91,0,2.12-.42,3.62-1.27.35-.21.7-.32,1.05-.32.56,0,1.08.34,1.55,1.02.47.68.7,1.42.7,2.21,0,1.45-.8,2.85-2.39,4.18-3.33,2.84-7.36,4.25-12.09,4.25-3.75,0-6.76-1.06-9.04-3.18-2.27-2.12-3.41-4.92-3.41-8.38v-16.24c0-.54-.06-.87-.19-1-.13-.13-.46-.19-1-.19h-3.62c-.68,0-1.11-.11-1.3-.33-.19-.22-.28-.74-.28-1.56v-1.55c.02-.7.29-1.22.81-1.55l16.1-10.12c.4-.21.89-.32,1.48-.32h2.85c.59,0,.98.14,1.18.4.2.27.3.8.3,1.6v4.75c0,.7.11,1.16.33,1.37s.7.32,1.42.32h6.5c.87,0,1.43.16,1.69.47s.39.99.39,2.02v2.07c0,1.12-.16,1.9-.49,2.34-.33.43-.93.65-1.79.65h-6.36c-.66,0-1.1.12-1.34.35-.23.23-.35.68-.35,1.34Z"/>
  <path class="cls-1" d="M1355,1.77c2.09,0,3.86.75,5.31,2.25,1.95,1.97,2.92,4.76,2.92,8.37,0,2.39-.42,4.96-1.25,7.72-.83,2.75-1.94,5.21-3.32,7.37-1.57,2.44-2.84,3.66-3.8,3.66s-2.26-1.56-3.97-4.68c-1.27-2.3-2.27-4.76-3.01-7.38-.74-2.62-1.11-5.03-1.11-7.21,0-2.67.6-4.91,1.79-6.71,1.48-2.25,3.62-3.38,6.43-3.38ZM1355.18,34.99c2.04,0,3.79.76,5.24,2.29,1.45,1.5,2.18,3.26,2.18,5.27s-.75,3.88-2.25,5.4-3.29,2.27-5.38,2.27-3.79-.69-5.24-2.07c-1.57-1.5-2.36-3.35-2.36-5.55,0-2.04.69-3.76,2.07-5.17,1.55-1.62,3.46-2.43,5.73-2.43Z"/>
</svg>