<?xml version="1.0" encoding="UTF-8"?>
<svg id="Layer_2" data-name="Layer 2" xmlns="http://www.w3.org/2000/svg" viewBox="0 0 1895.5 411.07">
  <defs>
    <style>
      .cls-1 {
        fill: none;
      }

      .cls-1, .cls-2 {
        stroke: #7bcdff;
        stroke-linecap: round;
        stroke-linejoin: round;
        stroke-width: 15px;
      }

      .cls-2 {
        fill: #7bcdff;
      }
    </style>
  </defs>
  <g>
    <path class="cls-2" d="M7.5,7.5h1880.5H7.5Z"/>
    <line class="cls-1" x1="1888" y1="403.57" x2="1888" y2="7.5"/>
    <line class="cls-1" x1="7.5" y1="403.57" x2="1888" y2="403.57"/>
    <line class="cls-1" x1="7.5" y1="7.5" x2="7.5" y2="403.57"/>
    <line class="cls-1" x1="73.32" y1="7.5" x2="75.59" y2="403.57"/>
    <path class="cls-2" d="M133.47,7.5l2.27,396.07-2.27-396.07Z"/>
    <line class="cls-1" x1="204.97" y1="7.5" x2="207.24" y2="403.57"/>
    <line class="cls-1" x1="268.52" y1="7.5" x2="270.79" y2="403.57"/>
    <line class="cls-1" x1="335.48" y1="7.5" x2="337.75" y2="403.57"/>
    <line class="cls-1" x1="461.45" y1="7.5" x2="463.72" y2="403.57"/>
    <line class="cls-1" x1="529.55" y1="7.5" x2="531.82" y2="403.57"/>
    <line class="cls-1" x1="589.69" y1="7.5" x2="591.96" y2="403.57"/>
    <line class="cls-1" x1="658.92" y1="7.5" x2="661.19" y2="403.57"/>
    <line class="cls-1" x1="720.21" y1="7.5" x2="722.48" y2="403.57"/>
    <line class="cls-1" x1="789.43" y1="7.5" x2="791.7" y2="403.57"/>
    <line class="cls-1" x1="852.99" y1="7.5" x2="855.26" y2="403.57"/>
    <line class="cls-1" x1="915.41" y1="7.5" x2="917.68" y2="403.57"/>
    <line class="cls-1" x1="981.23" y1="7.5" x2="983.5" y2="403.57"/>
    <line class="cls-1" x1="1045.92" y1="7.5" x2="1048.19" y2="403.57"/>
    <line class="cls-1" x1="1110.61" y1="7.5" x2="1112.88" y2="403.57"/>
    <line class="cls-1" x1="1174.16" y1="7.5" x2="1176.43" y2="403.57"/>
    <line class="cls-1" x1="1241.12" y1="7.5" x2="1243.39" y2="403.57"/>
    <line class="cls-1" x1="1304.67" y1="7.5" x2="1306.94" y2="403.57"/>
    <line class="cls-1" x1="1369.36" y1="7.5" x2="1371.63" y2="403.57"/>
    <line class="cls-1" x1="1435.18" y1="7.5" x2="1437.45" y2="403.57"/>
    <line class="cls-1" x1="1499.87" y1="7.5" x2="1502.14" y2="403.57"/>
    <line class="cls-1" x1="1562.29" y1="7.5" x2="1564.56" y2="403.57"/>
    <line class="cls-1" x1="1630.38" y1="7.5" x2="1632.65" y2="403.57"/>
    <line class="cls-1" x1="1698.47" y1="7.5" x2="1700.74" y2="403.57"/>
    <line class="cls-1" x1="1758.62" y1="7.5" x2="1760.89" y2="403.57"/>
    <line class="cls-1" x1="1823.31" y1="7.5" x2="1825.58" y2="403.57"/>
    <line class="cls-1" x1="396.76" y1="7.5" x2="399.03" y2="403.57"/>
    <rect class="cls-2" x="56.3" y="7.5" width="30.64" height="270.1"/>
    <rect class="cls-2" x="118.72" y="7.5" width="30.64" height="270.1"/>
    <rect class="cls-2" x="252.63" y="7.5" width="30.64" height="270.1"/>
    <rect class="cls-2" x="318.46" y="7.5" width="30.64" height="270.1"/>
    <rect class="cls-2" x="382.01" y="7.5" width="30.64" height="270.1"/>
    <rect class="cls-2" x="511.39" y="7.5" width="30.64" height="270.1"/>
    <rect class="cls-2" x="574.94" y="7.5" width="30.64" height="270.1"/>
    <rect class="cls-2" x="705.45" y="7.5" width="30.64" height="270.1"/>
    <rect class="cls-2" x="771.28" y="7.5" width="30.64" height="270.1"/>
    <rect class="cls-2" x="834.83" y="7.5" width="30.64" height="270.1"/>
    <rect class="cls-2" x="964.21" y="7.5" width="30.64" height="270.1"/>
    <rect class="cls-2" x="1031.16" y="7.5" width="30.64" height="270.1"/>
    <rect class="cls-2" x="1159.41" y="7.5" width="30.64" height="270.1"/>
    <rect class="cls-2" x="1225.23" y="7.5" width="30.64" height="270.1"/>
    <rect class="cls-2" x="1289.92" y="7.5" width="30.64" height="270.1"/>
    <rect class="cls-2" x="1420.43" y="7.5" width="30.64" height="270.1"/>
    <rect class="cls-2" x="1483.98" y="7.5" width="30.64" height="270.1"/>
    <rect class="cls-2" x="1615.63" y="7.5" width="30.64" height="270.1"/>
    <rect class="cls-2" x="1680.32" y="7.5" width="30.64" height="270.1"/>
    <rect class="cls-2" x="1743.87" y="7.5" width="30.64" height="270.1"/>
  </g>
  <circle class="cls-2" cx="1343.5" cy="361.5" r="22"/>
</svg>