<?xml version="1.0" encoding="UTF-8"?>
<svg id="Layer_1" data-name="Layer 1" xmlns="http://www.w3.org/2000/svg" viewBox="0 0 1860.48 137.43">
  <defs>
    <style>
      .cls-1 {
        fill: #7bc9ff;
        stroke: #7bc9ff;
        stroke-miterlimit: 10;
      }
    </style>
  </defs>
  <path class="cls-1" d="M16.92,1.59h18.53c1.99-.07,3.81-.34,5.45-.81.7-.19,1.32-.28,1.86-.28,1.9,0,3.74,1.41,5.54,4.22s2.69,5.71,2.69,8.68c0,2.04-.62,3.53-1.86,4.46-.94.7-2.06,1.05-3.38,1.05-1.24,0-2.32-.35-3.23-1.04-.91-.69-1.82-1.83-2.71-3.43-.77-1.45-1.38-2.4-1.83-2.85-.45-.44-.98-.67-1.62-.67-.87,0-1.49.36-1.86,1.09-.38.73-.56,1.92-.56,3.59v19.69c0,2.02.21,3.48.63,4.39s1.22,1.62,2.39,2.11c1.27.54,2.13,1.05,2.58,1.53.46.48.69,1.14.69,1.99,0,1.69-1.14,2.94-3.43,3.76s-5.8,1.23-10.53,1.23c-5.81,0-10.12-.48-12.94-1.44-2.37-.8-3.55-2.09-3.55-3.87,0-.96.42-1.71,1.27-2.25.21-.12,1.04-.4,2.5-.84.89-.26,1.51-.75,1.85-1.48.34-.73.62-2.12.83-4.18.19-1.83.36-4.79.53-8.88.16-4.09.25-7.63.25-10.63,0-2.11-.16-3.61-.49-4.5-.33-.89-.87-1.34-1.62-1.34-.91,0-1.81.66-2.67,1.97-1.57,2.39-2.86,3.97-3.87,4.75-1.2.91-2.36,1.37-3.48,1.37-1.27,0-2.31-.47-3.13-1.42-.82-.95-1.23-2.16-1.23-3.64s.33-3.05.98-4.8c.66-1.75,1.53-3.36,2.64-4.83C5.9,1.91,7.66.71,9.39.71c.47,0,1.01.07,1.62.21,1.27.26,2.3.43,3.11.53.81.09,1.74.14,2.79.14Z"/>
  <path class="cls-1" d="M71.83,3.31l-.46,14.73c-.05,1.76.49,2.64,1.62,2.64.56,0,1.11-.39,1.65-1.16,2.27-3.3,5.31-4.96,9.11-4.96s6.69,1.14,8.89,3.41c.98,1.01,1.68,2.2,2.09,3.59.41,1.38.64,3.36.69,5.94l.32,12.69c.02,1.1.17,1.91.44,2.43.27.52.9,1.16,1.88,1.93.68.54,1.02,1.18,1.02,1.93,0,2.53-3.82,3.8-11.46,3.8-6.8,0-10.2-1.18-10.2-3.55,0-.4.06-.7.18-.91.12-.21.53-.77,1.23-1.69.98-1.29,1.48-4.51,1.48-9.67,0-3.12-.29-5.39-.88-6.82-.77-1.95-2.16-2.92-4.15-2.92-1.43,0-2.48.52-3.16,1.55-.49.75-.74,2.16-.74,4.22v6.79c.16,3,.3,4.7.42,5.1.12.4.66,1.14,1.62,2.21.44.49.67,1.07.67,1.72,0,2.65-3.45,3.97-10.34,3.97-8.06,0-12.09-1.37-12.09-4.11,0-.63.13-1.12.39-1.46.26-.34.89-.86,1.9-1.56.89-.63,1.51-2.34,1.85-5.12.34-2.78.51-7.38.51-13.8,0-5.04-.14-8.53-.42-10.48-.09-.73-.26-1.26-.51-1.6-.25-.34-.71-.69-1.39-1.04-1.45-.75-2.18-1.62-2.18-2.6,0-1.17.55-2.12,1.65-2.85,1.1-.73,3.21-1.51,6.33-2.36,4.22-1.17,7.58-1.76,10.09-1.76,1.36,0,2.02.59,1.97,1.76Z"/>
  <path class="cls-1" d="M133.64,33.83h-16.52c-.73,0-1.09.32-1.09.95,0,1.52.83,2.96,2.48,4.31,1.65,1.35,3.43,2.02,5.33,2.02,1.12,0,2.37-.22,3.74-.65,1.37-.43,2.5-.97,3.39-1.6.8-.56,1.43-.84,1.9-.84.61,0,1.21.38,1.79,1.12.59.75.88,1.52.88,2.32,0,1.69-1.05,3.32-3.16,4.89-3.73,2.79-8.03,4.18-12.9,4.18s-9.05-1.43-12.38-4.29c-1.62-1.41-2.95-3.11-4.01-5.1-1.38-2.65-2.07-5.44-2.07-8.37,0-3.94,1.2-7.48,3.59-10.62,2.06-2.72,4.69-4.75,7.88-6.08,2.39-1.01,4.98-1.51,7.77-1.51,4.45,0,8.24,1.27,11.36,3.8,1.57,1.27,2.84,2.77,3.8,4.5,1.1,1.97,1.65,3.89,1.65,5.77,0,1.52-.32,2.77-.95,3.74-.63.97-1.45,1.46-2.46,1.46ZM118.03,27.25h3.55c1.5,0,2.25-.69,2.25-2.07,0-1.27-.36-2.3-1.09-3.09-.73-.8-1.68-1.2-2.85-1.2-1.31,0-2.34.52-3.09,1.55-.7.96-1.05,1.93-1.05,2.92,0,.7.17,1.2.51,1.48.34.28.93.42,1.78.42Z"/>
  <path class="cls-1" d="M176.46,3.7l-.46,13.71v.77c0,.47.15.7.46.7.16,0,.63-.32,1.41-.95,2.74-2.25,5.77-3.38,9.07-3.38s6.18,1.18,8.68,3.55c3.14,2.98,4.71,6.86,4.71,11.64,0,6.82-2.54,12.27-7.63,16.35-3.66,2.95-7.95,4.43-12.87,4.43-2.44,0-4.64-.31-6.59-.93-1.96-.62-4.1-1.68-6.42-3.18-.35-.21-.63-.32-.84-.32-.26,0-.98.22-2.18.67-.61.23-1.32.35-2.14.35-1.45,0-2.18-.47-2.18-1.41,0-.3.06-.66.18-1.05.47-1.52.79-3.41.95-5.66.16-2.25.25-5.81.25-10.69v-9.7c0-2.41-.09-3.93-.28-4.54-.19-.61-.72-1.09-1.58-1.44-1.22-.52-2.06-1.02-2.53-1.53-.47-.5-.7-1.14-.7-1.92,0-1.57,1.68-3.11,5.03-4.61,1.83-.8,4.11-1.49,6.84-2.09,2.73-.6,5.07-.9,7.01-.9,1.24,0,1.85.7,1.83,2.11ZM179.48,25.14c-1.27,0-2.18.43-2.74,1.3-.45.66-.67,1.99-.67,4.01,0,5.51.19,9.22.56,11.14.33,1.78,1.32,2.67,2.99,2.67s3.01-.73,3.9-2.18c.89-1.45,1.34-3.56,1.34-6.33,0-4.08-.75-7.05-2.25-8.93-.87-1.08-1.91-1.64-3.13-1.69Z"/>
  <path class="cls-1" d="M222.93,21.7v11.29c0,4.99.08,7.9.23,8.72.15.82.73,1.45,1.74,1.9.87.38,1.45.73,1.74,1.05.29.33.44.8.44,1.41,0,.77-.28,1.48-.83,2.11-.55.63-1.28,1.08-2.2,1.34-1.69.52-4.54.77-8.54.77-4.52,0-7.7-.34-9.53-1.02-.84-.3-1.54-.78-2.07-1.42-.54-.64-.81-1.32-.81-2.02,0-.56.15-1,.44-1.3.29-.3.93-.67,1.92-1.09.91-.4,1.48-1.49,1.69-3.27.37-3.05.56-7.38.56-13.01s-.16-9.4-.49-11.04c-.33-1.64-1.15-2.86-2.46-3.66-.98-.56-1.66-1.1-2.02-1.6-.36-.5-.54-1.12-.54-1.85,0-1.15.55-2.15,1.65-3.01,1.1-.86,2.86-1.65,5.27-2.37,1.62-.49,3.71-.96,6.29-1.41,2.58-.44,4.45-.67,5.62-.67,1.85,0,2.78,1.15,2.78,3.45,0,.75-.12,2.47-.35,5.17-.3,4.2-.48,8.04-.53,11.53Z"/>
  <path class="cls-1" d="M248.42,16.57v19.05c0,4.08,1.35,6.12,4.04,6.12.68,0,1.35-.19,2-.58.66-.39,1.11-.86,1.37-1.42.52-1.12.77-3.63.77-7.52s-.13-6.47-.39-7.88c-.09-.59-.26-1.01-.49-1.28-.23-.27-.68-.58-1.34-.93-1.34-.7-2-1.59-2-2.67,0-1.45,1.15-2.46,3.45-3.02,4.36-1.08,8.66-1.62,12.9-1.62,2.37,0,3.55,1.25,3.55,3.76,0,.26-.01.79-.04,1.58-.05,1.12-.08,2.5-.11,4.11v15.5c0,.8.68,1.52,2.04,2.18,1.15.56,1.72,1.38,1.72,2.46,0,2.11-2.5,3.74-7.49,4.89-2.93.68-5.77,1.02-8.51,1.02-1.12,0-1.89-.13-2.3-.39-.41-.26-.65-.76-.72-1.51-.12-1.45-.56-2.18-1.34-2.18-.28,0-.54.06-.77.19-.23.13-.95.6-2.14,1.42-2.37,1.62-4.91,2.43-7.63,2.43-4.5,0-7.68-1.3-9.53-3.9-1.57-2.18-2.36-5.85-2.36-11,0-1.92.01-3.56.04-4.92v-1.62c0-2.02-.18-3.5-.54-4.45-.36-.95-1.03-1.69-1.99-2.23-.91-.47-1.49-.84-1.74-1.12s-.37-.67-.37-1.16c0-1.78,1.35-2.96,4.04-3.55,4.59-1.01,9.19-1.51,13.78-1.51,1.38,0,2.07.59,2.07,1.76Z"/>
  <path class="cls-1" d="M310.44,33.83h-16.52c-.73,0-1.09.32-1.09.95,0,1.52.83,2.96,2.48,4.31,1.65,1.35,3.43,2.02,5.33,2.02,1.12,0,2.37-.22,3.74-.65,1.37-.43,2.5-.97,3.39-1.6.8-.56,1.43-.84,1.9-.84.61,0,1.21.38,1.79,1.12.59.75.88,1.52.88,2.32,0,1.69-1.05,3.32-3.16,4.89-3.73,2.79-8.03,4.18-12.9,4.18s-9.05-1.43-12.38-4.29c-1.62-1.41-2.95-3.11-4.01-5.1-1.38-2.65-2.07-5.44-2.07-8.37,0-3.94,1.2-7.48,3.59-10.62,2.06-2.72,4.69-4.75,7.88-6.08,2.39-1.01,4.98-1.51,7.77-1.51,4.45,0,8.24,1.27,11.36,3.8,1.57,1.27,2.84,2.77,3.8,4.5,1.1,1.97,1.65,3.89,1.65,5.77,0,1.52-.32,2.77-.95,3.74-.63.97-1.45,1.46-2.46,1.46ZM294.83,27.25h3.55c1.5,0,2.25-.69,2.25-2.07,0-1.27-.36-2.3-1.09-3.09-.73-.8-1.68-1.2-2.85-1.2-1.31,0-2.34.52-3.09,1.55-.7.96-1.05,1.93-1.05,2.92,0,.7.17,1.2.51,1.48.34.28.93.42,1.78.42Z"/>
  <path class="cls-1" d="M375.23,4.4v32.1c0,1.83.08,3,.23,3.52.15.52.58,1.02,1.28,1.51.84.59,1.41,1.1,1.71,1.55.29.45.44.98.44,1.62,0,1.88-1.89,3.3-5.66,4.29-3.4.87-6.8,1.3-10.2,1.3-.75,0-1.24-.11-1.46-.33s-.37-.76-.44-1.6c-.12-1.2-.54-1.79-1.27-1.79-.4,0-1.02.35-1.86,1.05-2.39,1.95-5.05,2.92-7.98,2.92-3.63,0-6.9-1.35-9.81-4.04-1.71-1.62-3.09-3.48-4.15-5.59-1.41-2.74-2.11-5.52-2.11-8.33,0-3.3.91-6.49,2.74-9.56,1.69-2.84,3.98-5.02,6.89-6.54,2.44-1.27,4.84-1.9,7.21-1.9,2.72,0,5.16.61,7.31,1.83.35.19.63.28.84.28.75,0,1.12-1.01,1.12-3.02,0-.87-.21-1.53-.62-1.99-.41-.46-1.14-.85-2.2-1.18-1.48-.47-2.21-1.29-2.21-2.46,0-1.71,1.7-3.05,5.1-4.01,6-1.66,10.02-2.5,12.06-2.5s3.02.96,3.02,2.88ZM356.14,22.09c-1.52,0-2.73.81-3.62,2.43-1.2,2.16-1.79,4.99-1.79,8.51,0,3.19.57,5.59,1.72,7.21.82,1.17,1.93,1.76,3.34,1.76,1.52,0,2.63-.88,3.32-2.65.69-1.77,1.04-4.62,1.04-8.56,0-3.61-.41-6.01-1.23-7.21-.63-.94-1.56-1.43-2.78-1.48Z"/>
  <path class="cls-1" d="M402.72,14.53c4.29,0,8.05,1.11,11.29,3.34,2.32,1.59,4.18,3.67,5.59,6.22,1.45,2.67,2.18,5.46,2.18,8.37,0,5.09-2.33,9.41-7,12.97-4.45,3.4-9.55,5.1-15.29,5.1s-10.14-1.59-13.61-4.78c-3.38-3.09-5.06-7.12-5.06-12.09,0-5.53,2.06-10.05,6.19-13.57,4.31-3.7,9.55-5.55,15.71-5.55ZM399.91,22.65c-1.03,0-1.86.38-2.48,1.14-.62.76-.93,1.78-.93,3.04,0,1.41.26,3.32.79,5.75s1.15,4.58,1.88,6.45c.73,1.92,1.91,2.88,3.55,2.88,2.09,0,3.13-1.32,3.13-3.97,0-1.97-.26-4.21-.79-6.71-.53-2.51-1.17-4.55-1.92-6.12-.77-1.59-1.85-2.41-3.23-2.46Z"/>
  <path class="cls-1" d="M444.17,23.77v11.88c0,1.41.35,2.55,1.04,3.45.69.89,1.58,1.34,2.65,1.34.91,0,2.12-.42,3.62-1.27.35-.21.7-.32,1.05-.32.56,0,1.08.34,1.55,1.02.47.68.7,1.42.7,2.21,0,1.45-.8,2.85-2.39,4.18-3.33,2.84-7.36,4.25-12.09,4.25-3.75,0-6.76-1.06-9.04-3.18-2.27-2.12-3.41-4.92-3.41-8.38v-16.24c0-.54-.06-.87-.19-1-.13-.13-.46-.19-1-.19h-3.62c-.68,0-1.11-.11-1.3-.33-.19-.22-.28-.74-.28-1.56v-1.55c.02-.7.29-1.22.81-1.55l16.1-10.12c.4-.21.89-.32,1.48-.32h2.85c.59,0,.98.14,1.18.4.2.27.3.8.3,1.6v4.75c0,.7.11,1.16.33,1.37.22.21.7.32,1.42.32h6.5c.87,0,1.43.16,1.69.47.26.32.39.99.39,2.02v2.07c0,1.12-.16,1.9-.49,2.34-.33.43-.93.65-1.79.65h-6.36c-.66,0-1.1.12-1.34.35s-.35.68-.35,1.34Z"/>
  <path class="cls-1" d="M494.97,3.31l-.32,11c-.02,1.1-.04,2.72-.04,4.85,0,2.37.04,3.76.11,4.18.16.96.66,1.44,1.48,1.44.7,0,1.78-.45,3.23-1.35,1.45-.9,2.18-1.58,2.18-2.02,0-.26-.26-.73-.77-1.41-.38-.49-.56-.96-.56-1.41,0-2.53,3.12-3.8,9.35-3.8,3.23,0,5.79.33,7.66.98.75.26,1.37.7,1.86,1.34s.74,1.31.74,2.04c0,1.05-.5,1.79-1.51,2.21-.21.09-.89.25-2.04.46-1.03.19-2.37.83-4.01,1.92-1.64,1.09-2.46,1.88-2.46,2.37,0,.33.99,1.87,2.97,4.62,1.98,2.75,3.83,5.15,5.54,7.19,1.1,1.34,1.96,2.27,2.58,2.81.62.54,1.48,1.11,2.58,1.72,1.69.91,2.53,1.96,2.53,3.13,0,1.24-.53,2.21-1.6,2.92-1.07.7-2.53,1.05-4.38,1.05h-11.39c-1.43-.02-2.54-.55-3.34-1.58l-5.84-7.49c-1.55-1.97-2.49-3.14-2.83-3.52-.34-.37-.63-.56-.86-.56-.28,0-.47.21-.56.63-.09.42-.14,1.22-.14,2.39,0,1.05.12,1.82.35,2.3.23.48.77,1.06,1.62,1.74.61.49.91,1.22.91,2.18,0,1.64-.87,2.82-2.6,3.55-1.73.73-4.59,1.09-8.58,1.09-4.69,0-7.73-.2-9.14-.6-.8-.23-1.48-.71-2.04-1.42-.56-.71-.84-1.47-.84-2.27,0-.89.49-1.66,1.48-2.32.84-.54,1.38-.95,1.62-1.23.23-.28.42-.73.56-1.34.54-3.28.8-8.34.77-15.19v-7.7c0-2.62-.14-4.3-.4-5.03-.27-.73-.93-1.16-1.99-1.3-1.92-.26-2.88-1.05-2.88-2.39,0-.89.42-1.69,1.27-2.41.84-.71,2.23-1.42,4.15-2.13,6.14-2.27,10.69-3.41,13.64-3.41,1.34,0,1.98.57,1.93,1.72Z"/>
  <path class="cls-1" d="M558.68,33.83h-16.52c-.73,0-1.09.32-1.09.95,0,1.52.83,2.96,2.48,4.31,1.65,1.35,3.43,2.02,5.33,2.02,1.12,0,2.37-.22,3.74-.65,1.37-.43,2.5-.97,3.39-1.6.8-.56,1.43-.84,1.9-.84.61,0,1.21.38,1.79,1.12.59.75.88,1.52.88,2.32,0,1.69-1.05,3.32-3.16,4.89-3.73,2.79-8.03,4.18-12.9,4.18s-9.05-1.43-12.38-4.29c-1.62-1.41-2.95-3.11-4.01-5.1-1.38-2.65-2.07-5.44-2.07-8.37,0-3.94,1.2-7.48,3.59-10.62,2.06-2.72,4.69-4.75,7.88-6.08,2.39-1.01,4.98-1.51,7.77-1.51,4.45,0,8.24,1.27,11.36,3.8,1.57,1.27,2.84,2.77,3.8,4.5,1.1,1.97,1.65,3.89,1.65,5.77,0,1.52-.32,2.77-.95,3.74-.63.97-1.45,1.46-2.46,1.46ZM543.07,27.25h3.55c1.5,0,2.25-.69,2.25-2.07,0-1.27-.36-2.3-1.09-3.09-.73-.8-1.68-1.2-2.85-1.2-1.31,0-2.34.52-3.09,1.55-.7.96-1.05,1.93-1.05,2.92,0,.7.17,1.2.51,1.48.34.28.93.42,1.78.42Z"/>
  <path class="cls-1" d="M596.96,31.86l-4.64,12.76c-1.15,3.16-2.3,5.75-3.46,7.75s-2.48,3.71-3.96,5.12c-3.05,2.91-6.71,4.36-11,4.36-3.47,0-6.28-.91-8.44-2.74-1.66-1.41-2.5-3.2-2.5-5.38,0-1.81.58-3.32,1.74-4.55s2.58-1.85,4.27-1.85,3.05.56,4.08,1.69c.49.52.82.97.98,1.37.16.4.41,1.28.74,2.64.26,1.03.84,1.55,1.76,1.55.73,0,1.34-.32,1.83-.95s.74-1.42.74-2.36c0-1.1-.61-2.94-1.83-5.52l-8.47-18.04c-.89-1.88-1.56-3.05-2-3.52-.45-.47-1.43-1.04-2.95-1.72-.47-.19-.87-.56-1.21-1.11-.34-.55-.51-1.08-.51-1.6,0-2.09,2.07-3.5,6.22-4.25,2.77-.49,5.92-.74,9.46-.74,2.48,0,4.44.26,5.87.77,1.92.68,2.88,1.84,2.88,3.48,0,.59-.27,1.28-.81,2.07-.52.75-.77,1.42-.77,2s.12,1.15.37,1.76c.25.61.77,1.64,1.56,3.09.89,1.64,1.68,2.46,2.36,2.46.73,0,1.48-.72,2.25-2.16s1.16-2.83,1.16-4.17c0-1.08-.29-1.96-.88-2.64-.89-1.05-1.34-1.96-1.34-2.71,0-1.2.8-2.15,2.39-2.87,1.59-.71,3.73-1.07,6.4-1.07,4.97,0,7.45,1.2,7.45,3.59,0,.87-.25,1.56-.76,2.09-.5.53-1.42,1.03-2.76,1.49-1.12.42-2.02,1.12-2.67,2.11-1.03,1.57-2.21,4.16-3.55,7.77Z"/>
  <path class="cls-1" d="M645.58,16.99v20.43c0,1.62.15,2.8.44,3.55.29.75.88,1.44,1.78,2.07.73.52,1.21.96,1.46,1.32.25.36.37.83.37,1.39,0,3.02-3.83,4.54-11.5,4.54-4.13,0-7.4-.33-9.81-.98-.82-.23-1.48-.64-1.99-1.23-.5-.59-.76-1.25-.76-2,0-.63.13-1.12.39-1.48.26-.35.91-.91,1.97-1.69.73-.54,1.24-1.42,1.55-2.64.3-1.22.46-3.04.46-5.45,0-.77-.05-2.22-.16-4.34-.11-2.12-.18-3.36-.23-3.71-.14-.96-.8-1.7-1.97-2.21-1.45-.63-2.18-1.57-2.18-2.81,0-1.48.95-2.58,2.85-3.3,2.62-1.01,5.44-1.86,8.44-2.57,3-.7,5.32-1.05,6.96-1.05,1.29,0,1.93.73,1.93,2.18ZM638.62,1.59c2.04,0,3.66.38,4.85,1.14,1.2.76,1.79,1.79,1.79,3.08,0,1.81-.9,3.23-2.71,4.29-2.86,1.66-6.32,2.5-10.37,2.5-1.71,0-3.07-.33-4.08-.98-1.36-.84-2.04-2.02-2.04-3.52,0-2.02,1.44-3.6,4.32-4.75,2.93-1.17,5.67-1.76,8.23-1.76Z"/>
  <path class="cls-1" d="M665.76,14.56c1.17,0,3.08.26,5.73.77.54.09.98.14,1.34.14.4,0,1.17-.21,2.32-.63.54-.21,1-.32,1.37-.32,1.08,0,2.17.69,3.27,2.07.89,1.1,1.62,2.31,2.18,3.62.56,1.31.84,2.45.84,3.41s-.33,1.72-.98,2.34c-.66.62-1.48.93-2.46.93-.82,0-1.55-.2-2.2-.6-.65-.4-1.68-1.28-3.11-2.64-1.5-1.45-2.74-2.18-3.73-2.18-.66,0-1.23.24-1.71.72s-.72,1.05-.72,1.71c0,1.15,1.1,2.23,3.3,3.23,3.96,1.78,7,3.73,9.11,5.84,1.78,1.78,2.67,3.96,2.67,6.54,0,3.26-1.43,5.98-4.29,8.16-2.46,1.9-5.47,2.85-9.04,2.85-.91,0-2.58-.15-4.99-.46-2.27-.26-3.55-.39-3.83-.39-.3,0-.66.04-1.05.11-.68.09-1.17.14-1.48.14-1.1,0-1.97-.28-2.6-.84-.96-.87-1.85-2.23-2.67-4.1-.82-1.86-1.23-3.46-1.23-4.8,0-2.16.84-3.23,2.53-3.23.66,0,1.26.22,1.81.65.55.43,1.71,1.59,3.46,3.46.96,1.03,1.76,1.74,2.39,2.13s1.31.58,2.04.58c.77,0,1.39-.21,1.86-.62.47-.41.7-.95.7-1.63,0-1.05-.9-2.02-2.71-2.88-3.77-1.85-6.5-3.76-8.17-5.73-1.68-1.97-2.51-4.24-2.51-6.82,0-2.79.86-5.19,2.57-7.21,2.44-2.88,5.77-4.32,9.98-4.32Z"/>
  <path class="cls-1" d="M721.06,14.81c1.34,0,2,.95,2,2.85v.6c-.02.38-.04.68-.04.91,0,1.27.37,1.9,1.12,1.9.4,0,1.02-.5,1.86-1.51,1.27-1.45,2.86-2.61,4.78-3.46,1.92-.86,3.89-1.28,5.91-1.28,3.91,0,6.63,1.43,8.16,4.29.59,1.05,1.07,1.58,1.44,1.58.26,0,.87-.47,1.83-1.41,3.05-2.98,6.5-4.46,10.37-4.46,3.02,0,5.5.83,7.42,2.5,2.02,1.73,3.02,4.34,3.02,7.8,0,.75-.02,2.02-.07,3.8-.05.61-.07,2.45-.07,5.52,0,1.97-.01,3.35-.04,4.15-.02.49-.04.84-.04,1.05,0,1.5.47,2.81,1.41,3.94.56.68.91,1.13,1.04,1.35.13.22.19.52.19.9,0,3-3.53,4.5-10.58,4.5-3.12,0-5.63-.38-7.54-1.12-1.91-.75-2.87-1.73-2.87-2.95,0-.47.06-.83.19-1.07.13-.25.58-.9,1.35-1.95.73-.96,1.09-4.16,1.09-9.6,0-3.16-.22-5.37-.67-6.61-.52-1.48-1.55-2.21-3.09-2.21-.77,0-1.46.24-2.06.72-.6.48-.99,1.08-1.18,1.81-.21.84-.33,3.09-.35,6.75.07,3.94.19,6.33.37,7.17s.77,2.02,1.78,3.52c.23.35.35.8.35,1.34,0,2.79-3.64,4.18-10.93,4.18-4.38,0-7.34-.33-8.86-.98-1.22-.52-1.83-1.43-1.83-2.74,0-.59.08-1,.23-1.23.15-.23.67-.77,1.56-1.62.52-.49.85-.95,1-1.39.15-.43.26-1.22.33-2.37.16-2.58.25-5.18.25-7.8,0-4.59-1.17-6.89-3.52-6.89-1.76,0-2.8.98-3.13,2.95-.28,1.85-.42,4.5-.42,7.95,0,2.58.05,4.27.16,5.06.11.8.39,1.63.86,2.5.56,1.01.84,1.83.84,2.46,0,1.52-1.07,2.58-3.2,3.16-2.32.63-4.88.95-7.66.95-3.61,0-6.26-.29-7.95-.86s-2.53-1.48-2.53-2.72c0-.47.11-.87.33-1.2.22-.33.73-.84,1.53-1.55,1.05-.96,1.66-2.29,1.83-3.97.26-2.91.39-5.92.39-9.04,0-2.23-.11-3.78-.33-4.66-.22-.88-.7-1.59-1.42-2.13-.7-.54-1.15-.95-1.35-1.23-.2-.28-.3-.67-.3-1.16,0-1.57,1.23-2.81,3.69-3.73,5.93-2.13,10.37-3.21,13.32-3.23Z"/>
  <path class="cls-1" d="M792.99,16.99v20.43c0,1.62.15,2.8.44,3.55.29.75.88,1.44,1.78,2.07.73.52,1.21.96,1.46,1.32.25.36.37.83.37,1.39,0,3.02-3.83,4.54-11.5,4.54-4.13,0-7.4-.33-9.81-.98-.82-.23-1.48-.64-1.99-1.23-.5-.59-.76-1.25-.76-2,0-.63.13-1.12.39-1.48.26-.35.91-.91,1.97-1.69.73-.54,1.24-1.42,1.55-2.64.3-1.22.46-3.04.46-5.45,0-.77-.05-2.22-.16-4.34-.11-2.12-.18-3.36-.23-3.71-.14-.96-.8-1.7-1.97-2.21-1.45-.63-2.18-1.57-2.18-2.81,0-1.48.95-2.58,2.85-3.3,2.62-1.01,5.44-1.86,8.44-2.57,3-.7,5.32-1.05,6.96-1.05,1.29,0,1.93.73,1.93,2.18ZM786.03,1.59c2.04,0,3.66.38,4.85,1.14,1.2.76,1.79,1.79,1.79,3.08,0,1.81-.9,3.23-2.71,4.29-2.86,1.66-6.32,2.5-10.37,2.5-1.71,0-3.07-.33-4.08-.98-1.36-.84-2.04-2.02-2.04-3.52,0-2.02,1.44-3.6,4.32-4.75,2.93-1.17,5.67-1.76,8.23-1.76Z"/>
  <path class="cls-1" d="M840.21,4.4v32.1c0,1.83.08,3,.23,3.52.15.52.58,1.02,1.28,1.51.84.59,1.41,1.1,1.71,1.55.29.45.44.98.44,1.62,0,1.88-1.89,3.3-5.66,4.29-3.4.87-6.8,1.3-10.2,1.3-.75,0-1.24-.11-1.46-.33s-.37-.76-.44-1.6c-.12-1.2-.54-1.79-1.27-1.79-.4,0-1.02.35-1.86,1.05-2.39,1.95-5.05,2.92-7.98,2.92-3.63,0-6.9-1.35-9.81-4.04-1.71-1.62-3.09-3.48-4.15-5.59-1.41-2.74-2.11-5.52-2.11-8.33,0-3.3.91-6.49,2.74-9.56,1.69-2.84,3.98-5.02,6.89-6.54,2.44-1.27,4.84-1.9,7.21-1.9,2.72,0,5.16.61,7.31,1.83.35.19.63.28.84.28.75,0,1.12-1.01,1.12-3.02,0-.87-.21-1.53-.62-1.99-.41-.46-1.14-.85-2.2-1.18-1.48-.47-2.21-1.29-2.21-2.46,0-1.71,1.7-3.05,5.1-4.01,6-1.66,10.02-2.5,12.06-2.5s3.02.96,3.02,2.88ZM821.12,22.09c-1.52,0-2.73.81-3.62,2.43-1.2,2.16-1.79,4.99-1.79,8.51,0,3.19.57,5.59,1.72,7.21.82,1.17,1.93,1.76,3.34,1.76,1.52,0,2.63-.88,3.32-2.65.69-1.77,1.04-4.62,1.04-8.56,0-3.61-.41-6.01-1.23-7.21-.63-.94-1.56-1.43-2.78-1.48Z"/>
  <path class="cls-1" d="M887.04,4.4v32.1c0,1.83.08,3,.23,3.52.15.52.58,1.02,1.28,1.51.84.59,1.41,1.1,1.71,1.55.29.45.44.98.44,1.62,0,1.88-1.89,3.3-5.66,4.29-3.4.87-6.8,1.3-10.2,1.3-.75,0-1.24-.11-1.46-.33s-.37-.76-.44-1.6c-.12-1.2-.54-1.79-1.27-1.79-.4,0-1.02.35-1.86,1.05-2.39,1.95-5.05,2.92-7.98,2.92-3.63,0-6.9-1.35-9.81-4.04-1.71-1.62-3.09-3.48-4.15-5.59-1.41-2.74-2.11-5.52-2.11-8.33,0-3.3.91-6.49,2.74-9.56,1.69-2.84,3.98-5.02,6.89-6.54,2.44-1.27,4.84-1.9,7.21-1.9,2.72,0,5.16.61,7.31,1.83.35.19.63.28.84.28.75,0,1.12-1.01,1.12-3.02,0-.87-.21-1.53-.62-1.99-.41-.46-1.14-.85-2.2-1.18-1.48-.47-2.21-1.29-2.21-2.46,0-1.71,1.7-3.05,5.1-4.01,6-1.66,10.02-2.5,12.06-2.5s3.02.96,3.02,2.88ZM867.95,22.09c-1.52,0-2.73.81-3.62,2.43-1.2,2.16-1.79,4.99-1.79,8.51,0,3.19.57,5.59,1.72,7.21.82,1.17,1.93,1.76,3.34,1.76,1.52,0,2.63-.88,3.32-2.65.69-1.77,1.04-4.62,1.04-8.56,0-3.61-.41-6.01-1.23-7.21-.63-.94-1.56-1.43-2.78-1.48Z"/>
  <path class="cls-1" d="M912.84,21.7v11.29c0,4.99.08,7.9.23,8.72.15.82.73,1.45,1.74,1.9.87.38,1.45.73,1.74,1.05.29.33.44.8.44,1.41,0,.77-.28,1.48-.83,2.11-.55.63-1.28,1.08-2.2,1.34-1.69.52-4.54.77-8.54.77-4.52,0-7.7-.34-9.53-1.02-.84-.3-1.54-.78-2.07-1.42-.54-.64-.81-1.32-.81-2.02,0-.56.15-1,.44-1.3.29-.3.93-.67,1.92-1.09.91-.4,1.48-1.49,1.69-3.27.37-3.05.56-7.38.56-13.01s-.16-9.4-.49-11.04c-.33-1.64-1.15-2.86-2.46-3.66-.98-.56-1.66-1.1-2.02-1.6-.36-.5-.54-1.12-.54-1.85,0-1.15.55-2.15,1.65-3.01,1.1-.86,2.86-1.65,5.27-2.37,1.62-.49,3.71-.96,6.29-1.41,2.58-.44,4.45-.67,5.62-.67,1.85,0,2.78,1.15,2.78,3.45,0,.75-.12,2.47-.35,5.17-.3,4.2-.48,8.04-.53,11.53Z"/>
  <path class="cls-1" d="M951.55,33.83h-16.52c-.73,0-1.09.32-1.09.95,0,1.52.83,2.96,2.48,4.31,1.65,1.35,3.43,2.02,5.33,2.02,1.12,0,2.37-.22,3.74-.65,1.37-.43,2.5-.97,3.39-1.6.8-.56,1.43-.84,1.9-.84.61,0,1.21.38,1.79,1.12.59.75.88,1.52.88,2.32,0,1.69-1.05,3.32-3.16,4.89-3.73,2.79-8.03,4.18-12.9,4.18s-9.05-1.43-12.38-4.29c-1.62-1.41-2.95-3.11-4.01-5.1-1.38-2.65-2.07-5.44-2.07-8.37,0-3.94,1.2-7.48,3.59-10.62,2.06-2.72,4.69-4.75,7.88-6.08,2.39-1.01,4.98-1.51,7.77-1.51,4.45,0,8.24,1.27,11.36,3.8,1.57,1.27,2.84,2.77,3.8,4.5,1.1,1.97,1.65,3.89,1.65,5.77,0,1.52-.32,2.77-.95,3.74-.63.97-1.45,1.46-2.46,1.46ZM935.94,27.25h3.55c1.5,0,2.25-.69,2.25-2.07,0-1.27-.36-2.3-1.09-3.09-.73-.8-1.68-1.2-2.85-1.2-1.31,0-2.34.52-3.09,1.55-.7.96-1.05,1.93-1.05,2.92,0,.7.17,1.2.51,1.48s.93.42,1.78.42Z"/>
  <path class="cls-1" d="M1002.1.61c3.42,0,6.73.75,9.91,2.25,1.5.7,2.54,1.05,3.13,1.05.42,0,1.1-.11,2.04-.32.3-.07.64-.11,1.02-.11,1.22,0,2.29.56,3.2,1.69,2.25,2.72,3.38,6.09,3.38,10.12,0,2.84-.97,4.91-2.92,6.22-1.05.7-2.24,1.05-3.55,1.05-1.2,0-2.17-.26-2.92-.77-.75-.52-1.48-1.43-2.18-2.74-1.01-1.85-1.83-3.18-2.46-3.99s-1.41-1.54-2.32-2.2c-2.27-1.59-4.65-2.39-7.14-2.39s-4.33.87-5.75,2.62c-1.42,1.75-2.13,4.08-2.13,7.01,0,4.03,1.02,7.72,3.06,11.07,2.77,4.48,6.73,6.71,11.88,6.71,1.9,0,3.78-.32,5.64-.95s3.31-1.45,4.34-2.46c.89-.84,1.62-1.27,2.18-1.27.82,0,1.52.38,2.11,1.14.59.76.88,1.68.88,2.76,0,1.36-.41,2.88-1.23,4.57s-1.8,3.01-2.95,3.97c-.49.4-1.51.75-3.06,1.05-.89.16-2.07.6-3.55,1.3-3.47,1.66-7.08,2.5-10.83,2.5s-7.82-.88-11.71-2.64c-4.52-2.04-8.1-5.17-10.72-9.39-2.58-4.1-3.87-8.39-3.87-12.87,0-5.2,1.62-9.95,4.85-14.24,2.81-3.73,6.48-6.57,11-8.54,3.45-1.5,7-2.25,10.65-2.25Z"/>
  <path class="cls-1" d="M1035.96,33.48c1.15,0,2.29.28,3.41.83,1.12.55,2.06,1.3,2.81,2.23,1.78,2.23,2.67,5.04,2.67,8.44,0,1.88-.35,3.98-1.04,6.31s-1.6,4.45-2.72,6.35c-1.85,3.09-3.79,4.64-5.8,4.64-.89,0-1.69-.27-2.41-.81-.71-.54-1.07-1.16-1.07-1.86,0-.38.45-1.28,1.34-2.71.54-.84,1.01-1.79,1.42-2.85s.62-1.85.62-2.39c0-.84-.4-1.42-1.2-1.72-1.57-.59-2.68-1.16-3.34-1.72-1.97-1.69-2.95-3.85-2.95-6.5,0-2.11.69-3.91,2.07-5.41,1.71-1.88,3.77-2.81,6.19-2.81Z"/>
  <path class="cls-1" d="M1080.71,14.56c1.17,0,3.08.26,5.73.77.54.09.98.14,1.34.14.4,0,1.17-.21,2.32-.63.54-.21,1-.32,1.37-.32,1.08,0,2.17.69,3.27,2.07.89,1.1,1.62,2.31,2.18,3.62.56,1.31.84,2.45.84,3.41s-.33,1.72-.98,2.34c-.66.62-1.48.93-2.46.93-.82,0-1.55-.2-2.2-.6-.64-.4-1.68-1.28-3.11-2.64-1.5-1.45-2.74-2.18-3.73-2.18-.66,0-1.22.24-1.71.72-.48.48-.72,1.05-.72,1.71,0,1.15,1.1,2.23,3.3,3.23,3.96,1.78,7,3.73,9.11,5.84,1.78,1.78,2.67,3.96,2.67,6.54,0,3.26-1.43,5.98-4.29,8.16-2.46,1.9-5.47,2.85-9.04,2.85-.91,0-2.58-.15-4.99-.46-2.27-.26-3.55-.39-3.83-.39-.3,0-.66.04-1.05.11-.68.09-1.17.14-1.48.14-1.1,0-1.97-.28-2.6-.84-.96-.87-1.85-2.23-2.67-4.1s-1.23-3.46-1.23-4.8c0-2.16.84-3.23,2.53-3.23.66,0,1.26.22,1.81.65.55.43,1.71,1.59,3.46,3.46.96,1.03,1.76,1.74,2.39,2.13s1.31.58,2.04.58c.77,0,1.39-.21,1.86-.62.47-.41.7-.95.7-1.63,0-1.05-.9-2.02-2.71-2.88-3.77-1.85-6.5-3.76-8.17-5.73s-2.51-4.24-2.51-6.82c0-2.79.86-5.19,2.57-7.21,2.44-2.88,5.77-4.32,9.98-4.32Z"/>
  <path class="cls-1" d="M1120.51,3.31l-.46,14.73c-.05,1.76.49,2.64,1.62,2.64.56,0,1.11-.39,1.65-1.16,2.27-3.3,5.31-4.96,9.11-4.96s6.69,1.14,8.89,3.41c.98,1.01,1.68,2.2,2.09,3.59.41,1.38.64,3.36.69,5.94l.32,12.69c.02,1.1.17,1.91.44,2.43.27.52.9,1.16,1.88,1.93.68.54,1.02,1.18,1.02,1.93,0,2.53-3.82,3.8-11.46,3.8-6.8,0-10.2-1.18-10.2-3.55,0-.4.06-.7.18-.91s.53-.77,1.23-1.69c.98-1.29,1.48-4.51,1.48-9.67,0-3.12-.29-5.39-.88-6.82-.77-1.95-2.16-2.92-4.15-2.92-1.43,0-2.48.52-3.16,1.55-.49.75-.74,2.16-.74,4.22v6.79c.16,3,.3,4.7.42,5.1.12.4.66,1.14,1.62,2.21.45.49.67,1.07.67,1.72,0,2.65-3.45,3.97-10.34,3.97-8.06,0-12.09-1.37-12.09-4.11,0-.63.13-1.12.39-1.46.26-.34.89-.86,1.9-1.56.89-.63,1.51-2.34,1.85-5.12s.51-7.38.51-13.8c0-5.04-.14-8.53-.42-10.48-.09-.73-.26-1.26-.51-1.6-.25-.34-.71-.69-1.39-1.04-1.45-.75-2.18-1.62-2.18-2.6,0-1.17.55-2.12,1.65-2.85,1.1-.73,3.21-1.51,6.33-2.36,4.22-1.17,7.58-1.76,10.09-1.76,1.36,0,2.02.59,1.97,1.76Z"/>
  <path class="cls-1" d="M1171.59,14.53c4.29,0,8.05,1.11,11.29,3.34,2.32,1.59,4.18,3.67,5.59,6.22,1.45,2.67,2.18,5.46,2.18,8.37,0,5.09-2.33,9.41-7,12.97-4.45,3.4-9.55,5.1-15.29,5.1s-10.14-1.59-13.61-4.78c-3.38-3.09-5.06-7.12-5.06-12.09,0-5.53,2.06-10.05,6.19-13.57,4.31-3.7,9.55-5.55,15.71-5.55ZM1168.78,22.65c-1.03,0-1.86.38-2.48,1.14-.62.76-.93,1.78-.93,3.04,0,1.41.26,3.32.79,5.75s1.15,4.58,1.88,6.45c.73,1.92,1.91,2.88,3.55,2.88,2.09,0,3.13-1.32,3.13-3.97,0-1.97-.26-4.21-.79-6.71-.53-2.51-1.17-4.55-1.92-6.12-.77-1.59-1.85-2.41-3.23-2.46Z"/>
  <path class="cls-1" d="M1212.44,16.57v19.05c0,4.08,1.35,6.12,4.04,6.12.68,0,1.35-.19,2-.58s1.11-.86,1.37-1.42c.52-1.12.77-3.63.77-7.52s-.13-6.47-.39-7.88c-.09-.59-.26-1.01-.49-1.28-.23-.27-.68-.58-1.34-.93-1.34-.7-2-1.59-2-2.67,0-1.45,1.15-2.46,3.45-3.02,4.36-1.08,8.66-1.62,12.9-1.62,2.37,0,3.55,1.25,3.55,3.76,0,.26-.01.79-.04,1.58-.05,1.12-.08,2.5-.11,4.11v15.5c0,.8.68,1.52,2.04,2.18,1.15.56,1.72,1.38,1.72,2.46,0,2.11-2.5,3.74-7.49,4.89-2.93.68-5.77,1.02-8.51,1.02-1.12,0-1.89-.13-2.3-.39-.41-.26-.65-.76-.72-1.51-.12-1.45-.56-2.18-1.34-2.18-.28,0-.54.06-.77.19-.23.13-.95.6-2.14,1.42-2.37,1.62-4.91,2.43-7.63,2.43-4.5,0-7.68-1.3-9.53-3.9-1.57-2.18-2.36-5.85-2.36-11,0-1.92.01-3.56.04-4.92v-1.62c0-2.02-.18-3.5-.54-4.45s-1.03-1.69-1.99-2.23c-.91-.47-1.49-.84-1.74-1.12s-.37-.67-.37-1.16c0-1.78,1.35-2.96,4.04-3.55,4.59-1.01,9.19-1.51,13.78-1.51,1.38,0,2.07.59,2.07,1.76Z"/>
  <path class="cls-1" d="M1262.05,21.7v11.29c0,4.99.08,7.9.23,8.72.15.82.73,1.45,1.74,1.9.87.38,1.45.73,1.74,1.05.29.33.44.8.44,1.41,0,.77-.28,1.48-.83,2.11s-1.28,1.08-2.2,1.34c-1.69.52-4.54.77-8.54.77-4.52,0-7.7-.34-9.53-1.02-.84-.3-1.54-.78-2.07-1.42-.54-.64-.81-1.32-.81-2.02,0-.56.15-1,.44-1.3.29-.3.93-.67,1.92-1.09.91-.4,1.48-1.49,1.69-3.27.38-3.05.56-7.38.56-13.01s-.16-9.4-.49-11.04c-.33-1.64-1.15-2.86-2.46-3.66-.98-.56-1.66-1.1-2.02-1.6-.36-.5-.54-1.12-.54-1.85,0-1.15.55-2.15,1.65-3.01,1.1-.86,2.86-1.65,5.27-2.37,1.62-.49,3.71-.96,6.29-1.41,2.58-.44,4.45-.67,5.62-.67,1.85,0,2.78,1.15,2.78,3.45,0,.75-.12,2.47-.35,5.17-.3,4.2-.48,8.04-.53,11.53Z"/>
  <path class="cls-1" d="M1309.37,4.4v32.1c0,1.83.08,3,.23,3.52.15.52.58,1.02,1.28,1.51.84.59,1.41,1.1,1.71,1.55.29.45.44.98.44,1.62,0,1.88-1.89,3.3-5.66,4.29-3.4.87-6.8,1.3-10.2,1.3-.75,0-1.24-.11-1.46-.33-.22-.22-.37-.76-.44-1.6-.12-1.2-.54-1.79-1.27-1.79-.4,0-1.02.35-1.86,1.05-2.39,1.95-5.05,2.92-7.98,2.92-3.63,0-6.9-1.35-9.81-4.04-1.71-1.62-3.09-3.48-4.15-5.59-1.41-2.74-2.11-5.52-2.11-8.33,0-3.3.91-6.49,2.74-9.56,1.69-2.84,3.98-5.02,6.89-6.54,2.44-1.27,4.84-1.9,7.21-1.9,2.72,0,5.16.61,7.31,1.83.35.19.63.28.84.28.75,0,1.12-1.01,1.12-3.02,0-.87-.21-1.53-.62-1.99s-1.14-.85-2.2-1.18c-1.48-.47-2.21-1.29-2.21-2.46,0-1.71,1.7-3.05,5.1-4.01,6-1.66,10.02-2.5,12.06-2.5s3.02.96,3.02,2.88ZM1290.28,22.09c-1.52,0-2.73.81-3.62,2.43-1.2,2.16-1.79,4.99-1.79,8.51,0,3.19.57,5.59,1.72,7.21.82,1.17,1.93,1.76,3.34,1.76,1.52,0,2.63-.88,3.32-2.65.69-1.77,1.04-4.62,1.04-8.56,0-3.61-.41-6.01-1.23-7.21-.63-.94-1.56-1.43-2.78-1.48Z"/>
  <path class="cls-1" d="M1352.64,16.99v20.43c0,1.62.15,2.8.44,3.55.29.75.88,1.44,1.78,2.07.73.52,1.21.96,1.46,1.32.25.36.37.83.37,1.39,0,3.02-3.83,4.54-11.5,4.54-4.12,0-7.39-.33-9.81-.98-.82-.23-1.48-.64-1.99-1.23-.5-.59-.76-1.25-.76-2,0-.63.13-1.12.39-1.48s.91-.91,1.97-1.69c.73-.54,1.24-1.42,1.55-2.64.3-1.22.46-3.04.46-5.45,0-.77-.05-2.22-.16-4.34-.11-2.12-.18-3.36-.23-3.71-.14-.96-.8-1.7-1.97-2.21-1.45-.63-2.18-1.57-2.18-2.81,0-1.48.95-2.58,2.85-3.3,2.62-1.01,5.44-1.86,8.44-2.57s5.32-1.05,6.96-1.05c1.29,0,1.93.73,1.93,2.18ZM1345.68,1.59c2.04,0,3.66.38,4.85,1.14,1.2.76,1.79,1.79,1.79,3.08,0,1.81-.9,3.23-2.71,4.29-2.86,1.66-6.32,2.5-10.37,2.5-1.71,0-3.07-.33-4.08-.98-1.36-.84-2.04-2.02-2.04-3.52,0-2.02,1.44-3.6,4.32-4.75,2.93-1.17,5.67-1.76,8.23-1.76Z"/>
  <path class="cls-1" d="M1401.41,27.54l.49,12.38c.05.94.19,1.63.44,2.07.25.45.97,1.3,2.16,2.57.35.38.53.9.53,1.58,0,1.55-.93,2.62-2.78,3.23s-5.16.91-9.91.91c-3.23,0-5.52-.28-6.86-.84-1.38-.59-2.07-1.53-2.07-2.85,0-.47.07-.81.21-1.04.14-.22.61-.77,1.41-1.63.94-.98,1.41-4.27,1.41-9.84,0-3.23-.38-5.62-1.12-7.17-.61-1.24-1.73-1.86-3.38-1.86s-2.65.5-3.23,1.51c-.59,1.01-.88,2.84-.88,5.48v6.96c0,1.38.09,2.33.26,2.85.18.52.76,1.51,1.74,2.99.26.42.39.9.39,1.44,0,1.38-.96,2.4-2.88,3.06s-4.92.98-9,.98c-6.52,0-9.77-1.35-9.77-4.04,0-.56.1-.99.3-1.28.2-.29.67-.71,1.42-1.25.61-.44,1-.95,1.16-1.53.16-.57.32-1.99.46-4.24.16-2.67.25-5.47.25-8.4,0-1.62-.12-2.68-.37-3.18-.25-.5-.96-1.12-2.13-1.85-1.01-.63-1.51-1.41-1.51-2.32s.41-1.71,1.23-2.3,2.51-1.35,5.06-2.27c2.25-.8,4.42-1.47,6.5-2.02,2.09-.55,3.52-.83,4.29-.83.7,0,1.29.26,1.78.77.48.52.72,1.12.72,1.83,0,.07-.01.36-.04.88-.02.19-.04.35-.04.49,0,1.12.47,1.69,1.41,1.69.56,0,1.16-.44,1.79-1.34,2.02-2.91,4.95-4.36,8.79-4.36,2.95,0,5.48.77,7.59,2.32,1.48,1.1,2.51,2.4,3.09,3.88.59,1.49.95,3.67,1.09,6.56Z"/>
  <path class="cls-1" d="M1445.77,21.1h4.36c.73,0,1.25.11,1.56.33.32.22.45.59.4,1.11l-.28,4.18c-.05.84-.18,1.38-.39,1.6-.21.22-.68.33-1.41.33-.16,0-.55-.02-1.16-.07-.42-.02-.77-.04-1.05-.04-.98,0-1.65.32-2,.97-.35.65-.53,1.87-.53,3.67,0,2.46.27,4.54.81,6.22.21.73.52,1.26.91,1.6.4.34,1.05.64,1.97.9,2.06.61,3.09,1.75,3.09,3.41,0,1.76-1.2,3.02-3.6,3.8s-6.35,1.16-11.83,1.16c-8.13,0-12.2-1.62-12.2-4.85,0-.8.17-1.38.51-1.76.34-.37,1.08-.81,2.23-1.3,1.24-.56,1.99-1.6,2.25-3.13.4-2.3.6-4.76.6-7.38,0-1.17-.21-1.99-.62-2.44s-1.15-.67-2.23-.65c-1.27,0-2.07-.06-2.43-.19-.35-.13-.52-.44-.49-.93l.28-4.43c.05-.73.17-1.18.37-1.35s.76-.29,1.67-.33c.87-.05,1.3-.47,1.3-1.27,0-.33-.32-1.08-.95-2.25-1.08-1.95-1.62-3.89-1.62-5.84,0-2.86.98-5.19,2.95-7,2.88-2.65,7.02-3.97,12.41-3.97,4.43,0,7.97,1.04,10.62,3.13,2.04,1.62,3.06,3.48,3.06,5.59,0,1.52-.5,2.81-1.51,3.85-1.01,1.04-2.26,1.56-3.76,1.56-1.69,0-3.3-.59-4.85-1.76-.38-.3-1.27-1.23-2.67-2.78-1.01-1.08-2.02-1.62-3.02-1.62-.66,0-1.22.23-1.69.7-.47.47-.7,1.04-.7,1.72,0,1.85,1.76,3.83,5.27,5.94,1.08.66,1.81,1.17,2.2,1.55.39.38.73.9,1.04,1.58.16.28.54.42,1.12.42Z"/>
  <path class="cls-1" d="M1472.04,14.77c1.24,0,2,.18,2.27.53s.51,1.48.72,3.38c.12,1.03.48,1.55,1.09,1.55.47,0,.91-.34,1.34-1.02,1.88-2.93,4.32-4.39,7.35-4.39,2.13,0,3.88.69,5.24,2.07.66.68,1.2,1.55,1.62,2.62.42,1.07.63,2.09.63,3.08,0,1.1-.26,2.23-.77,3.39s-1.18,2.12-2,2.87c-1.5,1.43-3.34,2.14-5.52,2.14-1.2,0-2.2-.21-3.01-.63s-1.87-1.28-3.18-2.57c-.49-.49-.95-.74-1.37-.74-.66,0-1.08.37-1.28,1.11s-.3,2.29-.3,4.66c0,3.54.13,5.95.39,7.24.16.7.39,1.19.69,1.46.29.27.92.54,1.88.83,2.11.63,3.16,1.73,3.16,3.3,0,.96-.34,1.8-1.02,2.51-.68.72-1.58,1.19-2.71,1.42-2.25.47-5.55.7-9.91.7s-7.3-.36-9.46-1.09c-1.92-.66-2.88-1.79-2.88-3.41,0-1.22.7-2.31,2.11-3.27.68-.44,1.15-.85,1.41-1.21.26-.36.43-.86.53-1.49.38-2.13.56-6.08.56-11.85,0-1.05-.12-1.81-.35-2.27s-.7-.83-1.41-1.11c-1.66-.66-2.5-1.6-2.5-2.85,0-1.12.57-2.09,1.72-2.9s3.07-1.61,5.77-2.41c3.61-1.08,6.68-1.63,9.21-1.65Z"/>
  <path class="cls-1" d="M1514.96,14.53c4.29,0,8.05,1.11,11.29,3.34,2.32,1.59,4.18,3.67,5.59,6.22,1.45,2.67,2.18,5.46,2.18,8.37,0,5.09-2.33,9.41-7,12.97-4.45,3.4-9.55,5.1-15.29,5.1s-10.14-1.59-13.61-4.78c-3.38-3.09-5.06-7.12-5.06-12.09,0-5.53,2.06-10.05,6.19-13.57,4.31-3.7,9.55-5.55,15.71-5.55ZM1512.15,22.65c-1.03,0-1.86.38-2.48,1.14-.62.76-.93,1.78-.93,3.04,0,1.41.26,3.32.79,5.75s1.15,4.58,1.88,6.45c.73,1.92,1.91,2.88,3.55,2.88,2.09,0,3.13-1.32,3.13-3.97,0-1.97-.26-4.21-.79-6.71-.53-2.51-1.17-4.55-1.92-6.12-.77-1.59-1.85-2.41-3.23-2.46Z"/>
  <path class="cls-1" d="M1579.19,27.54l.49,12.38c.05.94.19,1.63.44,2.07.25.45.97,1.3,2.16,2.57.35.38.53.9.53,1.58,0,1.55-.93,2.62-2.78,3.23s-5.16.91-9.91.91c-3.23,0-5.52-.28-6.86-.84-1.38-.59-2.07-1.53-2.07-2.85,0-.47.07-.81.21-1.04.14-.22.61-.77,1.41-1.63.94-.98,1.41-4.27,1.41-9.84,0-3.23-.38-5.62-1.12-7.17-.61-1.24-1.73-1.86-3.38-1.86s-2.65.5-3.23,1.51c-.59,1.01-.88,2.84-.88,5.48v6.96c0,1.38.09,2.33.26,2.85.18.52.76,1.51,1.74,2.99.26.42.39.9.39,1.44,0,1.38-.96,2.4-2.88,3.06s-4.92.98-9,.98c-6.52,0-9.77-1.35-9.77-4.04,0-.56.1-.99.3-1.28.2-.29.67-.71,1.42-1.25.61-.44,1-.95,1.16-1.53.16-.57.32-1.99.46-4.24.16-2.67.25-5.47.25-8.4,0-1.62-.12-2.68-.37-3.18-.25-.5-.96-1.12-2.13-1.85-1.01-.63-1.51-1.41-1.51-2.32s.41-1.71,1.23-2.3,2.51-1.35,5.06-2.27c2.25-.8,4.42-1.47,6.5-2.02,2.09-.55,3.52-.83,4.29-.83.7,0,1.29.26,1.78.77.48.52.72,1.12.72,1.83,0,.07-.01.36-.04.88-.02.19-.04.35-.04.49,0,1.12.47,1.69,1.41,1.69.56,0,1.16-.44,1.79-1.34,2.02-2.91,4.95-4.36,8.79-4.36,2.95,0,5.48.77,7.59,2.32,1.48,1.1,2.51,2.4,3.09,3.88.59,1.49.95,3.67,1.09,6.56Z"/>
  <path class="cls-1" d="M1605.73,23.77v11.88c0,1.41.35,2.55,1.04,3.45.69.89,1.58,1.34,2.65,1.34.91,0,2.12-.42,3.62-1.27.35-.21.7-.32,1.05-.32.56,0,1.08.34,1.55,1.02.47.68.7,1.42.7,2.21,0,1.45-.8,2.85-2.39,4.18-3.33,2.84-7.36,4.25-12.09,4.25-3.75,0-6.76-1.06-9.04-3.18-2.27-2.12-3.41-4.92-3.41-8.38v-16.24c0-.54-.06-.87-.19-1-.13-.13-.46-.19-1-.19h-3.62c-.68,0-1.11-.11-1.3-.33-.19-.22-.28-.74-.28-1.56v-1.55c.02-.7.29-1.22.81-1.55l16.1-10.12c.4-.21.89-.32,1.48-.32h2.85c.59,0,.98.14,1.18.4.2.27.3.8.3,1.6v4.75c0,.7.11,1.16.33,1.37s.7.32,1.42.32h6.5c.87,0,1.43.16,1.69.47s.39.99.39,2.02v2.07c0,1.12-.16,1.9-.49,2.34-.33.43-.93.65-1.79.65h-6.36c-.66,0-1.1.12-1.34.35-.23.23-.35.68-.35,1.34Z"/>
  <path class="cls-1" d="M1657.94,14.53c4.29,0,8.05,1.11,11.29,3.34,2.32,1.59,4.18,3.67,5.59,6.22,1.45,2.67,2.18,5.46,2.18,8.37,0,5.09-2.33,9.41-7,12.97-4.45,3.4-9.55,5.1-15.29,5.1s-10.14-1.59-13.61-4.78c-3.38-3.09-5.06-7.12-5.06-12.09,0-5.53,2.06-10.05,6.19-13.57,4.31-3.7,9.55-5.55,15.71-5.55ZM1655.13,22.65c-1.03,0-1.86.38-2.48,1.14-.62.76-.93,1.78-.93,3.04,0,1.41.26,3.32.79,5.75s1.15,4.58,1.88,6.45c.73,1.92,1.91,2.88,3.55,2.88,2.09,0,3.13-1.32,3.13-3.97,0-1.97-.26-4.21-.79-6.71-.53-2.51-1.17-4.55-1.92-6.12-.77-1.59-1.85-2.41-3.23-2.46Z"/>
  <path class="cls-1" d="M1700.23,21.1h4.36c.73,0,1.25.11,1.56.33.32.22.45.59.4,1.11l-.28,4.18c-.05.84-.18,1.38-.39,1.6-.21.22-.68.33-1.41.33-.16,0-.55-.02-1.16-.07-.42-.02-.77-.04-1.05-.04-.98,0-1.65.32-2,.97-.35.65-.53,1.87-.53,3.67,0,2.46.27,4.54.81,6.22.21.73.52,1.26.91,1.6.4.34,1.05.64,1.97.9,2.06.61,3.09,1.75,3.09,3.41,0,1.76-1.2,3.02-3.6,3.8s-6.35,1.16-11.83,1.16c-8.13,0-12.2-1.62-12.2-4.85,0-.8.17-1.38.51-1.76.34-.37,1.08-.81,2.23-1.3,1.24-.56,1.99-1.6,2.25-3.13.4-2.3.6-4.76.6-7.38,0-1.17-.21-1.99-.62-2.44s-1.15-.67-2.23-.65c-1.27,0-2.07-.06-2.43-.19-.35-.13-.52-.44-.49-.93l.28-4.43c.05-.73.17-1.18.37-1.35s.76-.29,1.67-.33c.87-.05,1.3-.47,1.3-1.27,0-.33-.32-1.08-.95-2.25-1.08-1.95-1.62-3.89-1.62-5.84,0-2.86.98-5.19,2.95-7,2.88-2.65,7.02-3.97,12.41-3.97,4.43,0,7.97,1.04,10.62,3.13,2.04,1.62,3.06,3.48,3.06,5.59,0,1.52-.5,2.81-1.51,3.85-1.01,1.04-2.26,1.56-3.76,1.56-1.69,0-3.3-.59-4.85-1.76-.38-.3-1.27-1.23-2.67-2.78-1.01-1.08-2.02-1.62-3.02-1.62-.66,0-1.22.23-1.69.7-.47.47-.7,1.04-.7,1.72,0,1.85,1.76,3.83,5.27,5.94,1.08.66,1.81,1.17,2.2,1.55.39.38.73.9,1.04,1.58.16.28.54.42,1.12.42Z"/>
  <path class="cls-1" d="M1761.58,31.86l-4.64,12.76c-1.15,3.16-2.3,5.75-3.46,7.75s-2.48,3.71-3.96,5.12c-3.05,2.91-6.71,4.36-11,4.36-3.47,0-6.28-.91-8.44-2.74-1.66-1.41-2.5-3.2-2.5-5.38,0-1.81.58-3.32,1.74-4.55s2.58-1.85,4.27-1.85,3.05.56,4.08,1.69c.49.52.82.97.98,1.37.16.4.41,1.28.74,2.64.26,1.03.84,1.55,1.76,1.55.73,0,1.34-.32,1.83-.95s.74-1.42.74-2.36c0-1.1-.61-2.94-1.83-5.52l-8.47-18.04c-.89-1.88-1.56-3.05-2-3.52-.45-.47-1.43-1.04-2.95-1.72-.47-.19-.87-.56-1.21-1.11-.34-.55-.51-1.08-.51-1.6,0-2.09,2.07-3.5,6.22-4.25,2.77-.49,5.92-.74,9.46-.74,2.48,0,4.44.26,5.87.77,1.92.68,2.88,1.84,2.88,3.48,0,.59-.27,1.28-.81,2.07-.52.75-.77,1.42-.77,2s.12,1.15.37,1.76c.25.61.77,1.64,1.56,3.09.89,1.64,1.68,2.46,2.36,2.46.73,0,1.48-.72,2.25-2.16s1.16-2.83,1.16-4.17c0-1.08-.29-1.96-.88-2.64-.89-1.05-1.34-1.96-1.34-2.71,0-1.2.8-2.15,2.39-2.87,1.59-.71,3.73-1.07,6.4-1.07,4.97,0,7.45,1.2,7.45,3.59,0,.87-.25,1.56-.76,2.09s-1.42,1.03-2.76,1.49c-1.12.42-2.02,1.12-2.67,2.11-1.03,1.57-2.21,4.16-3.55,7.77Z"/>
  <path class="cls-1" d="M1791.64,14.53c4.29,0,8.05,1.11,11.29,3.34,2.32,1.59,4.18,3.67,5.59,6.22,1.45,2.67,2.18,5.46,2.18,8.37,0,5.09-2.33,9.41-7,12.97-4.45,3.4-9.55,5.1-15.29,5.1s-10.14-1.59-13.61-4.78c-3.38-3.09-5.06-7.12-5.06-12.09,0-5.53,2.06-10.05,6.19-13.57,4.31-3.7,9.55-5.55,15.71-5.55ZM1788.83,22.65c-1.03,0-1.86.38-2.48,1.14-.62.76-.93,1.78-.93,3.04,0,1.41.26,3.32.79,5.75s1.15,4.58,1.88,6.45c.73,1.92,1.91,2.88,3.55,2.88,2.09,0,3.13-1.32,3.13-3.97,0-1.97-.26-4.21-.79-6.71-.53-2.51-1.17-4.55-1.92-6.12-.77-1.59-1.85-2.41-3.23-2.46Z"/>
  <path class="cls-1" d="M1832.49,16.57v19.05c0,4.08,1.35,6.12,4.04,6.12.68,0,1.35-.19,2-.58s1.11-.86,1.37-1.42c.52-1.12.77-3.63.77-7.52s-.13-6.47-.39-7.88c-.09-.59-.26-1.01-.49-1.28-.23-.27-.68-.58-1.34-.93-1.34-.7-2-1.59-2-2.67,0-1.45,1.15-2.46,3.45-3.02,4.36-1.08,8.66-1.62,12.9-1.62,2.37,0,3.55,1.25,3.55,3.76,0,.26-.01.79-.04,1.58-.05,1.12-.08,2.5-.11,4.11v15.5c0,.8.68,1.52,2.04,2.18,1.15.56,1.72,1.38,1.72,2.46,0,2.11-2.5,3.74-7.49,4.89-2.93.68-5.77,1.02-8.51,1.02-1.12,0-1.89-.13-2.3-.39-.41-.26-.65-.76-.72-1.51-.12-1.45-.56-2.18-1.34-2.18-.28,0-.54.06-.77.19-.23.13-.95.6-2.14,1.42-2.37,1.62-4.91,2.43-7.63,2.43-4.5,0-7.68-1.3-9.53-3.9-1.57-2.18-2.36-5.85-2.36-11,0-1.92.01-3.56.04-4.92v-1.62c0-2.02-.18-3.5-.54-4.45s-1.03-1.69-1.99-2.23c-.91-.47-1.49-.84-1.74-1.12s-.37-.67-.37-1.16c0-1.78,1.35-2.96,4.04-3.55,4.59-1.01,9.19-1.51,13.78-1.51,1.38,0,2.07.59,2.07,1.76Z"/>
  <path class="cls-1" d="M357.05,119.42v-18.49c0-2.39-.16-3.91-.49-4.55-.33-.64-1.22-1.17-2.67-1.56-2.11-.61-3.16-1.66-3.16-3.16,0-1.05.44-1.86,1.34-2.43.89-.56,2.18-.84,3.87-.84.56,0,1.96.04,4.18.11h2.11c3.89-.02,6.17-.05,6.84-.09s3.05-.24,7.15-.62c1.36-.14,2.6-.21,3.73-.21,3.84,0,7.27.79,10.27,2.36,5.23,2.72,7.84,7.03,7.84,12.94,0,4.78-1.83,8.61-5.48,11.5-3.45,2.7-7.62,4.04-12.52,4.04-1.24,0-2.77-.08-4.57-.25-.96-.07-1.56-.11-1.79-.11-.68,0-1.02.39-1.02,1.16v.21l.25,5.77c.05,1.12.25,1.96.62,2.51.36.55,1.11,1.12,2.23,1.71,1.52.82,2.29,1.71,2.29,2.67,0,1.48-1.12,2.61-3.38,3.41s-5.44,1.2-9.56,1.2c-8.67,0-13.01-1.49-13.01-4.46,0-.7.19-1.24.56-1.62s1.25-.91,2.64-1.62c.84-.44,1.34-1.07,1.48-1.86.14-.8.23-3.36.28-7.7ZM372.91,96.46v11.95c0,.91.2,1.46.6,1.65.68.33,1.53.49,2.57.49,1.55,0,2.85-.43,3.9-1.3,1.52-1.24,2.29-3.33,2.29-6.26s-.89-5.25-2.67-6.61c-1.12-.87-2.48-1.3-4.08-1.3-1.73,0-2.6.46-2.6,1.37Z"/>
  <path class="cls-1" d="M416.79,101.17c1.24,0,2,.18,2.27.53.27.35.51,1.48.72,3.38.12,1.03.48,1.55,1.09,1.55.47,0,.91-.34,1.34-1.02,1.88-2.93,4.32-4.39,7.35-4.39,2.13,0,3.88.69,5.24,2.07.66.68,1.2,1.55,1.62,2.62.42,1.07.63,2.09.63,3.08,0,1.1-.26,2.23-.77,3.39-.52,1.16-1.18,2.12-2,2.87-1.5,1.43-3.34,2.14-5.52,2.14-1.2,0-2.2-.21-3.01-.63s-1.87-1.28-3.18-2.57c-.49-.49-.95-.74-1.37-.74-.66,0-1.08.37-1.28,1.11-.2.74-.3,2.29-.3,4.66,0,3.54.13,5.95.39,7.24.16.7.39,1.19.69,1.46.29.27.92.54,1.88.83,2.11.63,3.16,1.73,3.16,3.3,0,.96-.34,1.8-1.02,2.51-.68.72-1.58,1.19-2.71,1.42-2.25.47-5.55.7-9.91.7s-7.3-.36-9.46-1.09c-1.92-.66-2.88-1.79-2.88-3.41,0-1.22.7-2.31,2.11-3.27.68-.44,1.15-.85,1.41-1.21.26-.36.43-.86.53-1.49.37-2.13.56-6.08.56-11.85,0-1.05-.12-1.81-.35-2.27-.23-.46-.7-.83-1.41-1.11-1.66-.66-2.5-1.6-2.5-2.85,0-1.12.57-2.09,1.72-2.9,1.15-.81,3.07-1.61,5.77-2.41,3.61-1.08,6.68-1.63,9.21-1.65Z"/>
  <path class="cls-1" d="M470.57,120.23h-16.52c-.73,0-1.09.32-1.09.95,0,1.52.83,2.96,2.48,4.31,1.65,1.35,3.43,2.02,5.33,2.02,1.12,0,2.37-.22,3.74-.65,1.37-.43,2.5-.97,3.39-1.6.8-.56,1.43-.84,1.9-.84.61,0,1.21.38,1.79,1.12.59.75.88,1.52.88,2.32,0,1.69-1.05,3.32-3.16,4.89-3.73,2.79-8.03,4.18-12.9,4.18s-9.05-1.43-12.38-4.29c-1.62-1.41-2.95-3.11-4.01-5.1-1.38-2.65-2.07-5.44-2.07-8.37,0-3.94,1.2-7.48,3.59-10.62,2.06-2.72,4.69-4.75,7.88-6.08,2.39-1.01,4.98-1.51,7.77-1.51,4.45,0,8.24,1.27,11.36,3.8,1.57,1.27,2.84,2.77,3.8,4.5,1.1,1.97,1.65,3.89,1.65,5.77,0,1.52-.32,2.77-.95,3.74-.63.97-1.45,1.46-2.46,1.46ZM454.96,113.65h3.55c1.5,0,2.25-.69,2.25-2.07,0-1.27-.36-2.3-1.09-3.09-.73-.8-1.68-1.2-2.85-1.2-1.31,0-2.34.52-3.09,1.55-.7.96-1.05,1.93-1.05,2.92,0,.7.17,1.2.51,1.48.34.28.93.42,1.78.42Z"/>
  <path class="cls-1" d="M490.33,100.96c1.17,0,3.08.26,5.73.77.54.09.98.14,1.34.14.4,0,1.17-.21,2.32-.63.54-.21,1-.32,1.37-.32,1.08,0,2.17.69,3.27,2.07.89,1.1,1.62,2.31,2.18,3.62.56,1.31.84,2.45.84,3.41s-.33,1.72-.98,2.34c-.66.62-1.48.93-2.46.93-.82,0-1.55-.2-2.2-.6-.65-.4-1.68-1.28-3.11-2.64-1.5-1.45-2.74-2.18-3.73-2.18-.66,0-1.23.24-1.71.72s-.72,1.05-.72,1.71c0,1.15,1.1,2.23,3.3,3.23,3.96,1.78,7,3.73,9.11,5.84,1.78,1.78,2.67,3.96,2.67,6.54,0,3.26-1.43,5.98-4.29,8.16-2.46,1.9-5.47,2.85-9.04,2.85-.91,0-2.58-.15-4.99-.46-2.27-.26-3.55-.39-3.83-.39-.3,0-.66.04-1.05.11-.68.09-1.17.14-1.48.14-1.1,0-1.97-.28-2.6-.84-.96-.87-1.85-2.23-2.67-4.1-.82-1.86-1.23-3.46-1.23-4.8,0-2.16.84-3.23,2.53-3.23.66,0,1.26.22,1.81.65.55.43,1.71,1.59,3.46,3.46.96,1.03,1.76,1.74,2.39,2.13s1.31.58,2.04.58c.77,0,1.39-.21,1.86-.62.47-.41.7-.95.7-1.63,0-1.05-.9-2.02-2.71-2.88-3.77-1.85-6.5-3.76-8.17-5.73-1.68-1.97-2.51-4.24-2.51-6.82,0-2.79.86-5.19,2.57-7.21,2.44-2.88,5.77-4.32,9.98-4.32Z"/>
  <path class="cls-1" d="M524.64,100.96c1.17,0,3.08.26,5.73.77.54.09.98.14,1.34.14.4,0,1.17-.21,2.32-.63.54-.21,1-.32,1.37-.32,1.08,0,2.17.69,3.27,2.07.89,1.1,1.62,2.31,2.18,3.62.56,1.31.84,2.45.84,3.41s-.33,1.72-.98,2.34c-.66.62-1.48.93-2.46.93-.82,0-1.55-.2-2.2-.6-.65-.4-1.68-1.28-3.11-2.64-1.5-1.45-2.74-2.18-3.73-2.18-.66,0-1.23.24-1.71.72s-.72,1.05-.72,1.71c0,1.15,1.1,2.23,3.3,3.23,3.96,1.78,7,3.73,9.11,5.84,1.78,1.78,2.67,3.96,2.67,6.54,0,3.26-1.43,5.98-4.29,8.16-2.46,1.9-5.47,2.85-9.04,2.85-.91,0-2.58-.15-4.99-.46-2.27-.26-3.55-.39-3.83-.39-.3,0-.66.04-1.05.11-.68.09-1.17.14-1.48.14-1.1,0-1.97-.28-2.6-.84-.96-.87-1.85-2.23-2.67-4.1-.82-1.86-1.23-3.46-1.23-4.8,0-2.16.84-3.23,2.53-3.23.66,0,1.26.22,1.81.65.55.43,1.71,1.59,3.46,3.46.96,1.03,1.76,1.74,2.39,2.13s1.31.58,2.04.58c.77,0,1.39-.21,1.86-.62.47-.41.7-.95.7-1.63,0-1.05-.9-2.02-2.71-2.88-3.77-1.85-6.5-3.76-8.17-5.73-1.68-1.97-2.51-4.24-2.51-6.82,0-2.79.86-5.19,2.57-7.21,2.44-2.88,5.77-4.32,9.98-4.32Z"/>
  <path class="cls-1" d="M579.95,101.21c1.34,0,2,.95,2,2.85v.6c-.02.38-.04.68-.04.91,0,1.27.37,1.9,1.12,1.9.4,0,1.02-.5,1.86-1.51,1.27-1.45,2.86-2.61,4.78-3.46,1.92-.86,3.89-1.28,5.91-1.28,3.91,0,6.63,1.43,8.16,4.29.59,1.05,1.07,1.58,1.44,1.58.26,0,.87-.47,1.83-1.41,3.05-2.98,6.5-4.46,10.37-4.46,3.02,0,5.5.83,7.42,2.5,2.02,1.73,3.02,4.34,3.02,7.8,0,.75-.02,2.02-.07,3.8-.05.61-.07,2.45-.07,5.52,0,1.97-.01,3.35-.04,4.15-.02.49-.04.84-.04,1.05,0,1.5.47,2.81,1.41,3.94.56.68.91,1.13,1.04,1.35.13.22.19.52.19.9,0,3-3.53,4.5-10.58,4.5-3.12,0-5.63-.38-7.54-1.12-1.91-.75-2.87-1.73-2.87-2.95,0-.47.06-.83.19-1.07.13-.25.58-.9,1.35-1.95.73-.96,1.09-4.16,1.09-9.6,0-3.16-.22-5.37-.67-6.61-.52-1.48-1.55-2.21-3.09-2.21-.77,0-1.46.24-2.06.72-.6.48-.99,1.08-1.18,1.81-.21.84-.33,3.09-.35,6.75.07,3.94.19,6.33.37,7.17s.77,2.02,1.78,3.52c.23.35.35.8.35,1.34,0,2.79-3.64,4.18-10.93,4.18-4.38,0-7.34-.33-8.86-.98-1.22-.52-1.83-1.43-1.83-2.74,0-.59.08-1,.23-1.23.15-.23.67-.77,1.56-1.62.52-.49.85-.95,1-1.39.15-.43.26-1.22.33-2.37.16-2.58.25-5.18.25-7.8,0-4.59-1.17-6.89-3.52-6.89-1.76,0-2.8.98-3.13,2.95-.28,1.85-.42,4.5-.42,7.95,0,2.58.05,4.27.16,5.06.11.8.39,1.63.86,2.5.56,1.01.84,1.83.84,2.46,0,1.52-1.07,2.58-3.2,3.16-2.32.63-4.88.95-7.66.95-3.61,0-6.26-.29-7.95-.86s-2.53-1.48-2.53-2.72c0-.47.11-.87.33-1.2.22-.33.73-.84,1.53-1.55,1.05-.96,1.66-2.29,1.83-3.97.26-2.91.39-5.92.39-9.04,0-2.23-.11-3.78-.33-4.66-.22-.88-.7-1.59-1.42-2.13-.7-.54-1.15-.95-1.35-1.23-.2-.28-.3-.67-.3-1.16,0-1.57,1.23-2.81,3.69-3.73,5.93-2.13,10.37-3.21,13.32-3.23Z"/>
  <path class="cls-1" d="M651.88,103.39v20.43c0,1.62.15,2.8.44,3.55.29.75.88,1.44,1.78,2.07.73.52,1.21.96,1.46,1.32.25.36.37.83.37,1.39,0,3.02-3.83,4.54-11.5,4.54-4.13,0-7.4-.33-9.81-.98-.82-.23-1.48-.64-1.99-1.23-.5-.59-.76-1.25-.76-2,0-.63.13-1.12.39-1.48.26-.35.91-.91,1.97-1.69.73-.54,1.24-1.42,1.55-2.64.3-1.22.46-3.04.46-5.45,0-.77-.05-2.22-.16-4.34-.11-2.12-.18-3.36-.23-3.71-.14-.96-.8-1.7-1.97-2.21-1.45-.63-2.18-1.57-2.18-2.81,0-1.48.95-2.58,2.85-3.3,2.62-1.01,5.44-1.86,8.44-2.57,3-.7,5.32-1.05,6.96-1.05,1.29,0,1.93.73,1.93,2.18ZM644.91,87.99c2.04,0,3.66.38,4.85,1.14,1.2.76,1.79,1.79,1.79,3.08,0,1.81-.9,3.23-2.71,4.29-2.86,1.66-6.32,2.5-10.37,2.5-1.71,0-3.07-.33-4.08-.98-1.36-.84-2.04-2.02-2.04-3.52,0-2.02,1.44-3.6,4.32-4.75,2.93-1.17,5.67-1.76,8.23-1.76Z"/>
  <path class="cls-1" d="M699.09,90.8v32.1c0,1.83.08,3,.23,3.52.15.52.58,1.02,1.28,1.51.84.59,1.41,1.1,1.71,1.55.29.45.44.98.44,1.62,0,1.88-1.89,3.3-5.66,4.29-3.4.87-6.8,1.3-10.2,1.3-.75,0-1.24-.11-1.46-.33s-.37-.76-.44-1.6c-.12-1.2-.54-1.79-1.27-1.79-.4,0-1.02.35-1.86,1.05-2.39,1.95-5.05,2.92-7.98,2.92-3.63,0-6.9-1.35-9.81-4.04-1.71-1.62-3.09-3.48-4.15-5.59-1.41-2.74-2.11-5.52-2.11-8.33,0-3.3.91-6.49,2.74-9.56,1.69-2.84,3.98-5.02,6.89-6.54,2.44-1.27,4.84-1.9,7.21-1.9,2.72,0,5.16.61,7.31,1.83.35.19.63.28.84.28.75,0,1.12-1.01,1.12-3.02,0-.87-.21-1.53-.62-1.99-.41-.46-1.14-.85-2.2-1.18-1.48-.47-2.21-1.29-2.21-2.46,0-1.71,1.7-3.05,5.1-4.01,6-1.66,10.02-2.5,12.06-2.5s3.02.96,3.02,2.88ZM680,108.49c-1.52,0-2.73.81-3.62,2.43-1.2,2.16-1.79,4.99-1.79,8.51,0,3.19.57,5.59,1.72,7.21.82,1.17,1.93,1.76,3.34,1.76,1.52,0,2.63-.88,3.32-2.65.69-1.77,1.04-4.62,1.04-8.56,0-3.61-.41-6.01-1.23-7.21-.63-.94-1.56-1.43-2.78-1.48Z"/>
  <path class="cls-1" d="M745.92,90.8v32.1c0,1.83.08,3,.23,3.52.15.52.58,1.02,1.28,1.51.84.59,1.41,1.1,1.71,1.55.29.45.44.98.44,1.62,0,1.88-1.89,3.3-5.66,4.29-3.4.87-6.8,1.3-10.2,1.3-.75,0-1.24-.11-1.46-.33s-.37-.76-.44-1.6c-.12-1.2-.54-1.79-1.27-1.79-.4,0-1.02.35-1.86,1.05-2.39,1.95-5.05,2.92-7.98,2.92-3.63,0-6.9-1.35-9.81-4.04-1.71-1.62-3.09-3.48-4.15-5.59-1.41-2.74-2.11-5.52-2.11-8.33,0-3.3.91-6.49,2.74-9.56,1.69-2.84,3.98-5.02,6.89-6.54,2.44-1.27,4.84-1.9,7.21-1.9,2.72,0,5.16.61,7.31,1.83.35.19.63.28.84.28.75,0,1.12-1.01,1.12-3.02,0-.87-.21-1.53-.62-1.99-.41-.46-1.14-.85-2.2-1.18-1.48-.47-2.21-1.29-2.21-2.46,0-1.71,1.7-3.05,5.1-4.01,6-1.66,10.02-2.5,12.06-2.5s3.02.96,3.02,2.88ZM726.83,108.49c-1.52,0-2.73.81-3.62,2.43-1.2,2.16-1.79,4.99-1.79,8.51,0,3.19.57,5.59,1.72,7.21.82,1.17,1.93,1.76,3.34,1.76,1.52,0,2.63-.88,3.32-2.65.69-1.77,1.04-4.62,1.04-8.56,0-3.61-.41-6.01-1.23-7.21-.63-.94-1.56-1.43-2.78-1.48Z"/>
  <path class="cls-1" d="M771.72,108.1v11.29c0,4.99.08,7.9.23,8.72.15.82.73,1.45,1.74,1.9.87.38,1.45.73,1.74,1.05.29.33.44.8.44,1.41,0,.77-.28,1.48-.83,2.11-.55.63-1.28,1.08-2.2,1.34-1.69.52-4.54.77-8.54.77-4.52,0-7.7-.34-9.53-1.02-.84-.3-1.54-.78-2.07-1.42-.54-.64-.81-1.32-.81-2.02,0-.56.15-1,.44-1.3.29-.3.93-.67,1.92-1.09.91-.4,1.48-1.49,1.69-3.27.37-3.05.56-7.38.56-13.01s-.16-9.4-.49-11.04c-.33-1.64-1.15-2.86-2.46-3.66-.98-.56-1.66-1.1-2.02-1.6-.36-.5-.54-1.12-.54-1.85,0-1.15.55-2.15,1.65-3.01,1.1-.86,2.86-1.65,5.27-2.37,1.62-.49,3.71-.96,6.29-1.41,2.58-.44,4.45-.67,5.62-.67,1.85,0,2.78,1.15,2.78,3.45,0,.75-.12,2.47-.35,5.17-.3,4.2-.48,8.04-.53,11.53Z"/>
  <path class="cls-1" d="M810.43,120.23h-16.52c-.73,0-1.09.32-1.09.95,0,1.52.83,2.96,2.48,4.31,1.65,1.35,3.43,2.02,5.33,2.02,1.12,0,2.37-.22,3.74-.65,1.37-.43,2.5-.97,3.39-1.6.8-.56,1.43-.84,1.9-.84.61,0,1.21.38,1.79,1.12.59.75.88,1.52.88,2.32,0,1.69-1.05,3.32-3.16,4.89-3.73,2.79-8.03,4.18-12.9,4.18s-9.05-1.43-12.38-4.29c-1.62-1.41-2.95-3.11-4.01-5.1-1.38-2.65-2.07-5.44-2.07-8.37,0-3.94,1.2-7.48,3.59-10.62,2.06-2.72,4.69-4.75,7.88-6.08,2.39-1.01,4.98-1.51,7.77-1.51,4.45,0,8.24,1.27,11.36,3.8,1.57,1.27,2.84,2.77,3.8,4.5,1.1,1.97,1.65,3.89,1.65,5.77,0,1.52-.32,2.77-.95,3.74-.63.97-1.45,1.46-2.46,1.46ZM794.82,113.65h3.55c1.5,0,2.25-.69,2.25-2.07,0-1.27-.36-2.3-1.09-3.09-.73-.8-1.68-1.2-2.85-1.2-1.31,0-2.34.52-3.09,1.55-.7.96-1.05,1.93-1.05,2.92,0,.7.17,1.2.51,1.48.34.28.93.42,1.78.42Z"/>
  <path class="cls-1" d="M860.98,87.01c3.42,0,6.73.75,9.91,2.25,1.5.7,2.54,1.05,3.13,1.05.42,0,1.1-.11,2.04-.32.3-.07.64-.11,1.02-.11,1.22,0,2.29.56,3.2,1.69,2.25,2.72,3.38,6.09,3.38,10.12,0,2.84-.97,4.91-2.92,6.22-1.05.7-2.24,1.05-3.55,1.05-1.2,0-2.17-.26-2.92-.77-.75-.52-1.48-1.43-2.18-2.74-1.01-1.85-1.83-3.18-2.46-3.99s-1.41-1.54-2.32-2.2c-2.27-1.59-4.65-2.39-7.14-2.39s-4.33.87-5.75,2.62c-1.42,1.75-2.13,4.08-2.13,7.01,0,4.03,1.02,7.72,3.06,11.07,2.77,4.48,6.73,6.71,11.88,6.71,1.9,0,3.78-.32,5.64-.95s3.31-1.45,4.34-2.46c.89-.84,1.62-1.27,2.18-1.27.82,0,1.52.38,2.11,1.14.59.76.88,1.68.88,2.76,0,1.36-.41,2.88-1.23,4.57-.82,1.69-1.81,3.01-2.95,3.97-.49.4-1.51.75-3.06,1.05-.89.16-2.07.6-3.55,1.3-3.47,1.66-7.08,2.5-10.83,2.5s-7.82-.88-11.71-2.64c-4.52-2.04-8.1-5.17-10.72-9.39-2.58-4.1-3.87-8.39-3.87-12.87,0-5.2,1.62-9.95,4.85-14.24,2.81-3.73,6.48-6.57,11-8.54,3.45-1.5,7-2.25,10.65-2.25Z"/>
  <path class="cls-1" d="M924.83,110.17v11.88c0,1.41.35,2.55,1.04,3.45.69.89,1.58,1.34,2.65,1.34.91,0,2.12-.42,3.62-1.27.35-.21.7-.32,1.05-.32.56,0,1.08.34,1.55,1.02.47.68.7,1.42.7,2.21,0,1.45-.8,2.85-2.39,4.18-3.33,2.84-7.36,4.25-12.09,4.25-3.75,0-6.76-1.06-9.04-3.18-2.27-2.12-3.41-4.92-3.41-8.38v-16.24c0-.54-.06-.87-.19-1-.13-.13-.46-.19-1-.19h-3.62c-.68,0-1.11-.11-1.3-.33-.19-.22-.28-.74-.28-1.56v-1.55c.02-.7.29-1.22.81-1.55l16.1-10.12c.4-.21.89-.32,1.48-.32h2.85c.59,0,.98.14,1.18.4.2.27.3.8.3,1.6v4.75c0,.7.11,1.16.33,1.37.22.21.7.32,1.42.32h6.5c.87,0,1.43.16,1.69.47s.39.99.39,2.02v2.07c0,1.12-.16,1.9-.49,2.34-.33.43-.93.65-1.79.65h-6.36c-.66,0-1.1.12-1.34.35s-.35.68-.35,1.34Z"/>
  <path class="cls-1" d="M958.65,100.93c4.29,0,8.05,1.11,11.29,3.34,2.32,1.59,4.18,3.67,5.59,6.22,1.45,2.67,2.18,5.46,2.18,8.37,0,5.09-2.33,9.41-7,12.97-4.45,3.4-9.55,5.1-15.29,5.1s-10.14-1.59-13.61-4.78c-3.38-3.09-5.06-7.12-5.06-12.09,0-5.53,2.06-10.05,6.19-13.57,4.31-3.7,9.55-5.55,15.71-5.55ZM955.84,109.05c-1.03,0-1.86.38-2.48,1.14-.62.76-.93,1.78-.93,3.04,0,1.41.26,3.32.79,5.75s1.15,4.58,1.88,6.45c.73,1.92,1.91,2.88,3.55,2.88,2.09,0,3.13-1.32,3.13-3.97,0-1.97-.26-4.21-.79-6.71-.53-2.51-1.17-4.55-1.92-6.12-.77-1.59-1.85-2.41-3.23-2.46Z"/>
  <path class="cls-1" d="M1018.27,100.96c4.17,0,7.85,1.04,11.04,3.13,3.02,1.99,4.54,4.46,4.54,7.42,0,2.04-.7,3.69-2.11,4.96-1.31,1.2-2.89,1.79-4.75,1.79-1.95,0-3.41-.7-4.39-2.11-.3-.44-.75-1.58-1.34-3.41-.63-1.97-1.84-2.95-3.62-2.95-1.29,0-2.37.56-3.25,1.69s-1.32,2.51-1.32,4.15c0,2.81,1.01,5.31,3.02,7.49,1.64,1.76,3.7,2.64,6.19,2.64,1.17,0,2.16-.1,2.95-.3.8-.2,1.84-.6,3.13-1.21.33-.16.69-.25,1.09-.25.8,0,1.5.38,2.11,1.12.61.75.91,1.63.91,2.64s-.43,2.16-1.3,3.32-2,2.17-3.41,3.04c-3.05,1.88-6.64,2.81-10.79,2.81-4.83,0-8.94-1.41-12.34-4.22-4.36-3.56-6.54-8.1-6.54-13.61s2.03-9.68,6.08-13.15c3.87-3.33,8.57-4.99,14.1-4.99Z"/>
  <path class="cls-1" d="M1057.89,100.93c4.29,0,8.05,1.11,11.29,3.34,2.32,1.59,4.18,3.67,5.59,6.22,1.45,2.67,2.18,5.46,2.18,8.37,0,5.09-2.33,9.41-7,12.97-4.45,3.4-9.55,5.1-15.29,5.1s-10.14-1.59-13.61-4.78c-3.38-3.09-5.06-7.12-5.06-12.09,0-5.53,2.06-10.05,6.19-13.57,4.31-3.7,9.55-5.55,15.71-5.55ZM1055.08,109.05c-1.03,0-1.86.38-2.48,1.14-.62.76-.93,1.78-.93,3.04,0,1.41.26,3.32.79,5.75s1.15,4.58,1.88,6.45c.73,1.92,1.91,2.88,3.55,2.88,2.09,0,3.13-1.32,3.13-3.97,0-1.97-.26-4.21-.79-6.71-.53-2.51-1.17-4.55-1.92-6.12-.77-1.59-1.85-2.41-3.23-2.46Z"/>
  <path class="cls-1" d="M1122.12,113.94l.49,12.38c.05.94.19,1.63.44,2.07.25.45.97,1.3,2.16,2.57.35.38.53.9.53,1.58,0,1.55-.93,2.62-2.78,3.23s-5.16.91-9.91.91c-3.23,0-5.52-.28-6.86-.84-1.38-.59-2.07-1.53-2.07-2.85,0-.47.07-.81.21-1.04.14-.22.61-.77,1.41-1.63.94-.98,1.41-4.27,1.41-9.84,0-3.23-.38-5.62-1.12-7.17-.61-1.24-1.73-1.86-3.38-1.86s-2.65.5-3.23,1.51c-.59,1.01-.88,2.84-.88,5.48v6.96c0,1.38.09,2.33.26,2.85.18.52.76,1.51,1.74,2.99.26.42.39.9.39,1.44,0,1.38-.96,2.4-2.88,3.06s-4.92.98-9,.98c-6.52,0-9.77-1.35-9.77-4.04,0-.56.1-.99.3-1.28.2-.29.67-.71,1.42-1.25.61-.44,1-.95,1.16-1.53.16-.57.32-1.99.46-4.24.16-2.67.25-5.47.25-8.4,0-1.62-.12-2.68-.37-3.18-.25-.5-.96-1.12-2.13-1.85-1.01-.63-1.51-1.41-1.51-2.32s.41-1.71,1.23-2.3,2.51-1.35,5.06-2.27c2.25-.8,4.42-1.47,6.5-2.02,2.09-.55,3.52-.83,4.29-.83.7,0,1.29.26,1.78.77.48.52.72,1.12.72,1.83,0,.07-.01.36-.04.88-.02.19-.04.35-.04.49,0,1.12.47,1.69,1.41,1.69.56,0,1.16-.44,1.79-1.34,2.02-2.91,4.95-4.36,8.79-4.36,2.95,0,5.48.77,7.59,2.32,1.48,1.1,2.51,2.4,3.09,3.88.59,1.49.95,3.67,1.09,6.56Z"/>
  <path class="cls-1" d="M1148.67,110.17v11.88c0,1.41.35,2.55,1.04,3.45.69.89,1.58,1.34,2.65,1.34.91,0,2.12-.42,3.62-1.27.35-.21.7-.32,1.05-.32.56,0,1.08.34,1.55,1.02.47.68.7,1.42.7,2.21,0,1.45-.8,2.85-2.39,4.18-3.33,2.84-7.36,4.25-12.09,4.25-3.75,0-6.76-1.06-9.04-3.18-2.27-2.12-3.41-4.92-3.41-8.38v-16.24c0-.54-.06-.87-.19-1-.13-.13-.46-.19-1-.19h-3.62c-.68,0-1.11-.11-1.3-.33-.19-.22-.28-.74-.28-1.56v-1.55c.02-.7.29-1.22.81-1.55l16.1-10.12c.4-.21.89-.32,1.48-.32h2.85c.59,0,.98.14,1.18.4.2.27.3.8.3,1.6v4.75c0,.7.11,1.16.33,1.37s.7.32,1.42.32h6.5c.87,0,1.43.16,1.69.47s.39.99.39,2.02v2.07c0,1.12-.16,1.9-.49,2.34-.33.43-.93.65-1.79.65h-6.36c-.66,0-1.1.12-1.34.35-.23.23-.35.68-.35,1.34Z"/>
  <path class="cls-1" d="M1180.66,103.39v20.43c0,1.62.15,2.8.44,3.55.29.75.88,1.44,1.78,2.07.73.52,1.21.96,1.46,1.32.25.36.37.83.37,1.39,0,3.02-3.83,4.54-11.5,4.54-4.12,0-7.39-.33-9.81-.98-.82-.23-1.48-.64-1.99-1.23-.5-.59-.76-1.25-.76-2,0-.63.13-1.12.39-1.48s.91-.91,1.97-1.69c.73-.54,1.24-1.42,1.55-2.64.3-1.22.46-3.04.46-5.45,0-.77-.05-2.22-.16-4.34-.11-2.12-.18-3.36-.23-3.71-.14-.96-.8-1.7-1.97-2.21-1.45-.63-2.18-1.57-2.18-2.81,0-1.48.95-2.58,2.85-3.3,2.62-1.01,5.44-1.86,8.44-2.57s5.32-1.05,6.96-1.05c1.29,0,1.93.73,1.93,2.18ZM1173.7,87.99c2.04,0,3.66.38,4.85,1.14,1.2.76,1.79,1.79,1.79,3.08,0,1.81-.9,3.23-2.71,4.29-2.86,1.66-6.32,2.5-10.37,2.5-1.71,0-3.07-.33-4.08-.98-1.36-.84-2.04-2.02-2.04-3.52,0-2.02,1.44-3.6,4.32-4.75,2.93-1.17,5.67-1.76,8.23-1.76Z"/>
  <path class="cls-1" d="M1229.42,113.94l.49,12.38c.05.94.19,1.63.44,2.07.25.45.97,1.3,2.16,2.57.35.38.53.9.53,1.58,0,1.55-.93,2.62-2.78,3.23s-5.16.91-9.91.91c-3.23,0-5.52-.28-6.86-.84-1.38-.59-2.07-1.53-2.07-2.85,0-.47.07-.81.21-1.04.14-.22.61-.77,1.41-1.63.94-.98,1.41-4.27,1.41-9.84,0-3.23-.38-5.62-1.12-7.17-.61-1.24-1.73-1.86-3.38-1.86s-2.65.5-3.23,1.51c-.59,1.01-.88,2.84-.88,5.48v6.96c0,1.38.09,2.33.26,2.85.18.52.76,1.51,1.74,2.99.26.42.39.9.39,1.44,0,1.38-.96,2.4-2.88,3.06s-4.92.98-9,.98c-6.52,0-9.77-1.35-9.77-4.04,0-.56.1-.99.3-1.28.2-.29.67-.71,1.42-1.25.61-.44,1-.95,1.16-1.53.16-.57.32-1.99.46-4.24.16-2.67.25-5.47.25-8.4,0-1.62-.12-2.68-.37-3.18-.25-.5-.96-1.12-2.13-1.85-1.01-.63-1.51-1.41-1.51-2.32s.41-1.71,1.23-2.3,2.51-1.35,5.06-2.27c2.25-.8,4.42-1.47,6.5-2.02,2.09-.55,3.52-.83,4.29-.83.7,0,1.29.26,1.78.77.48.52.72,1.12.72,1.83,0,.07-.01.36-.04.88-.02.19-.04.35-.04.49,0,1.12.47,1.69,1.41,1.69.56,0,1.16-.44,1.79-1.34,2.02-2.91,4.95-4.36,8.79-4.36,2.95,0,5.48.77,7.59,2.32,1.48,1.1,2.51,2.4,3.09,3.88.59,1.49.95,3.67,1.09,6.56Z"/>
  <path class="cls-1" d="M1254.35,102.97v19.05c0,4.08,1.35,6.12,4.04,6.12.68,0,1.35-.19,2-.58s1.11-.86,1.37-1.42c.52-1.12.77-3.63.77-7.52s-.13-6.47-.39-7.88c-.09-.59-.26-1.01-.49-1.28-.23-.27-.68-.58-1.34-.93-1.34-.7-2-1.59-2-2.67,0-1.45,1.15-2.46,3.45-3.02,4.36-1.08,8.66-1.62,12.9-1.62,2.37,0,3.55,1.25,3.55,3.76,0,.26-.01.79-.04,1.58-.05,1.12-.08,2.5-.11,4.11v15.5c0,.8.68,1.52,2.04,2.18,1.15.56,1.72,1.38,1.72,2.46,0,2.11-2.5,3.74-7.49,4.89-2.93.68-5.77,1.02-8.51,1.02-1.12,0-1.89-.13-2.3-.39-.41-.26-.65-.76-.72-1.51-.12-1.45-.56-2.18-1.34-2.18-.28,0-.54.06-.77.19-.23.13-.95.6-2.14,1.42-2.37,1.62-4.91,2.43-7.63,2.43-4.5,0-7.68-1.3-9.53-3.9-1.57-2.18-2.36-5.85-2.36-11,0-1.92.01-3.56.04-4.92v-1.62c0-2.02-.18-3.5-.54-4.45s-1.03-1.69-1.99-2.23c-.91-.47-1.49-.84-1.74-1.12s-.37-.67-.37-1.16c0-1.78,1.35-2.96,4.04-3.55,4.59-1.01,9.19-1.51,13.78-1.51,1.38,0,2.07.59,2.07,1.76Z"/>
  <path class="cls-1" d="M1316.36,120.23h-16.52c-.73,0-1.09.32-1.09.95,0,1.52.83,2.96,2.48,4.31,1.65,1.35,3.43,2.02,5.33,2.02,1.12,0,2.37-.22,3.74-.65,1.37-.43,2.5-.97,3.39-1.6.8-.56,1.43-.84,1.9-.84.61,0,1.21.38,1.79,1.12.59.75.88,1.52.88,2.32,0,1.69-1.05,3.32-3.16,4.89-3.73,2.79-8.03,4.18-12.9,4.18s-9.05-1.43-12.38-4.29c-1.62-1.41-2.95-3.11-4.01-5.1-1.38-2.65-2.07-5.44-2.07-8.37,0-3.94,1.2-7.48,3.59-10.62,2.06-2.72,4.69-4.75,7.88-6.08,2.39-1.01,4.98-1.51,7.77-1.51,4.45,0,8.24,1.27,11.36,3.8,1.57,1.27,2.84,2.77,3.8,4.5,1.1,1.97,1.65,3.89,1.65,5.77,0,1.52-.32,2.77-.95,3.74-.63.97-1.45,1.46-2.46,1.46ZM1300.75,113.65h3.55c1.5,0,2.25-.69,2.25-2.07,0-1.27-.36-2.3-1.09-3.09-.73-.8-1.68-1.2-2.85-1.2-1.31,0-2.34.52-3.09,1.55-.7.96-1.05,1.93-1.05,2.92,0,.7.17,1.2.51,1.48s.93.42,1.78.42Z"/>
  <path class="cls-1" d="M1349.55,120.33c2.23,0,4.16.77,5.8,2.32,1.66,1.57,2.5,3.6,2.5,6.08,0,2.32-.83,4.28-2.5,5.87-1.64,1.55-3.57,2.32-5.8,2.32s-4.16-.77-5.8-2.32c-1.66-1.59-2.5-3.59-2.5-5.98s.83-4.43,2.5-5.98c1.64-1.52,3.57-2.3,5.8-2.32Z"/>
  <path class="cls-1" d="M1371.14,120.33c2.23,0,4.16.77,5.8,2.32,1.66,1.57,2.5,3.6,2.5,6.08,0,2.32-.83,4.28-2.5,5.87-1.64,1.55-3.57,2.32-5.8,2.32s-4.16-.77-5.8-2.32c-1.66-1.59-2.5-3.59-2.5-5.98s.83-4.43,2.5-5.98c1.64-1.52,3.57-2.3,5.8-2.32Z"/>
  <path class="cls-1" d="M1392.72,120.33c2.23,0,4.16.77,5.8,2.32,1.66,1.57,2.5,3.6,2.5,6.08,0,2.32-.83,4.28-2.5,5.87-1.64,1.55-3.57,2.32-5.8,2.32s-4.16-.77-5.8-2.32c-1.66-1.59-2.5-3.59-2.5-5.98s.83-4.43,2.5-5.98c1.64-1.52,3.57-2.3,5.8-2.32Z"/>
  <path class="cls-1" d="M1414.31,120.33c2.23,0,4.16.77,5.8,2.32,1.66,1.57,2.5,3.6,2.5,6.08,0,2.32-.83,4.28-2.5,5.87-1.64,1.55-3.57,2.32-5.8,2.32s-4.16-.77-5.8-2.32c-1.66-1.59-2.5-3.59-2.5-5.98s.83-4.43,2.5-5.98c1.64-1.52,3.57-2.3,5.8-2.32Z"/>
  <path class="cls-1" d="M1435.89,120.33c2.23,0,4.16.77,5.8,2.32,1.66,1.57,2.5,3.6,2.5,6.08,0,2.32-.83,4.28-2.5,5.87-1.64,1.55-3.57,2.32-5.8,2.32s-4.16-.77-5.8-2.32c-1.66-1.59-2.5-3.59-2.5-5.98s.83-4.43,2.5-5.98c1.64-1.52,3.57-2.3,5.8-2.32Z"/>
  <path class="cls-1" d="M1457.48,120.33c2.23,0,4.16.77,5.8,2.32,1.66,1.57,2.5,3.6,2.5,6.08,0,2.32-.83,4.28-2.5,5.87-1.64,1.55-3.57,2.32-5.8,2.32s-4.16-.77-5.8-2.32c-1.66-1.59-2.5-3.59-2.5-5.98s.83-4.43,2.5-5.98c1.64-1.52,3.57-2.3,5.8-2.32Z"/>
  <path class="cls-1" d="M1479.07,120.33c2.23,0,4.16.77,5.8,2.32,1.66,1.57,2.5,3.6,2.5,6.08,0,2.32-.83,4.28-2.5,5.87-1.64,1.55-3.57,2.32-5.8,2.32s-4.16-.77-5.8-2.32c-1.66-1.59-2.5-3.59-2.5-5.98s.83-4.43,2.5-5.98c1.64-1.52,3.57-2.3,5.8-2.32Z"/>
  <path class="cls-1" d="M1500.65,120.33c2.23,0,4.16.77,5.8,2.32,1.66,1.57,2.5,3.6,2.5,6.08,0,2.32-.83,4.28-2.5,5.87-1.64,1.55-3.57,2.32-5.8,2.32s-4.16-.77-5.8-2.32c-1.66-1.59-2.5-3.59-2.5-5.98s.83-4.43,2.5-5.98c1.64-1.52,3.57-2.3,5.8-2.32Z"/>
</svg>