<?xml version="1.0" encoding="UTF-8"?>
<svg id="Layer_1" data-name="Layer 1" xmlns="http://www.w3.org/2000/svg" viewBox="0 0 1249.86 62.77">
  <defs>
    <style>
      .cls-1 {
        fill: #7bcaff;
        stroke: #7bcaff;
        stroke-miterlimit: 10;
      }
    </style>
  </defs>
  <path class="cls-1" d="M16.92,1.59h18.53c1.99-.07,3.81-.34,5.45-.81.7-.19,1.32-.28,1.86-.28,1.9,0,3.74,1.41,5.54,4.22s2.69,5.71,2.69,8.68c0,2.04-.62,3.53-1.86,4.46-.94.7-2.06,1.05-3.38,1.05-1.24,0-2.32-.35-3.23-1.04-.91-.69-1.82-1.83-2.71-3.43-.77-1.45-1.38-2.4-1.83-2.85-.45-.44-.98-.67-1.62-.67-.87,0-1.49.36-1.86,1.09-.38.73-.56,1.92-.56,3.59v19.69c0,2.02.21,3.48.63,4.39s1.22,1.62,2.39,2.11c1.27.54,2.13,1.05,2.58,1.53.46.48.69,1.14.69,1.99,0,1.69-1.14,2.94-3.43,3.76s-5.8,1.23-10.53,1.23c-5.81,0-10.12-.48-12.94-1.44-2.37-.8-3.55-2.09-3.55-3.87,0-.96.42-1.71,1.27-2.25.21-.12,1.04-.4,2.5-.84.89-.26,1.51-.75,1.85-1.48.34-.73.62-2.12.83-4.18.19-1.83.36-4.79.53-8.88.16-4.09.25-7.63.25-10.63,0-2.11-.16-3.61-.49-4.5-.33-.89-.87-1.34-1.62-1.34-.91,0-1.81.66-2.67,1.97-1.57,2.39-2.86,3.97-3.87,4.75-1.2.91-2.36,1.37-3.48,1.37-1.27,0-2.31-.47-3.13-1.42-.82-.95-1.23-2.16-1.23-3.64s.33-3.05.98-4.8c.66-1.75,1.53-3.36,2.64-4.83C5.9,1.91,7.66.71,9.39.71c.47,0,1.01.07,1.62.21,1.27.26,2.3.43,3.11.53.81.09,1.74.14,2.79.14Z"/>
  <path class="cls-1" d="M69.23,14.53c4.29,0,8.05,1.11,11.29,3.34,2.32,1.59,4.18,3.67,5.59,6.22,1.45,2.67,2.18,5.46,2.18,8.37,0,5.09-2.33,9.41-7,12.97-4.45,3.4-9.55,5.1-15.29,5.1s-10.14-1.59-13.61-4.78c-3.38-3.09-5.06-7.12-5.06-12.09,0-5.53,2.06-10.05,6.19-13.57,4.31-3.7,9.55-5.55,15.71-5.55ZM66.42,22.65c-1.03,0-1.86.38-2.48,1.14-.62.76-.93,1.78-.93,3.04,0,1.41.26,3.32.79,5.75s1.15,4.58,1.88,6.45c.73,1.92,1.91,2.88,3.55,2.88,2.09,0,3.13-1.32,3.13-3.97,0-1.97-.26-4.21-.79-6.71-.53-2.51-1.17-4.55-1.92-6.12-.77-1.59-1.85-2.41-3.23-2.46Z"/>
  <path class="cls-1" d="M128.36,16.99v20.43c0,1.62.15,2.8.44,3.55.29.75.88,1.44,1.78,2.07.73.52,1.21.96,1.46,1.32.25.36.37.83.37,1.39,0,3.02-3.83,4.54-11.5,4.54-4.13,0-7.4-.33-9.81-.98-.82-.23-1.48-.64-1.99-1.23-.5-.59-.76-1.25-.76-2,0-.63.13-1.12.39-1.48.26-.35.91-.91,1.97-1.69.73-.54,1.24-1.42,1.55-2.64.3-1.22.46-3.04.46-5.45,0-.77-.05-2.22-.16-4.34-.11-2.12-.18-3.36-.23-3.71-.14-.96-.8-1.7-1.97-2.21-1.45-.63-2.18-1.57-2.18-2.81,0-1.48.95-2.58,2.85-3.3,2.62-1.01,5.44-1.86,8.44-2.57,3-.7,5.32-1.05,6.96-1.05,1.29,0,1.93.73,1.93,2.18ZM121.4,1.59c2.04,0,3.66.38,4.85,1.14,1.2.76,1.79,1.79,1.79,3.08,0,1.81-.9,3.23-2.71,4.29-2.86,1.66-6.32,2.5-10.37,2.5-1.71,0-3.07-.33-4.08-.98-1.36-.84-2.04-2.02-2.04-3.52,0-2.02,1.44-3.6,4.32-4.75,2.93-1.17,5.67-1.76,8.23-1.76Z"/>
  <path class="cls-1" d="M177.12,27.54l.49,12.38c.05.94.19,1.63.44,2.07.25.45.97,1.3,2.16,2.57.35.38.53.9.53,1.58,0,1.55-.93,2.62-2.78,3.23-1.85.61-5.16.91-9.91.91-3.23,0-5.52-.28-6.86-.84-1.38-.59-2.07-1.53-2.07-2.85,0-.47.07-.81.21-1.04.14-.22.61-.77,1.41-1.63.94-.98,1.41-4.27,1.41-9.84,0-3.23-.38-5.62-1.12-7.17-.61-1.24-1.73-1.86-3.38-1.86s-2.65.5-3.23,1.51c-.59,1.01-.88,2.84-.88,5.48v6.96c0,1.38.09,2.33.26,2.85.18.52.76,1.51,1.74,2.99.26.42.39.9.39,1.44,0,1.38-.96,2.4-2.88,3.06-1.92.66-4.92.98-9,.98-6.52,0-9.77-1.35-9.77-4.04,0-.56.1-.99.3-1.28.2-.29.67-.71,1.42-1.25.61-.44,1-.95,1.16-1.53.16-.57.32-1.99.46-4.24.16-2.67.25-5.47.25-8.4,0-1.62-.12-2.68-.37-3.18-.25-.5-.96-1.12-2.13-1.85-1.01-.63-1.51-1.41-1.51-2.32s.41-1.71,1.23-2.3c.82-.6,2.51-1.35,5.06-2.27,2.25-.8,4.42-1.47,6.5-2.02,2.09-.55,3.52-.83,4.29-.83.7,0,1.29.26,1.78.77.48.52.72,1.12.72,1.83,0,.07-.01.36-.04.88-.02.19-.04.35-.04.49,0,1.12.47,1.69,1.41,1.69.56,0,1.16-.44,1.79-1.34,2.02-2.91,4.94-4.36,8.79-4.36,2.95,0,5.48.77,7.59,2.32,1.48,1.1,2.51,2.4,3.09,3.88.59,1.49.95,3.67,1.09,6.56Z"/>
  <path class="cls-1" d="M199.41,14.74c1.43,0,2.32.12,2.67.37s.53.86.53,1.85c0,.87.28,1.3.84,1.3.23,0,1.02-.44,2.36-1.34,1.01-.68,2.29-1.25,3.85-1.71,1.56-.46,2.97-.69,4.24-.69,2.98,0,5.64,1.03,7.98,3.09,1.78,1.57,3.16,3.55,4.15,5.94,1.03,2.51,1.55,5.15,1.55,7.91,0,5.91-1.99,10.77-5.98,14.59-3.07,2.98-6.56,4.46-10.48,4.46-1.99,0-4.04-.47-6.15-1.41-.42-.19-.76-.28-1.02-.28-.7,0-1.05.7-1.05,2.11,0,1.85.62,3.19,1.86,4.01,1.15.77,1.83,1.29,2.06,1.56.22.27.33.72.33,1.35,0,1.41-.79,2.49-2.36,3.25-1.57.76-3.79,1.14-6.64,1.14-5.09,0-9.54-1.02-13.36-3.06-1.95-1.03-2.92-2.31-2.92-3.83,0-.7.15-1.24.44-1.6.29-.36.86-.74,1.71-1.14,1.22-.56,1.96-1.58,2.23-3.06.27-1.48.47-5.72.62-12.73-.16-5.77-.38-9-.63-9.7-.09-.23-.23-.39-.4-.46s-.76-.2-1.74-.39c-.75-.14-1.36-.49-1.83-1.04-.47-.55-.7-1.21-.7-1.99,0-.94.33-1.76.98-2.48.66-.71,1.72-1.41,3.2-2.09,5.74-2.6,10.3-3.93,13.68-3.97ZM202.89,28.03l-.53,9.67c-.02.4-.04.79-.04,1.16,0,.73.32,1.31.95,1.76.63.45,1.48.67,2.53.67,3.23,0,4.85-2.66,4.85-7.98,0-3.45-.68-5.87-2.04-7.28-.84-.87-1.85-1.3-3.02-1.3-1.66,0-2.57,1.1-2.71,3.3Z"/>
  <path class="cls-1" d="M249.37,16.57v19.05c0,4.08,1.35,6.12,4.04,6.12.68,0,1.35-.19,2-.58.66-.39,1.11-.86,1.37-1.42.52-1.12.77-3.63.77-7.52s-.13-6.47-.39-7.88c-.09-.59-.26-1.01-.49-1.28-.23-.27-.68-.58-1.34-.93-1.34-.7-2-1.59-2-2.67,0-1.45,1.15-2.46,3.45-3.02,4.36-1.08,8.66-1.62,12.9-1.62,2.37,0,3.55,1.25,3.55,3.76,0,.26-.01.79-.04,1.58-.05,1.12-.08,2.5-.11,4.11v15.5c0,.8.68,1.52,2.04,2.18,1.15.56,1.72,1.38,1.72,2.46,0,2.11-2.5,3.74-7.49,4.89-2.93.68-5.77,1.02-8.51,1.02-1.12,0-1.89-.13-2.3-.39-.41-.26-.65-.76-.72-1.51-.12-1.45-.56-2.18-1.34-2.18-.28,0-.54.06-.77.19-.23.13-.95.6-2.14,1.42-2.37,1.62-4.91,2.43-7.63,2.43-4.5,0-7.68-1.3-9.53-3.9-1.57-2.18-2.36-5.85-2.36-11,0-1.92.01-3.56.04-4.92v-1.62c0-2.02-.18-3.5-.54-4.45-.36-.95-1.03-1.69-1.99-2.23-.91-.47-1.49-.84-1.74-1.12s-.37-.67-.37-1.16c0-1.78,1.35-2.96,4.04-3.55,4.59-1.01,9.19-1.51,13.78-1.51,1.38,0,2.07.59,2.07,1.76Z"/>
  <path class="cls-1" d="M299.79,23.77v11.88c0,1.41.35,2.55,1.04,3.45.69.89,1.58,1.34,2.65,1.34.91,0,2.12-.42,3.62-1.27.35-.21.7-.32,1.05-.32.56,0,1.08.34,1.55,1.02.47.68.7,1.42.7,2.21,0,1.45-.8,2.85-2.39,4.18-3.33,2.84-7.36,4.25-12.09,4.25-3.75,0-6.76-1.06-9.04-3.18-2.27-2.12-3.41-4.92-3.41-8.38v-16.24c0-.54-.06-.87-.19-1-.13-.13-.46-.19-1-.19h-3.62c-.68,0-1.11-.11-1.3-.33-.19-.22-.28-.74-.28-1.56v-1.55c.02-.7.29-1.22.81-1.55l16.1-10.12c.4-.21.89-.32,1.48-.32h2.85c.59,0,.98.14,1.18.4.2.27.3.8.3,1.6v4.75c0,.7.11,1.16.33,1.37.22.21.7.32,1.42.32h6.5c.87,0,1.43.16,1.69.47.26.32.39.99.39,2.02v2.07c0,1.12-.16,1.9-.49,2.34-.33.43-.93.65-1.79.65h-6.36c-.66,0-1.1.12-1.34.35s-.35.68-.35,1.34Z"/>
  <path class="cls-1" d="M363.73,31.86l-4.64,12.76c-1.15,3.16-2.3,5.75-3.46,7.75s-2.48,3.71-3.96,5.12c-3.05,2.91-6.71,4.36-11,4.36-3.47,0-6.28-.91-8.44-2.74-1.66-1.41-2.5-3.2-2.5-5.38,0-1.81.58-3.32,1.74-4.55s2.58-1.85,4.27-1.85,3.05.56,4.08,1.69c.49.52.82.97.98,1.37.16.4.41,1.28.74,2.64.26,1.03.84,1.55,1.76,1.55.73,0,1.34-.32,1.83-.95s.74-1.42.74-2.36c0-1.1-.61-2.94-1.83-5.52l-8.47-18.04c-.89-1.88-1.56-3.05-2-3.52-.45-.47-1.43-1.04-2.95-1.72-.47-.19-.87-.56-1.21-1.11-.34-.55-.51-1.08-.51-1.6,0-2.09,2.07-3.5,6.22-4.25,2.77-.49,5.92-.74,9.46-.74,2.48,0,4.44.26,5.87.77,1.92.68,2.88,1.84,2.88,3.48,0,.59-.27,1.28-.81,2.07-.52.75-.77,1.42-.77,2s.12,1.15.37,1.76c.25.61.77,1.64,1.56,3.09.89,1.64,1.68,2.46,2.36,2.46.73,0,1.48-.72,2.25-2.16s1.16-2.83,1.16-4.17c0-1.08-.29-1.96-.88-2.64-.89-1.05-1.34-1.96-1.34-2.71,0-1.2.8-2.15,2.39-2.87,1.59-.71,3.73-1.07,6.4-1.07,4.97,0,7.45,1.2,7.45,3.59,0,.87-.25,1.56-.76,2.09-.5.53-1.42,1.03-2.76,1.49-1.12.42-2.02,1.12-2.67,2.11-1.03,1.57-2.21,4.16-3.55,7.77Z"/>
  <path class="cls-1" d="M393.79,14.53c4.29,0,8.05,1.11,11.29,3.34,2.32,1.59,4.18,3.67,5.59,6.22,1.45,2.67,2.18,5.46,2.18,8.37,0,5.09-2.33,9.41-7,12.97-4.45,3.4-9.55,5.1-15.29,5.1s-10.14-1.59-13.61-4.78c-3.38-3.09-5.06-7.12-5.06-12.09,0-5.53,2.06-10.05,6.19-13.57,4.31-3.7,9.55-5.55,15.71-5.55ZM390.98,22.65c-1.03,0-1.86.38-2.48,1.14-.62.76-.93,1.78-.93,3.04,0,1.41.26,3.32.79,5.75s1.15,4.58,1.88,6.45c.73,1.92,1.91,2.88,3.55,2.88,2.09,0,3.13-1.32,3.13-3.97,0-1.97-.26-4.21-.79-6.71-.53-2.51-1.17-4.55-1.92-6.12-.77-1.59-1.85-2.41-3.23-2.46Z"/>
  <path class="cls-1" d="M434.64,16.57v19.05c0,4.08,1.35,6.12,4.04,6.12.68,0,1.35-.19,2-.58.66-.39,1.11-.86,1.37-1.42.52-1.12.77-3.63.77-7.52s-.13-6.47-.39-7.88c-.09-.59-.26-1.01-.49-1.28-.23-.27-.68-.58-1.34-.93-1.34-.7-2-1.59-2-2.67,0-1.45,1.15-2.46,3.45-3.02,4.36-1.08,8.66-1.62,12.9-1.62,2.37,0,3.55,1.25,3.55,3.76,0,.26-.01.79-.04,1.58-.05,1.12-.08,2.5-.11,4.11v15.5c0,.8.68,1.52,2.04,2.18,1.15.56,1.72,1.38,1.72,2.46,0,2.11-2.5,3.74-7.49,4.89-2.93.68-5.77,1.02-8.51,1.02-1.12,0-1.89-.13-2.3-.39-.41-.26-.65-.76-.72-1.51-.12-1.45-.56-2.18-1.34-2.18-.28,0-.54.06-.77.19-.23.13-.95.6-2.14,1.42-2.37,1.62-4.91,2.43-7.63,2.43-4.5,0-7.68-1.3-9.53-3.9-1.57-2.18-2.36-5.85-2.36-11,0-1.92.01-3.56.04-4.92v-1.62c0-2.02-.18-3.5-.54-4.45-.36-.95-1.03-1.69-1.99-2.23-.91-.47-1.49-.84-1.74-1.12s-.37-.67-.37-1.16c0-1.78,1.35-2.96,4.04-3.55,4.59-1.01,9.19-1.51,13.78-1.51,1.38,0,2.07.59,2.07,1.76Z"/>
  <path class="cls-1" d="M480.59,14.77c1.24,0,2,.18,2.27.53.27.35.51,1.48.72,3.38.12,1.03.48,1.55,1.09,1.55.47,0,.91-.34,1.34-1.02,1.88-2.93,4.32-4.39,7.35-4.39,2.13,0,3.88.69,5.24,2.07.66.68,1.2,1.55,1.62,2.62.42,1.07.63,2.09.63,3.08,0,1.1-.26,2.23-.77,3.39-.52,1.16-1.18,2.12-2,2.87-1.5,1.43-3.34,2.14-5.52,2.14-1.2,0-2.2-.21-3.01-.63s-1.87-1.28-3.18-2.57c-.49-.49-.95-.74-1.37-.74-.66,0-1.08.37-1.28,1.11-.2.74-.3,2.29-.3,4.66,0,3.54.13,5.95.39,7.24.16.7.39,1.19.69,1.46.29.27.92.54,1.88.83,2.11.63,3.16,1.73,3.16,3.3,0,.96-.34,1.8-1.02,2.51-.68.72-1.58,1.19-2.71,1.42-2.25.47-5.55.7-9.91.7s-7.3-.36-9.46-1.09c-1.92-.66-2.88-1.79-2.88-3.41,0-1.22.7-2.31,2.11-3.27.68-.44,1.15-.85,1.41-1.21.26-.36.43-.86.53-1.49.37-2.13.56-6.08.56-11.85,0-1.05-.12-1.81-.35-2.27-.23-.46-.7-.83-1.41-1.11-1.66-.66-2.5-1.6-2.5-2.85,0-1.12.57-2.09,1.72-2.9,1.15-.81,3.07-1.61,5.77-2.41,3.61-1.08,6.68-1.63,9.21-1.65Z"/>
  <path class="cls-1" d="M537.72,14.81c1.34,0,2,.95,2,2.85v.6c-.02.38-.04.68-.04.91,0,1.27.37,1.9,1.12,1.9.4,0,1.02-.5,1.86-1.51,1.27-1.45,2.86-2.61,4.78-3.46,1.92-.86,3.89-1.28,5.91-1.28,3.91,0,6.63,1.43,8.16,4.29.59,1.05,1.07,1.58,1.44,1.58.26,0,.87-.47,1.83-1.41,3.05-2.98,6.5-4.46,10.37-4.46,3.02,0,5.5.83,7.42,2.5,2.02,1.73,3.02,4.34,3.02,7.8,0,.75-.02,2.02-.07,3.8-.05.61-.07,2.45-.07,5.52,0,1.97-.01,3.35-.04,4.15-.02.49-.04.84-.04,1.05,0,1.5.47,2.81,1.41,3.94.56.68.91,1.13,1.04,1.35.13.22.19.52.19.9,0,3-3.53,4.5-10.58,4.5-3.12,0-5.63-.38-7.54-1.12-1.91-.75-2.87-1.73-2.87-2.95,0-.47.06-.83.19-1.07.13-.25.58-.9,1.35-1.95.73-.96,1.09-4.16,1.09-9.6,0-3.16-.22-5.37-.67-6.61-.52-1.48-1.55-2.21-3.09-2.21-.77,0-1.46.24-2.06.72-.6.48-.99,1.08-1.18,1.81-.21.84-.33,3.09-.35,6.75.07,3.94.19,6.33.37,7.17s.77,2.02,1.78,3.52c.23.35.35.8.35,1.34,0,2.79-3.64,4.18-10.93,4.18-4.38,0-7.34-.33-8.86-.98-1.22-.52-1.83-1.43-1.83-2.74,0-.59.08-1,.23-1.23.15-.23.67-.77,1.56-1.62.52-.49.85-.95,1-1.39.15-.43.26-1.22.33-2.37.16-2.58.25-5.18.25-7.8,0-4.59-1.17-6.89-3.52-6.89-1.76,0-2.8.98-3.13,2.95-.28,1.85-.42,4.5-.42,7.95,0,2.58.05,4.27.16,5.06.11.8.39,1.63.86,2.5.56,1.01.84,1.83.84,2.46,0,1.52-1.07,2.58-3.2,3.16-2.32.63-4.88.95-7.66.95-3.61,0-6.26-.29-7.95-.86s-2.53-1.48-2.53-2.72c0-.47.11-.87.33-1.2.22-.33.73-.84,1.53-1.55,1.05-.96,1.66-2.29,1.83-3.97.26-2.91.39-5.92.39-9.04,0-2.23-.11-3.78-.33-4.66-.22-.88-.7-1.59-1.42-2.13-.7-.54-1.15-.95-1.35-1.23-.2-.28-.3-.67-.3-1.16,0-1.57,1.23-2.81,3.69-3.73,5.93-2.13,10.37-3.21,13.32-3.23Z"/>
  <path class="cls-1" d="M622.59,33.83h-16.52c-.73,0-1.09.32-1.09.95,0,1.52.83,2.96,2.48,4.31,1.65,1.35,3.43,2.02,5.33,2.02,1.12,0,2.37-.22,3.74-.65,1.37-.43,2.5-.97,3.39-1.6.8-.56,1.43-.84,1.9-.84.61,0,1.21.38,1.79,1.12.59.75.88,1.52.88,2.32,0,1.69-1.05,3.32-3.16,4.89-3.73,2.79-8.03,4.18-12.9,4.18s-9.05-1.43-12.38-4.29c-1.62-1.41-2.95-3.11-4.01-5.1-1.38-2.65-2.07-5.44-2.07-8.37,0-3.94,1.2-7.48,3.59-10.62,2.06-2.72,4.69-4.75,7.88-6.08,2.39-1.01,4.98-1.51,7.77-1.51,4.45,0,8.24,1.27,11.36,3.8,1.57,1.27,2.84,2.77,3.8,4.5,1.1,1.97,1.65,3.89,1.65,5.77,0,1.52-.32,2.77-.95,3.74-.63.97-1.45,1.46-2.46,1.46ZM606.98,27.25h3.55c1.5,0,2.25-.69,2.25-2.07,0-1.27-.36-2.3-1.09-3.09-.73-.8-1.68-1.2-2.85-1.2-1.31,0-2.34.52-3.09,1.55-.7.96-1.05,1.93-1.05,2.92,0,.7.17,1.2.51,1.48.34.28.93.42,1.78.42Z"/>
  <path class="cls-1" d="M648.36,21.7v11.29c0,4.99.08,7.9.23,8.72.15.82.73,1.45,1.74,1.9.87.38,1.45.73,1.74,1.05.29.33.44.8.44,1.41,0,.77-.28,1.48-.83,2.11s-1.28,1.08-2.2,1.34c-1.69.52-4.54.77-8.54.77-4.52,0-7.7-.34-9.53-1.02-.84-.3-1.54-.78-2.07-1.42-.54-.64-.81-1.32-.81-2.02,0-.56.15-1,.44-1.3.29-.3.93-.67,1.92-1.09.91-.4,1.48-1.49,1.69-3.27.38-3.05.56-7.38.56-13.01s-.16-9.4-.49-11.04c-.33-1.64-1.15-2.86-2.46-3.66-.98-.56-1.66-1.1-2.02-1.6-.36-.5-.54-1.12-.54-1.85,0-1.15.55-2.15,1.65-3.01,1.1-.86,2.86-1.65,5.27-2.37,1.62-.49,3.71-.96,6.29-1.41,2.58-.44,4.45-.67,5.62-.67,1.85,0,2.78,1.15,2.78,3.45,0,.75-.12,2.47-.35,5.17-.3,4.2-.48,8.04-.53,11.53Z"/>
  <path class="cls-1" d="M676.34,14.53c4.29,0,8.05,1.11,11.29,3.34,2.32,1.59,4.18,3.67,5.59,6.22,1.45,2.67,2.18,5.46,2.18,8.37,0,5.09-2.33,9.41-7,12.97-4.45,3.4-9.55,5.1-15.29,5.1s-10.14-1.59-13.61-4.78c-3.38-3.09-5.06-7.12-5.06-12.09,0-5.53,2.06-10.05,6.19-13.57,4.31-3.7,9.55-5.55,15.71-5.55ZM673.53,22.65c-1.03,0-1.86.38-2.48,1.14-.62.76-.93,1.78-.93,3.04,0,1.41.26,3.32.79,5.75s1.15,4.58,1.88,6.45c.73,1.92,1.91,2.88,3.55,2.88,2.09,0,3.13-1.32,3.13-3.97,0-1.97-.26-4.21-.79-6.71-.53-2.51-1.17-4.55-1.92-6.12-.77-1.59-1.85-2.41-3.23-2.46Z"/>
  <path class="cls-1" d="M739.03,4.4v32.1c0,1.83.08,3,.23,3.52.15.52.58,1.02,1.28,1.51.84.59,1.41,1.1,1.71,1.55.29.45.44.98.44,1.62,0,1.88-1.89,3.3-5.66,4.29-3.4.87-6.8,1.3-10.2,1.3-.75,0-1.24-.11-1.46-.33-.22-.22-.37-.76-.44-1.6-.12-1.2-.54-1.79-1.27-1.79-.4,0-1.02.35-1.86,1.05-2.39,1.95-5.05,2.92-7.98,2.92-3.63,0-6.9-1.35-9.81-4.04-1.71-1.62-3.09-3.48-4.15-5.59-1.41-2.74-2.11-5.52-2.11-8.33,0-3.3.91-6.49,2.74-9.56,1.69-2.84,3.98-5.02,6.89-6.54,2.44-1.27,4.84-1.9,7.21-1.9,2.72,0,5.16.61,7.31,1.83.35.19.63.28.84.28.75,0,1.12-1.01,1.12-3.02,0-.87-.21-1.53-.62-1.99s-1.14-.85-2.2-1.18c-1.48-.47-2.21-1.29-2.21-2.46,0-1.71,1.7-3.05,5.1-4.01,6-1.66,10.02-2.5,12.06-2.5s3.02.96,3.02,2.88ZM719.94,22.09c-1.52,0-2.73.81-3.62,2.43-1.2,2.16-1.79,4.99-1.79,8.51,0,3.19.57,5.59,1.72,7.21.82,1.17,1.93,1.76,3.34,1.76,1.52,0,2.63-.88,3.32-2.65.69-1.77,1.04-4.62,1.04-8.56,0-3.61-.41-6.01-1.23-7.21-.63-.94-1.56-1.43-2.78-1.48Z"/>
  <path class="cls-1" d="M778.26,31.86l-4.64,12.76c-1.15,3.16-2.3,5.75-3.46,7.75s-2.48,3.71-3.96,5.12c-3.05,2.91-6.71,4.36-11,4.36-3.47,0-6.28-.91-8.44-2.74-1.66-1.41-2.5-3.2-2.5-5.38,0-1.81.58-3.32,1.74-4.55s2.58-1.85,4.27-1.85,3.05.56,4.08,1.69c.49.52.82.97.98,1.37.16.4.41,1.28.74,2.64.26,1.03.84,1.55,1.76,1.55.73,0,1.34-.32,1.83-.95s.74-1.42.74-2.36c0-1.1-.61-2.94-1.83-5.52l-8.47-18.04c-.89-1.88-1.56-3.05-2-3.52-.45-.47-1.43-1.04-2.95-1.72-.47-.19-.87-.56-1.21-1.11-.34-.55-.51-1.08-.51-1.6,0-2.09,2.07-3.5,6.22-4.25,2.77-.49,5.92-.74,9.46-.74,2.48,0,4.44.26,5.87.77,1.92.68,2.88,1.84,2.88,3.48,0,.59-.27,1.28-.81,2.07-.52.75-.77,1.42-.77,2s.12,1.15.37,1.76c.25.61.77,1.64,1.56,3.09.89,1.64,1.68,2.46,2.36,2.46.73,0,1.48-.72,2.25-2.16s1.16-2.83,1.16-4.17c0-1.08-.29-1.96-.88-2.64-.89-1.05-1.34-1.96-1.34-2.71,0-1.2.8-2.15,2.39-2.87,1.59-.71,3.73-1.07,6.4-1.07,4.97,0,7.45,1.2,7.45,3.59,0,.87-.25,1.56-.76,2.09s-1.42,1.03-2.76,1.49c-1.12.42-2.02,1.12-2.67,2.11-1.03,1.57-2.21,4.16-3.55,7.77Z"/>
  <path class="cls-1" d="M794.75,33.48c1.15,0,2.29.28,3.41.83,1.12.55,2.06,1.3,2.81,2.23,1.78,2.23,2.67,5.04,2.67,8.44,0,1.88-.35,3.98-1.04,6.31s-1.6,4.45-2.72,6.35c-1.85,3.09-3.79,4.64-5.8,4.64-.89,0-1.69-.27-2.41-.81-.71-.54-1.07-1.16-1.07-1.86,0-.38.45-1.28,1.34-2.71.54-.84,1.01-1.79,1.42-2.85s.62-1.85.62-2.39c0-.84-.4-1.42-1.2-1.72-1.57-.59-2.68-1.16-3.34-1.72-1.97-1.69-2.95-3.85-2.95-6.5,0-2.11.69-3.91,2.07-5.41,1.71-1.88,3.77-2.81,6.19-2.81Z"/>
  <path class="cls-1" d="M842.67,14.74c1.43,0,2.32.12,2.67.37s.53.86.53,1.85c0,.87.28,1.3.84,1.3.23,0,1.02-.44,2.36-1.34,1.01-.68,2.29-1.25,3.85-1.71s2.97-.69,4.24-.69c2.98,0,5.64,1.03,7.98,3.09,1.78,1.57,3.16,3.55,4.15,5.94,1.03,2.51,1.55,5.15,1.55,7.91,0,5.91-1.99,10.77-5.98,14.59-3.07,2.98-6.56,4.46-10.48,4.46-1.99,0-4.04-.47-6.15-1.41-.42-.19-.76-.28-1.02-.28-.7,0-1.05.7-1.05,2.11,0,1.85.62,3.19,1.86,4.01,1.15.77,1.83,1.29,2.06,1.56.22.27.33.72.33,1.35,0,1.41-.79,2.49-2.36,3.25-1.57.76-3.79,1.14-6.64,1.14-5.09,0-9.54-1.02-13.36-3.06-1.95-1.03-2.92-2.31-2.92-3.83,0-.7.15-1.24.44-1.6.29-.36.86-.74,1.71-1.14,1.22-.56,1.96-1.58,2.23-3.06s.47-5.72.62-12.73c-.16-5.77-.38-9-.63-9.7-.09-.23-.23-.39-.4-.46s-.76-.2-1.74-.39c-.75-.14-1.36-.49-1.83-1.04-.47-.55-.7-1.21-.7-1.99,0-.94.33-1.76.98-2.48.66-.71,1.72-1.41,3.2-2.09,5.74-2.6,10.3-3.93,13.68-3.97ZM846.15,28.03l-.53,9.67c-.02.4-.04.79-.04,1.16,0,.73.32,1.31.95,1.76.63.45,1.48.67,2.53.67,3.23,0,4.85-2.66,4.85-7.98,0-3.45-.68-5.87-2.04-7.28-.84-.87-1.85-1.3-3.02-1.3-1.66,0-2.57,1.1-2.71,3.3Z"/>
  <path class="cls-1" d="M889.78,14.77c1.24,0,2,.18,2.27.53s.51,1.48.72,3.38c.12,1.03.48,1.55,1.09,1.55.47,0,.91-.34,1.34-1.02,1.88-2.93,4.32-4.39,7.35-4.39,2.13,0,3.88.69,5.24,2.07.66.68,1.2,1.55,1.62,2.62.42,1.07.63,2.09.63,3.08,0,1.1-.26,2.23-.77,3.39s-1.18,2.12-2,2.87c-1.5,1.43-3.34,2.14-5.52,2.14-1.2,0-2.2-.21-3.01-.63s-1.87-1.28-3.18-2.57c-.49-.49-.95-.74-1.37-.74-.66,0-1.08.37-1.28,1.11s-.3,2.29-.3,4.66c0,3.54.13,5.95.39,7.24.16.7.39,1.19.69,1.46.29.27.92.54,1.88.83,2.11.63,3.16,1.73,3.16,3.3,0,.96-.34,1.8-1.02,2.51-.68.72-1.58,1.19-2.71,1.42-2.25.47-5.55.7-9.91.7s-7.3-.36-9.46-1.09c-1.92-.66-2.88-1.79-2.88-3.41,0-1.22.7-2.31,2.11-3.27.68-.44,1.15-.85,1.41-1.21.26-.36.43-.86.53-1.49.38-2.13.56-6.08.56-11.85,0-1.05-.12-1.81-.35-2.27s-.7-.83-1.41-1.11c-1.66-.66-2.5-1.6-2.5-2.85,0-1.12.57-2.09,1.72-2.9s3.07-1.61,5.77-2.41c3.61-1.08,6.68-1.63,9.21-1.65Z"/>
  <path class="cls-1" d="M943.57,33.83h-16.52c-.73,0-1.09.32-1.09.95,0,1.52.83,2.96,2.48,4.31,1.65,1.35,3.43,2.02,5.33,2.02,1.12,0,2.37-.22,3.74-.65,1.37-.43,2.5-.97,3.39-1.6.8-.56,1.43-.84,1.9-.84.61,0,1.21.38,1.79,1.12.59.75.88,1.52.88,2.32,0,1.69-1.05,3.32-3.16,4.89-3.73,2.79-8.03,4.18-12.9,4.18s-9.05-1.43-12.38-4.29c-1.62-1.41-2.95-3.11-4.01-5.1-1.38-2.65-2.07-5.44-2.07-8.37,0-3.94,1.2-7.48,3.59-10.62,2.06-2.72,4.69-4.75,7.88-6.08,2.39-1.01,4.98-1.51,7.77-1.51,4.45,0,8.24,1.27,11.36,3.8,1.57,1.27,2.84,2.77,3.8,4.5,1.1,1.97,1.65,3.89,1.65,5.77,0,1.52-.32,2.77-.95,3.74-.63.97-1.45,1.46-2.46,1.46ZM927.96,27.25h3.55c1.5,0,2.25-.69,2.25-2.07,0-1.27-.36-2.3-1.09-3.09-.73-.8-1.68-1.2-2.85-1.2-1.31,0-2.34.52-3.09,1.55-.7.96-1.05,1.93-1.05,2.92,0,.7.17,1.2.51,1.48s.93.42,1.78.42Z"/>
  <path class="cls-1" d="M963.32,14.56c1.17,0,3.08.26,5.73.77.54.09.98.14,1.34.14.4,0,1.17-.21,2.32-.63.54-.21,1-.32,1.37-.32,1.08,0,2.17.69,3.27,2.07.89,1.1,1.62,2.31,2.18,3.62.56,1.31.84,2.45.84,3.41s-.33,1.72-.98,2.34c-.66.62-1.48.93-2.46.93-.82,0-1.55-.2-2.2-.6-.64-.4-1.68-1.28-3.11-2.64-1.5-1.45-2.74-2.18-3.73-2.18-.66,0-1.22.24-1.71.72-.48.48-.72,1.05-.72,1.71,0,1.15,1.1,2.23,3.3,3.23,3.96,1.78,7,3.73,9.11,5.84,1.78,1.78,2.67,3.96,2.67,6.54,0,3.26-1.43,5.98-4.29,8.16-2.46,1.9-5.47,2.85-9.04,2.85-.91,0-2.58-.15-4.99-.46-2.27-.26-3.55-.39-3.83-.39-.3,0-.66.04-1.05.11-.68.09-1.17.14-1.48.14-1.1,0-1.97-.28-2.6-.84-.96-.87-1.85-2.23-2.67-4.1s-1.23-3.46-1.23-4.8c0-2.16.84-3.23,2.53-3.23.66,0,1.26.22,1.81.65.55.43,1.71,1.59,3.46,3.46.96,1.03,1.76,1.74,2.39,2.13s1.31.58,2.04.58c.77,0,1.39-.21,1.86-.62.47-.41.7-.95.7-1.63,0-1.05-.9-2.02-2.71-2.88-3.77-1.85-6.5-3.76-8.17-5.73s-2.51-4.24-2.51-6.82c0-2.79.86-5.19,2.57-7.21,2.44-2.88,5.77-4.32,9.98-4.32Z"/>
  <path class="cls-1" d="M997.64,14.56c1.17,0,3.08.26,5.73.77.54.09.98.14,1.34.14.4,0,1.17-.21,2.32-.63.54-.21,1-.32,1.37-.32,1.08,0,2.17.69,3.27,2.07.89,1.1,1.62,2.31,2.18,3.62.56,1.31.84,2.45.84,3.41s-.33,1.72-.98,2.34c-.66.62-1.48.93-2.46.93-.82,0-1.55-.2-2.2-.6-.64-.4-1.68-1.28-3.11-2.64-1.5-1.45-2.74-2.18-3.73-2.18-.66,0-1.22.24-1.71.72-.48.48-.72,1.05-.72,1.71,0,1.15,1.1,2.23,3.3,3.23,3.96,1.78,7,3.73,9.11,5.84,1.78,1.78,2.67,3.96,2.67,6.54,0,3.26-1.43,5.98-4.29,8.16-2.46,1.9-5.47,2.85-9.04,2.85-.91,0-2.58-.15-4.99-.46-2.27-.26-3.55-.39-3.83-.39-.3,0-.66.04-1.05.11-.68.09-1.17.14-1.48.14-1.1,0-1.97-.28-2.6-.84-.96-.87-1.85-2.23-2.67-4.1s-1.23-3.46-1.23-4.8c0-2.16.84-3.23,2.53-3.23.66,0,1.26.22,1.81.65.55.43,1.71,1.59,3.46,3.46.96,1.03,1.76,1.74,2.39,2.13s1.31.58,2.04.58c.77,0,1.39-.21,1.86-.62.47-.41.7-.95.7-1.63,0-1.05-.9-2.02-2.71-2.88-3.77-1.85-6.5-3.76-8.17-5.73s-2.51-4.24-2.51-6.82c0-2.79.86-5.19,2.57-7.21,2.44-2.88,5.77-4.32,9.98-4.32Z"/>
  <path class="cls-1" d="M1062.75.61c3.42,0,6.73.75,9.91,2.25,1.5.7,2.54,1.05,3.13,1.05.42,0,1.1-.11,2.04-.32.3-.07.64-.11,1.02-.11,1.22,0,2.29.56,3.2,1.69,2.25,2.72,3.38,6.09,3.38,10.12,0,2.84-.97,4.91-2.92,6.22-1.05.7-2.24,1.05-3.55,1.05-1.2,0-2.17-.26-2.92-.77-.75-.52-1.48-1.43-2.18-2.74-1.01-1.85-1.83-3.18-2.46-3.99s-1.41-1.54-2.32-2.2c-2.27-1.59-4.65-2.39-7.14-2.39s-4.33.87-5.75,2.62c-1.42,1.75-2.13,4.08-2.13,7.01,0,4.03,1.02,7.72,3.06,11.07,2.77,4.48,6.73,6.71,11.88,6.71,1.9,0,3.78-.32,5.64-.95s3.31-1.45,4.34-2.46c.89-.84,1.62-1.27,2.18-1.27.82,0,1.52.38,2.11,1.14.59.76.88,1.68.88,2.76,0,1.36-.41,2.88-1.23,4.57s-1.8,3.01-2.95,3.97c-.49.4-1.51.75-3.06,1.05-.89.16-2.07.6-3.55,1.3-3.47,1.66-7.08,2.5-10.83,2.5s-7.82-.88-11.71-2.64c-4.52-2.04-8.1-5.17-10.72-9.39-2.58-4.1-3.87-8.39-3.87-12.87,0-5.2,1.62-9.95,4.85-14.24,2.81-3.73,6.48-6.57,11-8.54,3.45-1.5,7-2.25,10.65-2.25Z"/>
  <path class="cls-1" d="M1126.59,23.77v11.88c0,1.41.35,2.55,1.04,3.45.69.89,1.58,1.34,2.65,1.34.91,0,2.12-.42,3.62-1.27.35-.21.7-.32,1.05-.32.56,0,1.08.34,1.55,1.02.47.68.7,1.42.7,2.21,0,1.45-.8,2.85-2.39,4.18-3.33,2.84-7.36,4.25-12.09,4.25-3.75,0-6.76-1.06-9.04-3.18-2.27-2.12-3.41-4.92-3.41-8.38v-16.24c0-.54-.06-.87-.19-1-.13-.13-.46-.19-1-.19h-3.62c-.68,0-1.11-.11-1.3-.33-.19-.22-.28-.74-.28-1.56v-1.55c.02-.7.29-1.22.81-1.55l16.1-10.12c.4-.21.89-.32,1.48-.32h2.85c.59,0,.98.14,1.18.4.2.27.3.8.3,1.6v4.75c0,.7.11,1.16.33,1.37s.7.32,1.42.32h6.5c.87,0,1.43.16,1.69.47s.39.99.39,2.02v2.07c0,1.12-.16,1.9-.49,2.34-.33.43-.93.65-1.79.65h-6.36c-.66,0-1.1.12-1.34.35-.23.23-.35.68-.35,1.34Z"/>
  <path class="cls-1" d="M1160.41,14.53c4.29,0,8.05,1.11,11.29,3.34,2.32,1.59,4.18,3.67,5.59,6.22,1.45,2.67,2.18,5.46,2.18,8.37,0,5.09-2.33,9.41-7,12.97-4.45,3.4-9.55,5.1-15.29,5.1s-10.14-1.59-13.61-4.78c-3.38-3.09-5.06-7.12-5.06-12.09,0-5.53,2.06-10.05,6.19-13.57,4.31-3.7,9.55-5.55,15.71-5.55ZM1157.6,22.65c-1.03,0-1.86.38-2.48,1.14-.62.76-.93,1.78-.93,3.04,0,1.41.26,3.32.79,5.75s1.15,4.58,1.88,6.45c.73,1.92,1.91,2.88,3.55,2.88,2.09,0,3.13-1.32,3.13-3.97,0-1.97-.26-4.21-.79-6.71-.53-2.51-1.17-4.55-1.92-6.12-.77-1.59-1.85-2.41-3.23-2.46Z"/>
  <path class="cls-1" d="M1219.12,49.54l-4.71.04c-3.3.05-5.72.12-7.24.21-1.36.12-2.33.18-2.92.18-1.43,0-2.57-.36-3.41-1.09-.82-.73-1.23-1.59-1.23-2.6,0-.66.15-1.17.46-1.55.3-.37,1.04-.96,2.21-1.76.68-.47,1.15-1.2,1.41-2.2.26-1,.54-3.13.84-6.42.45-5.11.67-11.4.67-18.88,0-2.74-.18-4.56-.54-5.47-.36-.9-1.21-1.65-2.55-2.23-1.55-.66-2.32-1.62-2.32-2.88,0-1.03.46-1.88,1.39-2.53.93-.66,2.12-.98,3.57-.98.8,0,1.82.04,3.06.11,2.06.09,4.29.14,6.68.14,1.76,0,5.21-.07,10.37-.21,1.62-.05,3.08-.07,4.39-.07,3.12,0,5.63.25,7.54.76,1.91.5,3.57,1.35,4.97,2.55,2.3,1.95,3.45,4.55,3.45,7.8,0,1.62-.34,3.19-1.02,4.73-.68,1.54-1.59,2.76-2.74,3.67-.82.66-1.23,1.25-1.23,1.79,0,.59.49,1.08,1.48,1.48,1.92.77,3.67,2.07,5.24,3.9,1.62,1.9,2.43,4.28,2.43,7.14,0,3.38-1.23,6.46-3.69,9.25-3.26,3.68-8.07,5.52-14.45,5.52-.87,0-3-.06-6.4-.18-3.09-.12-4.99-.19-5.7-.21ZM1221.55,11.4v7.24c0,1.15.15,1.96.44,2.43.29.47.8.7,1.53.7,1.73,0,3.01-.53,3.83-1.6.82-1.07,1.23-2.74,1.23-5.01s-.42-3.91-1.27-5.12c-.84-1.21-2.04-1.81-3.59-1.81-.82,0-1.39.23-1.71.69s-.47,1.28-.47,2.48ZM1221.55,31.65v3.34c0,3.07.22,5.11.67,6.12.45,1.01,1.35,1.51,2.71,1.51,3.56,0,5.34-2.09,5.34-6.26,0-5.2-1.99-7.8-5.98-7.8-1.03,0-1.75.22-2.14.67-.4.45-.6,1.25-.6,2.43Z"/>
</svg>