<?xml version="1.0" encoding="UTF-8"?>
<svg id="Layer_1" data-name="Layer 1" xmlns="http://www.w3.org/2000/svg" viewBox="0 0 866 572">
  <defs>
    <style>
      .cls-1 {
        fill: #7bcdff;
        stroke-width: 0px;
      }
    </style>
  </defs>
  <path class="cls-1" d="M682.19,0H183.81C82.3,0,0,82.3,0,183.81v204.38c0,101.51,82.3,183.81,183.81,183.81h498.38c101.51,0,183.81-82.3,183.81-183.81v-204.38C866,82.3,783.7,0,682.19,0ZM269,258c-32.58,0-59-26.42-59-59s26.42-59,59-59,59,26.42,59,59-26.42,59-59,59ZM433,420.94l-105-67.92h215l-110,67.92ZM602,258c-32.58,0-59-26.42-59-59s26.42-59,59-59,59,26.42,59,59-26.42,59-59,59Z"/>
</svg>