<?xml version="1.0" encoding="UTF-8"?>
<svg id="Layer_1" data-name="Layer 1" xmlns="http://www.w3.org/2000/svg" viewBox="0 0 464.98 301.91">
  <defs>
    <style>
      .cls-1 {
        fill: #31b6d6;
        stroke-width: 0px;
      }
    </style>
  </defs>
  <path class="cls-1" d="M456.7,103.16c-2.98-27.53-7.04-57.16-26.14-77.21C406.5.69,367.32-.79,332.45.22c-84.16,2.42-168.18,9.36-251.6,20.75-17.73,2.42-36.08,5.29-50.96,15.21-12.1,8.07-21.21,22.17-21.1,36.27-13.91,53.58-11.31,111.42,7.74,163.42,7.32,19.97,18.19,40.36,37.17,49.97,10.45,5.3,22.37,6.77,34.02,8.02,99.32,10.67,199.78,10.71,299.11.14,14.57-1.55,29.33-3.39,42.87-9s25.9-15.56,31.3-29.18c3.5-8.84,3.88-18.57,3.97-28.08.4-41.64-3.78-83.18-8.26-124.58ZM146.31,118.08c-1,2.38-2.31,4.69-4.25,6.39-1.89,1.66-4.26,2.64-6.6,3.56-9.64,3.78-21.21,6.75-29.81.99-5.07-3.4-8.03-9.35-8.93-15.38-.9-6.04.05-12.2,1.44-18.15.92-3.91,2.09-7.9,4.63-11.01,2.36-2.9,6.18-4.87,9.82-4.25,5.09-3.6,10.72-6.29,16.69-5.3,5.16.85,9.52,4.41,12.68,8.58,7.35,9.69,9.07,23.37,4.34,34.58ZM211.48,238.09c-13.27-10.11-23.52-24.12-29.15-39.82-.54-1.52-1.86-3.35-3.19-3.2l-.71.27c.23-.16.47-.24.71-.27l4.51-1.73c-.59.66-1.18,1.31-1.77,1.97,17.02-2.09,33.96-4.76,50.8-8-6.13,17.3-13.21,34.26-21.21,50.78ZM294.5,109.47c-4.83,9.63-15.63,15.94-26.4,15.4-3.37-.17-6.9-1.06-9.21-3.51-1.31-1.39-2.13-3.18-2.76-4.99-5.57-15.94,3.55-35.49,19.34-41.46-.69.75-.62,2.08.16,2.74l-.66,2c1.74-4.07,6.98-6.23,11.08-4.57,2.01.81,3.63,2.35,5.01,4.02,6.87,8.31,8.28,20.73,3.45,30.37Z"/>
</svg>