<?xml version="1.0" encoding="UTF-8"?>
<svg id="Layer_1" data-name="Layer 1" xmlns="http://www.w3.org/2000/svg" viewBox="0 0 1177.4 50.68">
  <defs>
    <style>
      .cls-1 {
        fill: #7bc9ff;
        stroke: #7bc9ff;
        stroke-miterlimit: 10;
      }
    </style>
  </defs>
  <path class="cls-1" d="M16,.5c2.67,0,5.19.23,7.56.7,3.19.63,4.78,1.98,4.78,4.04,0,.68-.16,1.19-.47,1.53-.32.34-1.12.84-2.41,1.49-1.08.54-1.79,1.72-2.13,3.55-.34,1.83-.51,5.39-.51,10.69,0,8.95.22,14.5.67,16.63.16.68.42,1.2.76,1.56.34.36.93.76,1.78,1.18,1.55.7,2.32,1.72,2.32,3.06,0,1.88-1.43,3.16-4.29,3.87-3.09.75-6.88,1.12-11.36,1.12-7.64,0-11.46-1.45-11.46-4.36,0-1.05.75-2.04,2.25-2.95,1.15-.7,1.83-1.66,2.04-2.88.44-2.67.67-8.34.67-17.02,0-6-.3-9.84-.91-11.53-.33-.96-1.11-1.83-2.36-2.6-.96-.63-1.61-1.16-1.93-1.58-.33-.42-.49-.96-.49-1.62,0-1.01.49-1.81,1.46-2.41.97-.6,2.69-1.13,5.15-1.6,2.93-.59,5.89-.88,8.89-.88Z"/>
  <path class="cls-1" d="M51.55,23.42v11.88c0,1.41.35,2.55,1.04,3.45.69.89,1.58,1.34,2.65,1.34.91,0,2.12-.42,3.62-1.27.35-.21.7-.32,1.05-.32.56,0,1.08.34,1.55,1.02.47.68.7,1.42.7,2.21,0,1.45-.8,2.85-2.39,4.18-3.33,2.84-7.36,4.25-12.09,4.25-3.75,0-6.76-1.06-9.04-3.18-2.27-2.12-3.41-4.92-3.41-8.38v-16.24c0-.54-.06-.87-.19-1-.13-.13-.46-.19-1-.19h-3.62c-.68,0-1.11-.11-1.3-.33-.19-.22-.28-.74-.28-1.56v-1.55c.02-.7.29-1.22.81-1.55l16.1-10.12c.4-.21.89-.32,1.48-.32h2.85c.59,0,.98.14,1.18.4.2.27.3.8.3,1.6v4.75c0,.7.11,1.16.33,1.37.22.21.7.32,1.42.32h6.5c.87,0,1.43.16,1.69.47.26.32.39.99.39,2.02v2.07c0,1.12-.16,1.9-.49,2.34-.33.43-.93.65-1.79.65h-6.36c-.66,0-1.1.12-1.34.35s-.35.68-.35,1.34Z"/>
  <path class="cls-1" d="M102.88,23.42v11.88c0,1.41.35,2.55,1.04,3.45.69.89,1.58,1.34,2.65,1.34.91,0,2.12-.42,3.62-1.27.35-.21.7-.32,1.05-.32.56,0,1.08.34,1.55,1.02.47.68.7,1.42.7,2.21,0,1.45-.8,2.85-2.39,4.18-3.33,2.84-7.36,4.25-12.09,4.25-3.75,0-6.76-1.06-9.04-3.18-2.27-2.12-3.41-4.92-3.41-8.38v-16.24c0-.54-.06-.87-.19-1-.13-.13-.46-.19-1-.19h-3.62c-.68,0-1.11-.11-1.3-.33-.19-.22-.28-.74-.28-1.56v-1.55c.02-.7.29-1.22.81-1.55l16.1-10.12c.4-.21.89-.32,1.48-.32h2.85c.59,0,.98.14,1.18.4.2.27.3.8.3,1.6v4.75c0,.7.11,1.16.33,1.37.22.21.7.32,1.42.32h6.5c.87,0,1.43.16,1.69.47.26.32.39.99.39,2.02v2.07c0,1.12-.16,1.9-.49,2.34-.33.43-.93.65-1.79.65h-6.36c-.66,0-1.1.12-1.34.35s-.35.68-.35,1.34Z"/>
  <path class="cls-1" d="M135.78,14.18c4.08,0,7.54,1.03,10.37,3.09,1.5,1.1,2.55,2.36,3.15,3.78.6,1.42.9,3.37.9,5.85l-.07,5.24c0,3.63.26,5.99.77,7.07.26.52.5.84.74.98.23.14.73.27,1.48.39.75.12,1.12.61,1.12,1.48,0,1.12-.45,2.3-1.35,3.52-.9,1.22-2.07,2.24-3.5,3.06-1.76,1.03-3.6,1.55-5.52,1.55-2.46,0-4.41-.84-5.84-2.53-.49-.61-.95-.91-1.37-.91-.47,0-1.09.29-1.86.88-2.34,1.71-5,2.57-7.98,2.57s-5.55-.66-7.45-1.97c-1.24-.87-2.23-2-2.95-3.39-.73-1.39-1.09-2.85-1.09-4.38,0-2.44.98-4.59,2.95-6.47,3.07-2.95,7.66-4.44,13.78-4.46,1.36,0,2.21-.13,2.57-.4.35-.27.53-.9.53-1.88,0-2.48-.26-4.28-.77-5.4-.52-1.11-1.36-1.67-2.53-1.67-.7,0-1.33.21-1.88.63-.55.42-1.24,1.2-2.06,2.32-2.09,2.98-4.27,4.46-6.54,4.46-1.15,0-2.09-.34-2.81-1.02-.73-.68-1.09-1.57-1.09-2.67s.45-2.25,1.35-3.38c.9-1.12,2.13-2.11,3.67-2.95,4.24-2.25,8.67-3.38,13.29-3.38ZM133.43,34.53c-1.03,0-1.93.42-2.69,1.27-.76.84-1.14,1.85-1.14,3.02s.27,2.03.81,2.72c.54.69,1.25,1.04,2.14,1.04,1.88,0,2.81-1.58,2.81-4.75,0-1.29-.14-2.16-.4-2.6-.27-.44-.78-.68-1.53-.7Z"/>
  <path class="cls-1" d="M176.88,2.96l-.32,11c-.02,1.1-.04,2.72-.04,4.85,0,2.37.04,3.76.11,4.18.16.96.66,1.44,1.48,1.44.7,0,1.78-.45,3.23-1.35,1.45-.9,2.18-1.58,2.18-2.02,0-.26-.26-.73-.77-1.41-.38-.49-.56-.96-.56-1.41,0-2.53,3.12-3.8,9.35-3.8,3.23,0,5.79.33,7.66.98.75.26,1.37.7,1.86,1.34s.74,1.31.74,2.04c0,1.05-.5,1.79-1.51,2.21-.21.09-.89.25-2.04.46-1.03.19-2.37.83-4.01,1.92-1.64,1.09-2.46,1.88-2.46,2.37,0,.33.99,1.87,2.97,4.62,1.98,2.75,3.83,5.15,5.54,7.19,1.1,1.34,1.96,2.27,2.58,2.81.62.54,1.48,1.11,2.58,1.72,1.69.91,2.53,1.96,2.53,3.13,0,1.24-.53,2.21-1.6,2.92-1.07.7-2.53,1.05-4.38,1.05h-11.39c-1.43-.02-2.54-.55-3.34-1.58l-5.84-7.49c-1.55-1.97-2.49-3.14-2.83-3.52-.34-.37-.63-.56-.86-.56-.28,0-.47.21-.56.63-.09.42-.14,1.22-.14,2.39,0,1.05.12,1.82.35,2.3.23.48.77,1.06,1.62,1.74.61.49.91,1.22.91,2.18,0,1.64-.87,2.82-2.6,3.55-1.73.73-4.59,1.09-8.58,1.09-4.69,0-7.73-.2-9.14-.6-.8-.23-1.48-.71-2.04-1.42-.56-.71-.84-1.47-.84-2.27,0-.89.49-1.66,1.48-2.32.84-.54,1.38-.95,1.62-1.23.23-.28.42-.73.56-1.34.54-3.28.8-8.34.77-15.19v-7.7c0-2.62-.14-4.3-.4-5.03-.27-.73-.93-1.16-1.99-1.3-1.92-.26-2.88-1.05-2.88-2.39,0-.89.42-1.69,1.27-2.41.84-.71,2.23-1.42,4.15-2.13,6.14-2.27,10.69-3.41,13.64-3.41,1.34,0,1.98.57,1.93,1.72Z"/>
  <path class="cls-1" d="M240.58,33.48h-16.52c-.73,0-1.09.32-1.09.95,0,1.52.83,2.96,2.48,4.31,1.65,1.35,3.43,2.02,5.33,2.02,1.12,0,2.37-.22,3.74-.65,1.37-.43,2.5-.97,3.39-1.6.8-.56,1.43-.84,1.9-.84.61,0,1.21.38,1.79,1.12.59.75.88,1.52.88,2.32,0,1.69-1.05,3.32-3.16,4.89-3.73,2.79-8.03,4.18-12.9,4.18s-9.05-1.43-12.38-4.29c-1.62-1.41-2.95-3.11-4.01-5.1-1.38-2.65-2.07-5.44-2.07-8.37,0-3.94,1.2-7.48,3.59-10.62,2.06-2.72,4.69-4.75,7.88-6.08,2.39-1.01,4.98-1.51,7.77-1.51,4.45,0,8.24,1.27,11.36,3.8,1.57,1.27,2.84,2.77,3.8,4.5,1.1,1.97,1.65,3.89,1.65,5.77,0,1.52-.32,2.77-.95,3.74-.63.97-1.45,1.46-2.46,1.46ZM224.97,26.9h3.55c1.5,0,2.25-.69,2.25-2.07,0-1.27-.36-2.3-1.09-3.09-.73-.8-1.68-1.2-2.85-1.2-1.31,0-2.34.52-3.09,1.55-.7.96-1.05,1.93-1.05,2.92,0,.7.17,1.2.51,1.48.34.28.93.42,1.78.42Z"/>
  <path class="cls-1" d="M260.34,14.21c1.17,0,3.08.26,5.73.77.54.09.98.14,1.34.14.4,0,1.17-.21,2.32-.63.54-.21,1-.32,1.37-.32,1.08,0,2.17.69,3.27,2.07.89,1.1,1.62,2.31,2.18,3.62.56,1.31.84,2.45.84,3.41s-.33,1.72-.98,2.34c-.66.62-1.48.93-2.46.93-.82,0-1.55-.2-2.2-.6-.65-.4-1.68-1.28-3.11-2.64-1.5-1.45-2.74-2.18-3.73-2.18-.66,0-1.23.24-1.71.72s-.72,1.05-.72,1.71c0,1.15,1.1,2.23,3.3,3.23,3.96,1.78,7,3.73,9.11,5.84,1.78,1.78,2.67,3.96,2.67,6.54,0,3.26-1.43,5.98-4.29,8.16-2.46,1.9-5.47,2.85-9.04,2.85-.91,0-2.58-.15-4.99-.46-2.27-.26-3.55-.39-3.83-.39-.3,0-.66.04-1.05.11-.68.09-1.17.14-1.48.14-1.1,0-1.97-.28-2.6-.84-.96-.87-1.85-2.23-2.67-4.1-.82-1.86-1.23-3.46-1.23-4.8,0-2.16.84-3.23,2.53-3.23.66,0,1.26.22,1.81.65.55.43,1.71,1.59,3.46,3.46.96,1.03,1.76,1.74,2.39,2.13s1.31.58,2.04.58c.77,0,1.39-.21,1.86-.62.47-.41.7-.95.7-1.63,0-1.05-.9-2.02-2.71-2.88-3.77-1.85-6.5-3.76-8.17-5.73-1.68-1.97-2.51-4.24-2.51-6.82,0-2.79.86-5.19,2.57-7.21,2.44-2.88,5.77-4.32,9.98-4.32Z"/>
  <path class="cls-1" d="M312.65,14.21c1.17,0,3.08.26,5.73.77.54.09.98.14,1.34.14.4,0,1.17-.21,2.32-.63.54-.21,1-.32,1.37-.32,1.08,0,2.17.69,3.27,2.07.89,1.1,1.62,2.31,2.18,3.62.56,1.31.84,2.45.84,3.41s-.33,1.72-.98,2.34c-.66.62-1.48.93-2.46.93-.82,0-1.55-.2-2.2-.6-.65-.4-1.68-1.28-3.11-2.64-1.5-1.45-2.74-2.18-3.73-2.18-.66,0-1.23.24-1.71.72s-.72,1.05-.72,1.71c0,1.15,1.1,2.23,3.3,3.23,3.96,1.78,7,3.73,9.11,5.84,1.78,1.78,2.67,3.96,2.67,6.54,0,3.26-1.43,5.98-4.29,8.16-2.46,1.9-5.47,2.85-9.04,2.85-.91,0-2.58-.15-4.99-.46-2.27-.26-3.55-.39-3.83-.39-.3,0-.66.04-1.05.11-.68.09-1.17.14-1.48.14-1.1,0-1.97-.28-2.6-.84-.96-.87-1.85-2.23-2.67-4.1-.82-1.86-1.23-3.46-1.23-4.8,0-2.16.84-3.23,2.53-3.23.66,0,1.26.22,1.81.65.55.43,1.71,1.59,3.46,3.46.96,1.03,1.76,1.74,2.39,2.13s1.31.58,2.04.58c.77,0,1.39-.21,1.86-.62.47-.41.7-.95.7-1.63,0-1.05-.9-2.02-2.71-2.88-3.77-1.85-6.5-3.76-8.17-5.73-1.68-1.97-2.51-4.24-2.51-6.82,0-2.79.86-5.19,2.57-7.21,2.44-2.88,5.77-4.32,9.98-4.32Z"/>
  <path class="cls-1" d="M354.66,14.18c4.29,0,8.05,1.11,11.29,3.34,2.32,1.59,4.18,3.67,5.59,6.22,1.45,2.67,2.18,5.46,2.18,8.37,0,5.09-2.33,9.41-7,12.97-4.45,3.4-9.55,5.1-15.29,5.1s-10.14-1.59-13.61-4.78c-3.38-3.09-5.06-7.12-5.06-12.09,0-5.53,2.06-10.05,6.19-13.57,4.31-3.7,9.55-5.55,15.71-5.55ZM351.85,22.3c-1.03,0-1.86.38-2.48,1.14-.62.76-.93,1.78-.93,3.04,0,1.41.26,3.32.79,5.75s1.15,4.58,1.88,6.45c.73,1.92,1.91,2.88,3.55,2.88,2.09,0,3.13-1.32,3.13-3.97,0-1.97-.26-4.21-.79-6.71-.53-2.51-1.17-4.55-1.92-6.12-.77-1.59-1.85-2.41-3.23-2.46Z"/>
  <path class="cls-1" d="M393.3,14.46c1.34,0,2,.95,2,2.85v.6c-.02.38-.04.68-.04.91,0,1.27.37,1.9,1.12,1.9.4,0,1.02-.5,1.86-1.51,1.27-1.45,2.86-2.61,4.78-3.46,1.92-.86,3.89-1.28,5.91-1.28,3.91,0,6.63,1.43,8.16,4.29.59,1.05,1.07,1.58,1.44,1.58.26,0,.87-.47,1.83-1.41,3.05-2.98,6.5-4.46,10.37-4.46,3.02,0,5.5.83,7.42,2.5,2.02,1.73,3.02,4.34,3.02,7.8,0,.75-.02,2.02-.07,3.8-.05.61-.07,2.45-.07,5.52,0,1.97-.01,3.35-.04,4.15-.02.49-.04.84-.04,1.05,0,1.5.47,2.81,1.41,3.94.56.68.91,1.13,1.04,1.35.13.22.19.52.19.9,0,3-3.53,4.5-10.58,4.5-3.12,0-5.63-.38-7.54-1.12-1.91-.75-2.87-1.73-2.87-2.95,0-.47.06-.83.19-1.07.13-.25.58-.9,1.35-1.95.73-.96,1.09-4.16,1.09-9.6,0-3.16-.22-5.37-.67-6.61-.52-1.48-1.55-2.21-3.09-2.21-.77,0-1.46.24-2.06.72-.6.48-.99,1.08-1.18,1.81-.21.84-.33,3.09-.35,6.75.07,3.94.19,6.33.37,7.17s.77,2.02,1.78,3.52c.23.35.35.8.35,1.34,0,2.79-3.64,4.18-10.93,4.18-4.38,0-7.34-.33-8.86-.98-1.22-.52-1.83-1.43-1.83-2.74,0-.59.08-1,.23-1.23.15-.23.67-.77,1.56-1.62.52-.49.85-.95,1-1.39.15-.43.26-1.22.33-2.37.16-2.58.25-5.18.25-7.8,0-4.59-1.17-6.89-3.52-6.89-1.76,0-2.8.98-3.13,2.95-.28,1.85-.42,4.5-.42,7.95,0,2.58.05,4.27.16,5.06.11.8.39,1.63.86,2.5.56,1.01.84,1.83.84,2.46,0,1.52-1.07,2.58-3.2,3.16-2.32.63-4.88.95-7.66.95-3.61,0-6.26-.29-7.95-.86s-2.53-1.48-2.53-2.72c0-.47.11-.87.33-1.2.22-.33.73-.84,1.53-1.55,1.05-.96,1.66-2.29,1.83-3.97.26-2.91.39-5.92.39-9.04,0-2.23-.11-3.78-.33-4.66-.22-.88-.7-1.59-1.42-2.13-.7-.54-1.15-.95-1.35-1.23-.2-.28-.3-.67-.3-1.16,0-1.57,1.23-2.81,3.69-3.73,5.93-2.13,10.37-3.21,13.32-3.23Z"/>
  <path class="cls-1" d="M478.17,33.48h-16.52c-.73,0-1.09.32-1.09.95,0,1.52.83,2.96,2.48,4.31,1.65,1.35,3.43,2.02,5.33,2.02,1.12,0,2.37-.22,3.74-.65,1.37-.43,2.5-.97,3.39-1.6.8-.56,1.43-.84,1.9-.84.61,0,1.21.38,1.79,1.12.59.75.88,1.52.88,2.32,0,1.69-1.05,3.32-3.16,4.89-3.73,2.79-8.03,4.18-12.9,4.18s-9.05-1.43-12.38-4.29c-1.62-1.41-2.95-3.11-4.01-5.1-1.38-2.65-2.07-5.44-2.07-8.37,0-3.94,1.2-7.48,3.59-10.62,2.06-2.72,4.69-4.75,7.88-6.08,2.39-1.01,4.98-1.51,7.77-1.51,4.45,0,8.24,1.27,11.36,3.8,1.57,1.27,2.84,2.77,3.8,4.5,1.1,1.97,1.65,3.89,1.65,5.77,0,1.52-.32,2.77-.95,3.74-.63.97-1.45,1.46-2.46,1.46ZM462.56,26.9h3.55c1.5,0,2.25-.69,2.25-2.07,0-1.27-.36-2.3-1.09-3.09-.73-.8-1.68-1.2-2.85-1.2-1.31,0-2.34.52-3.09,1.55-.7.96-1.05,1.93-1.05,2.92,0,.7.17,1.2.51,1.48.34.28.93.42,1.78.42Z"/>
  <path class="cls-1" d="M522.75,23.42v11.88c0,1.41.35,2.55,1.04,3.45.69.89,1.58,1.34,2.65,1.34.91,0,2.12-.42,3.62-1.27.35-.21.7-.32,1.05-.32.56,0,1.08.34,1.55,1.02.47.68.7,1.42.7,2.21,0,1.45-.8,2.85-2.39,4.18-3.33,2.84-7.36,4.25-12.09,4.25-3.75,0-6.76-1.06-9.04-3.18-2.27-2.12-3.41-4.92-3.41-8.38v-16.24c0-.54-.06-.87-.19-1-.13-.13-.46-.19-1-.19h-3.62c-.68,0-1.11-.11-1.3-.33-.19-.22-.28-.74-.28-1.56v-1.55c.02-.7.29-1.22.81-1.55l16.1-10.12c.4-.21.89-.32,1.48-.32h2.85c.59,0,.98.14,1.18.4.2.27.3.8.3,1.6v4.75c0,.7.11,1.16.33,1.37.22.21.7.32,1.42.32h6.5c.87,0,1.43.16,1.69.47.26.32.39.99.39,2.02v2.07c0,1.12-.16,1.9-.49,2.34-.33.43-.93.65-1.79.65h-6.36c-.66,0-1.1.12-1.34.35s-.35.68-.35,1.34Z"/>
  <path class="cls-1" d="M554.74,16.64v20.43c0,1.62.15,2.8.44,3.55.29.75.88,1.44,1.78,2.07.73.52,1.21.96,1.46,1.32.25.36.37.83.37,1.39,0,3.02-3.83,4.54-11.5,4.54-4.13,0-7.4-.33-9.81-.98-.82-.23-1.48-.64-1.99-1.23-.5-.59-.76-1.25-.76-2,0-.63.13-1.12.39-1.48.26-.35.91-.91,1.97-1.69.73-.54,1.24-1.42,1.55-2.64.3-1.22.46-3.04.46-5.45,0-.77-.05-2.22-.16-4.34-.11-2.12-.18-3.36-.23-3.71-.14-.96-.8-1.7-1.97-2.21-1.45-.63-2.18-1.57-2.18-2.81,0-1.48.95-2.58,2.85-3.3,2.62-1.01,5.44-1.86,8.44-2.57,3-.7,5.32-1.05,6.96-1.05,1.29,0,1.93.73,1.93,2.18ZM547.78,1.24c2.04,0,3.66.38,4.85,1.14,1.2.76,1.79,1.79,1.79,3.08,0,1.81-.9,3.23-2.71,4.29-2.86,1.66-6.32,2.5-10.37,2.5-1.71,0-3.07-.33-4.08-.98-1.36-.84-2.04-2.02-2.04-3.52,0-2.02,1.44-3.6,4.32-4.75,2.93-1.17,5.67-1.76,8.23-1.76Z"/>
  <path class="cls-1" d="M577.91,14.46c1.34,0,2,.95,2,2.85v.6c-.02.38-.04.68-.04.91,0,1.27.37,1.9,1.12,1.9.4,0,1.02-.5,1.86-1.51,1.27-1.45,2.86-2.61,4.78-3.46,1.92-.86,3.89-1.28,5.91-1.28,3.91,0,6.63,1.43,8.16,4.29.59,1.05,1.07,1.58,1.44,1.58.26,0,.87-.47,1.83-1.41,3.05-2.98,6.5-4.46,10.37-4.46,3.02,0,5.5.83,7.42,2.5,2.02,1.73,3.02,4.34,3.02,7.8,0,.75-.02,2.02-.07,3.8-.05.61-.07,2.45-.07,5.52,0,1.97-.01,3.35-.04,4.15-.02.49-.04.84-.04,1.05,0,1.5.47,2.81,1.41,3.94.56.68.91,1.13,1.04,1.35.13.22.19.52.19.9,0,3-3.53,4.5-10.58,4.5-3.12,0-5.63-.38-7.54-1.12s-2.87-1.73-2.87-2.95c0-.47.06-.83.19-1.07s.58-.9,1.35-1.95c.73-.96,1.09-4.16,1.09-9.6,0-3.16-.22-5.37-.67-6.61-.52-1.48-1.55-2.21-3.09-2.21-.77,0-1.46.24-2.06.72-.6.48-.99,1.08-1.18,1.81-.21.84-.33,3.09-.35,6.75.07,3.94.19,6.33.37,7.17s.77,2.02,1.78,3.52c.23.35.35.8.35,1.34,0,2.79-3.64,4.18-10.93,4.18-4.38,0-7.34-.33-8.86-.98-1.22-.52-1.83-1.43-1.83-2.74,0-.59.08-1,.23-1.23.15-.23.67-.77,1.56-1.62.52-.49.85-.95,1-1.39.15-.43.26-1.22.33-2.37.16-2.58.25-5.18.25-7.8,0-4.59-1.17-6.89-3.52-6.89-1.76,0-2.8.98-3.13,2.95-.28,1.85-.42,4.5-.42,7.95,0,2.58.05,4.27.16,5.06.11.8.39,1.63.86,2.5.56,1.01.84,1.83.84,2.46,0,1.52-1.07,2.58-3.2,3.16-2.32.63-4.88.95-7.66.95-3.61,0-6.26-.29-7.95-.86s-2.53-1.48-2.53-2.72c0-.47.11-.87.33-1.2.22-.33.73-.84,1.53-1.55,1.05-.96,1.66-2.29,1.83-3.97.26-2.91.39-5.92.39-9.04,0-2.23-.11-3.78-.33-4.66-.22-.88-.7-1.59-1.42-2.13-.7-.54-1.15-.95-1.35-1.23-.2-.28-.3-.67-.3-1.16,0-1.57,1.23-2.81,3.69-3.73,5.93-2.13,10.37-3.21,13.32-3.23Z"/>
  <path class="cls-1" d="M662.77,33.48h-16.52c-.73,0-1.09.32-1.09.95,0,1.52.83,2.96,2.48,4.31,1.65,1.35,3.43,2.02,5.33,2.02,1.12,0,2.37-.22,3.74-.65,1.37-.43,2.5-.97,3.39-1.6.8-.56,1.43-.84,1.9-.84.61,0,1.21.38,1.79,1.12.59.75.88,1.52.88,2.32,0,1.69-1.05,3.32-3.16,4.89-3.73,2.79-8.03,4.18-12.9,4.18s-9.05-1.43-12.38-4.29c-1.62-1.41-2.95-3.11-4.01-5.1-1.38-2.65-2.07-5.44-2.07-8.37,0-3.94,1.2-7.48,3.59-10.62,2.06-2.72,4.69-4.75,7.88-6.08,2.39-1.01,4.98-1.51,7.77-1.51,4.45,0,8.24,1.27,11.36,3.8,1.57,1.27,2.84,2.77,3.8,4.5,1.1,1.97,1.65,3.89,1.65,5.77,0,1.52-.32,2.77-.95,3.74-.63.97-1.45,1.46-2.46,1.46ZM647.16,26.9h3.55c1.5,0,2.25-.69,2.25-2.07,0-1.27-.36-2.3-1.09-3.09-.73-.8-1.68-1.2-2.85-1.2-1.31,0-2.34.52-3.09,1.55-.7.96-1.05,1.93-1.05,2.92,0,.7.17,1.2.51,1.48s.93.42,1.78.42Z"/>
  <path class="cls-1" d="M707.35,23.42v11.88c0,1.41.35,2.55,1.04,3.45.69.89,1.58,1.34,2.65,1.34.91,0,2.12-.42,3.62-1.27.35-.21.7-.32,1.05-.32.56,0,1.08.34,1.55,1.02.47.68.7,1.42.7,2.21,0,1.45-.8,2.85-2.39,4.18-3.33,2.84-7.36,4.25-12.09,4.25-3.75,0-6.76-1.06-9.04-3.18-2.27-2.12-3.41-4.92-3.41-8.38v-16.24c0-.54-.06-.87-.19-1-.13-.13-.46-.19-1-.19h-3.62c-.68,0-1.11-.11-1.3-.33-.19-.22-.28-.74-.28-1.56v-1.55c.02-.7.29-1.22.81-1.55l16.1-10.12c.4-.21.89-.32,1.48-.32h2.85c.59,0,.98.14,1.18.4.2.27.3.8.3,1.6v4.75c0,.7.11,1.16.33,1.37s.7.32,1.42.32h6.5c.87,0,1.43.16,1.69.47s.39.99.39,2.02v2.07c0,1.12-.16,1.9-.49,2.34-.33.43-.93.65-1.79.65h-6.36c-.66,0-1.1.12-1.34.35-.23.23-.35.68-.35,1.34Z"/>
  <path class="cls-1" d="M741.17,14.18c4.29,0,8.05,1.11,11.29,3.34,2.32,1.59,4.18,3.67,5.59,6.22,1.45,2.67,2.18,5.46,2.18,8.37,0,5.09-2.33,9.41-7,12.97-4.45,3.4-9.55,5.1-15.29,5.1s-10.14-1.59-13.61-4.78c-3.38-3.09-5.06-7.12-5.06-12.09,0-5.53,2.06-10.05,6.19-13.57,4.31-3.7,9.55-5.55,15.71-5.55ZM738.36,22.3c-1.03,0-1.86.38-2.48,1.14-.62.76-.93,1.78-.93,3.04,0,1.41.26,3.32.79,5.75s1.15,4.58,1.88,6.45c.73,1.92,1.91,2.88,3.55,2.88,2.09,0,3.13-1.32,3.13-3.97,0-1.97-.26-4.21-.79-6.71-.53-2.51-1.17-4.55-1.92-6.12-.77-1.59-1.85-2.41-3.23-2.46Z"/>
  <path class="cls-1" d="M801.64,23.42v11.88c0,1.41.35,2.55,1.04,3.45.69.89,1.58,1.34,2.65,1.34.91,0,2.12-.42,3.62-1.27.35-.21.7-.32,1.05-.32.56,0,1.08.34,1.55,1.02.47.68.7,1.42.7,2.21,0,1.45-.8,2.85-2.39,4.18-3.33,2.84-7.36,4.25-12.09,4.25-3.75,0-6.76-1.06-9.04-3.18-2.27-2.12-3.41-4.92-3.41-8.38v-16.24c0-.54-.06-.87-.19-1-.13-.13-.46-.19-1-.19h-3.62c-.68,0-1.11-.11-1.3-.33-.19-.22-.28-.74-.28-1.56v-1.55c.02-.7.29-1.22.81-1.55l16.1-10.12c.4-.21.89-.32,1.48-.32h2.85c.59,0,.98.14,1.18.4.2.27.3.8.3,1.6v4.75c0,.7.11,1.16.33,1.37s.7.32,1.42.32h6.5c.87,0,1.43.16,1.69.47s.39.99.39,2.02v2.07c0,1.12-.16,1.9-.49,2.34-.33.43-.93.65-1.79.65h-6.36c-.66,0-1.1.12-1.34.35-.23.23-.35.68-.35,1.34Z"/>
  <path class="cls-1" d="M833.88,2.96l-.46,14.73c-.05,1.76.49,2.64,1.62,2.64.56,0,1.11-.39,1.65-1.16,2.27-3.3,5.31-4.96,9.11-4.96s6.69,1.14,8.89,3.41c.98,1.01,1.68,2.2,2.09,3.59.41,1.38.64,3.36.69,5.94l.32,12.69c.02,1.1.17,1.91.44,2.43.27.52.9,1.16,1.88,1.93.68.54,1.02,1.18,1.02,1.93,0,2.53-3.82,3.8-11.46,3.8-6.8,0-10.2-1.18-10.2-3.55,0-.4.06-.7.18-.91s.53-.77,1.23-1.69c.98-1.29,1.48-4.51,1.48-9.67,0-3.12-.29-5.39-.88-6.82-.77-1.95-2.16-2.92-4.15-2.92-1.43,0-2.48.52-3.16,1.55-.49.75-.74,2.16-.74,4.22v6.79c.16,3,.3,4.7.42,5.1.12.4.66,1.14,1.62,2.21.45.49.67,1.07.67,1.72,0,2.65-3.45,3.97-10.34,3.97-8.06,0-12.09-1.37-12.09-4.11,0-.63.13-1.12.39-1.46.26-.34.89-.86,1.9-1.56.89-.63,1.51-2.34,1.85-5.12s.51-7.38.51-13.8c0-5.04-.14-8.53-.42-10.48-.09-.73-.26-1.26-.51-1.6-.25-.34-.71-.69-1.39-1.04-1.45-.75-2.18-1.62-2.18-2.6,0-1.17.55-2.12,1.65-2.85,1.1-.73,3.21-1.51,6.33-2.36,4.22-1.17,7.58-1.76,10.09-1.76,1.36,0,2.02.59,1.97,1.76Z"/>
  <path class="cls-1" d="M882.75,16.64v20.43c0,1.62.15,2.8.44,3.55.29.75.88,1.44,1.78,2.07.73.52,1.21.96,1.46,1.32.25.36.37.83.37,1.39,0,3.02-3.83,4.54-11.5,4.54-4.12,0-7.39-.33-9.81-.98-.82-.23-1.48-.64-1.99-1.23-.5-.59-.76-1.25-.76-2,0-.63.13-1.12.39-1.48s.91-.91,1.97-1.69c.73-.54,1.24-1.42,1.55-2.64.3-1.22.46-3.04.46-5.45,0-.77-.05-2.22-.16-4.34-.11-2.12-.18-3.36-.23-3.71-.14-.96-.8-1.7-1.97-2.21-1.45-.63-2.18-1.57-2.18-2.81,0-1.48.95-2.58,2.85-3.3,2.62-1.01,5.44-1.86,8.44-2.57s5.32-1.05,6.96-1.05c1.29,0,1.93.73,1.93,2.18ZM875.79,1.24c2.04,0,3.66.38,4.85,1.14,1.2.76,1.79,1.79,1.79,3.08,0,1.81-.9,3.23-2.71,4.29-2.86,1.66-6.32,2.5-10.37,2.5-1.71,0-3.07-.33-4.08-.98-1.36-.84-2.04-2.02-2.04-3.52,0-2.02,1.44-3.6,4.32-4.75,2.93-1.17,5.67-1.76,8.23-1.76Z"/>
  <path class="cls-1" d="M931.51,27.18l.49,12.38c.05.94.19,1.63.44,2.07.25.45.97,1.3,2.16,2.57.35.38.53.9.53,1.58,0,1.55-.93,2.62-2.78,3.23s-5.16.91-9.91.91c-3.23,0-5.52-.28-6.86-.84-1.38-.59-2.07-1.53-2.07-2.85,0-.47.07-.81.21-1.04.14-.22.61-.77,1.41-1.63.94-.98,1.41-4.27,1.41-9.84,0-3.23-.38-5.62-1.12-7.17-.61-1.24-1.73-1.86-3.38-1.86s-2.65.5-3.23,1.51c-.59,1.01-.88,2.84-.88,5.48v6.96c0,1.38.09,2.33.26,2.85.18.52.76,1.51,1.74,2.99.26.42.39.9.39,1.44,0,1.38-.96,2.4-2.88,3.06s-4.92.98-9,.98c-6.52,0-9.77-1.35-9.77-4.04,0-.56.1-.99.3-1.28.2-.29.67-.71,1.42-1.25.61-.44,1-.95,1.16-1.53.16-.57.32-1.99.46-4.24.16-2.67.25-5.47.25-8.4,0-1.62-.12-2.68-.37-3.18-.25-.5-.96-1.12-2.13-1.85-1.01-.63-1.51-1.41-1.51-2.32s.41-1.71,1.23-2.3,2.51-1.35,5.06-2.27c2.25-.8,4.42-1.47,6.5-2.02,2.09-.55,3.52-.83,4.29-.83.7,0,1.29.26,1.78.77.48.52.72,1.12.72,1.83,0,.07-.01.36-.04.88-.02.19-.04.35-.04.49,0,1.12.47,1.69,1.41,1.69.56,0,1.16-.44,1.79-1.34,2.02-2.91,4.95-4.36,8.79-4.36,2.95,0,5.48.77,7.59,2.32,1.48,1.1,2.51,2.4,3.09,3.88.59,1.49.95,3.67,1.09,6.56Z"/>
  <path class="cls-1" d="M957.52,2.96l-.32,11c-.02,1.1-.04,2.72-.04,4.85,0,2.37.04,3.76.11,4.18.16.96.66,1.44,1.48,1.44.7,0,1.78-.45,3.23-1.35,1.45-.9,2.18-1.58,2.18-2.02,0-.26-.26-.73-.77-1.41-.38-.49-.56-.96-.56-1.41,0-2.53,3.12-3.8,9.35-3.8,3.23,0,5.79.33,7.66.98.75.26,1.37.7,1.86,1.34s.74,1.31.74,2.04c0,1.05-.5,1.79-1.51,2.21-.21.09-.89.25-2.04.46-1.03.19-2.37.83-4.01,1.92s-2.46,1.88-2.46,2.37c0,.33.99,1.87,2.97,4.62,1.98,2.75,3.83,5.15,5.54,7.19,1.1,1.34,1.96,2.27,2.58,2.81.62.54,1.48,1.11,2.58,1.72,1.69.91,2.53,1.96,2.53,3.13,0,1.24-.53,2.21-1.6,2.92s-2.53,1.05-4.38,1.05h-11.39c-1.43-.02-2.54-.55-3.34-1.58l-5.84-7.49c-1.55-1.97-2.49-3.14-2.83-3.52-.34-.37-.63-.56-.86-.56-.28,0-.47.21-.56.63s-.14,1.22-.14,2.39c0,1.05.12,1.82.35,2.3.23.48.77,1.06,1.62,1.74.61.49.91,1.22.91,2.18,0,1.64-.87,2.82-2.6,3.55s-4.59,1.09-8.58,1.09c-4.69,0-7.73-.2-9.14-.6-.8-.23-1.48-.71-2.04-1.42-.56-.71-.84-1.47-.84-2.27,0-.89.49-1.66,1.48-2.32.84-.54,1.38-.95,1.62-1.23s.42-.73.56-1.34c.54-3.28.8-8.34.77-15.19v-7.7c0-2.62-.13-4.3-.4-5.03-.27-.73-.93-1.16-1.99-1.3-1.92-.26-2.88-1.05-2.88-2.39,0-.89.42-1.69,1.27-2.41.84-.71,2.23-1.42,4.15-2.13,6.14-2.27,10.69-3.41,13.64-3.41,1.34,0,1.98.57,1.93,1.72Z"/>
  <path class="cls-1" d="M1017.5,33.58c2.23,0,4.16.77,5.8,2.32,1.66,1.57,2.5,3.6,2.5,6.08,0,2.32-.83,4.28-2.5,5.87-1.64,1.55-3.57,2.32-5.8,2.32s-4.16-.77-5.8-2.32c-1.66-1.59-2.5-3.59-2.5-5.98s.83-4.43,2.5-5.98c1.64-1.52,3.57-2.3,5.8-2.32Z"/>
  <path class="cls-1" d="M1039.09,33.58c2.23,0,4.16.77,5.8,2.32,1.66,1.57,2.5,3.6,2.5,6.08,0,2.32-.83,4.28-2.5,5.87-1.64,1.55-3.57,2.32-5.8,2.32s-4.16-.77-5.8-2.32c-1.66-1.59-2.5-3.59-2.5-5.98s.83-4.43,2.5-5.98c1.64-1.52,3.57-2.3,5.8-2.32Z"/>
  <path class="cls-1" d="M1060.67,33.58c2.23,0,4.16.77,5.8,2.32,1.66,1.57,2.5,3.6,2.5,6.08,0,2.32-.83,4.28-2.5,5.87-1.64,1.55-3.57,2.32-5.8,2.32s-4.16-.77-5.8-2.32c-1.66-1.59-2.5-3.59-2.5-5.98s.83-4.43,2.5-5.98c1.64-1.52,3.57-2.3,5.8-2.32Z"/>
  <path class="cls-1" d="M1082.26,33.58c2.23,0,4.16.77,5.8,2.32,1.66,1.57,2.5,3.6,2.5,6.08,0,2.32-.83,4.28-2.5,5.87-1.64,1.55-3.57,2.32-5.8,2.32s-4.16-.77-5.8-2.32c-1.66-1.59-2.5-3.59-2.5-5.98s.83-4.43,2.5-5.98c1.64-1.52,3.57-2.3,5.8-2.32Z"/>
  <path class="cls-1" d="M1103.84,33.58c2.23,0,4.16.77,5.8,2.32,1.66,1.57,2.5,3.6,2.5,6.08,0,2.32-.83,4.28-2.5,5.87-1.64,1.55-3.57,2.32-5.8,2.32s-4.16-.77-5.8-2.32c-1.66-1.59-2.5-3.59-2.5-5.98s.83-4.43,2.5-5.98c1.64-1.52,3.57-2.3,5.8-2.32Z"/>
  <path class="cls-1" d="M1125.43,33.58c2.23,0,4.16.77,5.8,2.32,1.66,1.57,2.5,3.6,2.5,6.08,0,2.32-.83,4.28-2.5,5.87-1.64,1.55-3.57,2.32-5.8,2.32s-4.16-.77-5.8-2.32c-1.66-1.59-2.5-3.59-2.5-5.98s.83-4.43,2.5-5.98c1.64-1.52,3.57-2.3,5.8-2.32Z"/>
  <path class="cls-1" d="M1147.02,33.58c2.23,0,4.16.77,5.8,2.32,1.66,1.57,2.5,3.6,2.5,6.08,0,2.32-.83,4.28-2.5,5.87-1.64,1.55-3.57,2.32-5.8,2.32s-4.16-.77-5.8-2.32c-1.66-1.59-2.5-3.59-2.5-5.98s.83-4.43,2.5-5.98c1.64-1.52,3.57-2.3,5.8-2.32Z"/>
  <path class="cls-1" d="M1168.6,33.58c2.23,0,4.16.77,5.8,2.32,1.66,1.57,2.5,3.6,2.5,6.08,0,2.32-.83,4.28-2.5,5.87-1.64,1.55-3.57,2.32-5.8,2.32s-4.16-.77-5.8-2.32c-1.66-1.59-2.5-3.59-2.5-5.98s.83-4.43,2.5-5.98c1.64-1.52,3.57-2.3,5.8-2.32Z"/>
</svg>